<?xml version="1.0" encoding="utf-8"?>
<!-- Generator: Adobe Illustrator 20.0.0, SVG Export Plug-In . SVG Version: 6.00 Build 0)  -->
<svg version="1.1" id="Vrstva_3" xmlns="http://www.w3.org/2000/svg" xmlns:xlink="http://www.w3.org/1999/xlink" x="0px" y="0px"
	 viewBox="0 0 640 480" style="enable-background:new 0 0 640 480;" xml:space="preserve">
<style type="text/css">
	.st0{fill:#FFFFFF;}
	.st1{fill:#CC0000;}
	.st2{fill:#EBEAE3;stroke:#000000;stroke-width:0.5205;}
	.st3{fill:#FFFFFF;stroke:#161111;stroke-width:1.8486;}
	.st4{fill:#B02320;stroke:#000000;stroke-width:1.3012;}
	.st5{fill:none;stroke:#000000;stroke-width:1.145;}
	.st6{fill:#FFCC00;fill-opacity:0.9412;stroke:#000000;stroke-width:1.1971;}
	.st7{fill:#121116;stroke:#121116;stroke-width:1.1674;stroke-linejoin:round;}
	.st8{fill:#F6CA1F;stroke:#000000;stroke-width:0.9889;}
	.st9{fill:#EEEEEE;stroke:#1E1E1E;stroke-width:3.5813;stroke-linejoin:round;}
	.st10{fill:#A3AFB8;}
	.st11{fill:#EEEEEE;stroke:#1E1E1E;stroke-width:4.2825;stroke-linejoin:round;}
	.st12{fill:#EEEEEE;stroke:#1E1E1E;stroke-width:3.96;stroke-linejoin:round;}
	.st13{fill:#EEEEEE;stroke:#1E1E1E;stroke-width:3.8133;stroke-linejoin:round;}
	.st14{fill:#EEEEEE;stroke:#1E1E1E;stroke-width:4.5221;stroke-linejoin:round;}
	.st15{fill:#B3A192;stroke:#000000;stroke-width:1.1674;}
	.st16{fill:#F0DDCB;stroke:#121116;stroke-width:0.5949;stroke-linejoin:round;}
	.st17{fill:#916C68;stroke:#4D3126;stroke-width:0.5949;stroke-linejoin:round;}
	.st18{fill:#EEEEEE;stroke:#1E1E1E;stroke-width:4.839;stroke-linejoin:round;}
	.st19{fill:#FFCC00;stroke:#000000;stroke-width:0.5205;}
	.st20{fill:#FFCC00;stroke:#000000;stroke-width:1.1674;}
	.st21{fill:#FFCC00;stroke:#121116;stroke-width:1.1674;}
	.st22{fill:#FFCC00;stroke:#000000;stroke-width:1.1971;}
	.st23{fill:#FFCC00;stroke:#121116;stroke-width:1.1674;stroke-linejoin:round;}
	.st24{fill:#FFCC00;stroke:#000000;stroke-width:0.9889;}
	.st25{fill:#F6CA1F;stroke:#000000;stroke-width:0.9368;}
	.st26{fill:#FFCC00;stroke:#000000;stroke-width:3.5127;}
	.st27{fill:#FFCC00;stroke:#000000;stroke-width:3.5127;stroke-linejoin:round;}
	.st28{fill:#CCA715;stroke:#000000;stroke-width:0.5205;}
	.st29{fill:#0F6545;stroke:#000000;stroke-width:0.6951;stroke-linejoin:round;}
	.st30{fill:#CECFC1;}
	.st31{fill:#1F2D86;stroke:#000000;stroke-width:0.9889;stroke-linejoin:round;}
	.st32{fill:#707C8B;}
	.st33{fill:#9F1209;stroke:#000000;stroke-width:0.5205;}
	.st34{fill:#8F322F;}
	.st35{fill:#E2A494;}
	.st36{fill:#AA675D;}
	.st37{fill:#F5D8BC;}
	.st38{fill:none;stroke:#000000;stroke-width:1.1971;}
	.st39{fill:none;stroke:#000000;stroke-width:1.093;}
	.st40{fill:none;stroke:#000000;stroke-width:1.0409;}
	.st41{fill:#CC0000;stroke:#161111;stroke-width:1.5967;}
	.st42{fill:none;stroke:#161111;stroke-width:1.5967;}
</style>
<g>
	<rect y="0.5" class="st0" width="640" height="479"/>
	<rect id="a" y="192.1" class="st1" width="640" height="95.8"/>
	<rect x="285" y="0.5" class="st1" width="95.8" height="479"/>
	<path class="st2" d="M368,146.8c3.1-4.8,1.2-7.9-3.4-8.9c0,0-14.8,4.8-30.9,5.3c-16,0.5-35.1-4-35.1-4c-3.4,2.1-2.6,7.2-0.9,10.4
		c0,0,16.8,5.6,35.9,5c12.1-0.3,23.6-3.4,30.1-5.5C367.4,147.9,368,146.9,368,146.8z"/>
	<path class="st3" d="M332.9,357.3l-30.8-64l-70.8,5.3l40-58.7l-40-58.7l70.8,5.3l30.8-64l30.8,64l70.8-5.3l-40,58.7l40,58.7
		l-70.8-5.3L332.9,357.3z"/>
	<path class="st4" d="M332.9,122.5c38.7,6.4,37.3,8.2,37.3,8.2l10.1-30.2c0,0,1.1-6-1.7-9.6c-2.8-3.6-10.5-1.6-10.5-1.6
		s-1.1-4.9-4.5-6.1c-3.4-1.2-16,4.6-20,5.8c-3.9,1.3-6,2.6-11.5,2.4c-5.5-0.1-15.4-5-17.2-6c-1.8-1-4.5-1.9-6.9-1.8
		c-2.4,0.1-5,0.7-6.3,2.4c-1.3,1.7-1.3,3.8-1.3,3.8s-2-1.3-5.2-1.3c-3.2,0-5,0.4-6.5,2.1c-1.5,1.7-3.4,6.5-3.4,6.5l3.6,8.2l0.2,11.3
		l7.5,11.9L332.9,122.5z"/>
	<path class="st2" d="M368.7,139.5c0,0,1.9,2.3,1.9,3.1c-0.1,0.8-0.9,1.6-0.9,1.6s0.6,0.6,0.4,1.5c-0.1,0.9-1.3,1-1.3,1
		s0.2,0.8-0.5,1.2s-3.8,1-3.8,1s-15-4.3-31-4.3s-34.9,5.2-34.9,5.2s-1.9-0.7-2-1.9s0.2-2.2,0.2-2.2s-1.1,0.1-1.3-0.8
		c-0.4-1.3,0.1-2.3,0.1-2.3s-0.7,0.2,0.1-1.5c0.6-1.3,1.5-1.7,1.5-1.7s16.8-6,35.9-6.1C352.1,133.2,368.7,139.4,368.7,139.5z"/>
	<path class="st5" d="M328.5,101.8c0,0-0.6-2.2,0.8-4.1c1.4-1.9,4-1.8,4.7-1.4c0.8,0.4,0.6,1.3,1.7,1.5c1,0.3,1.8-0.5,1.8-0.5"/>
	<path class="st6" d="M341.5,106.9l-5.8,12l-2.3,0.4c0,0-1.4-0.8-5.4-0.6c-2.8,0.2-3.7,0.9-3.7,0.9l5.2-12c0,0,0.4,2.6,1,4.1
		c0.8,1.9,3.6,3.7,3.6,3.7s0.4-2.3-0.4-5.1c-0.8-3.1-2.8-7.3-2.8-7.3L341.5,106.9z"/>
	<rect x="329.7" y="69.5" class="st7" width="6.5" height="27.6"/>
	<path class="st8" d="M288.9,120.5l4.2,8.9c0,0,17.8-6.9,38.8-6.8c31.5,0.2,40.4,6.5,40.4,6.5l4.7-11.1l-3.5,2l-3.6,2.2l-4.1,1.6
		l-5-0.4l-4.4-3.2l-2.2-4.7l-3.7,3.4l-6.5,1.5l-6.4-1.7l-5.6-7.1c0,0-4.2,7.9-9.5,8.4c-7.7,0.7-12.1-3.7-12.1-3.7s-2.9,6.4-7.6,7.6
		C295.2,125.8,289,120.5,288.9,120.5z"/>
	<g>
		<g>
			<path class="st9" d="M361.3,66c0,1.9-1.5,3.4-3.4,3.4c-1.9,0-3.4-1.5-3.4-3.4c0-1.9,1.5-3.4,3.3-3.4
				C359.8,62.6,361.3,64.1,361.3,66"/>
			<path class="st10" d="M356.4,67.8c0,0,2.7,0,3-1.2s-0.2-2.5-0.2-2.5s1.3,1.4,0.9,2.5c-0.4,1.1-0.7,1.4-1.7,1.6
				C357.8,68.4,356.9,68.1,356.4,67.8z"/>
		</g>
		<g>
			<path class="st9" d="M353.1,69.8c0,1.9-1.5,3.4-3.4,3.4c-1.9,0-3.4-1.5-3.4-3.4c0-1.9,1.5-3.4,3.3-3.4
				C351.6,66.4,353.1,67.9,353.1,69.8"/>
			<path class="st10" d="M348.2,71.6c0,0,2.7,0,3-1.2s-0.2-2.5-0.2-2.5s1.3,1.4,0.9,2.5c-0.4,1.1-0.7,1.4-1.7,1.6
				C349.7,72.2,348.7,71.9,348.2,71.6z"/>
		</g>
		<g>
			<path class="st9" d="M370.8,63.8c0,1.9-1.5,3.4-3.4,3.4c-1.9,0-3.4-1.5-3.4-3.4c0-1.9,1.5-3.4,3.3-3.4
				C369.2,60.4,370.8,61.9,370.8,63.8"/>
			<path class="st10" d="M365.8,65.5c0,0,2.7,0,3-1.2c0.3-1.1-0.2-2.5-0.2-2.5s1.3,1.4,0.9,2.5c-0.4,1.1-0.7,1.4-1.7,1.6
				C367.3,66.1,366.3,65.9,365.8,65.5z"/>
		</g>
		<g>
			<path class="st9" d="M381.4,65.9c0,1.9-1.5,3.4-3.4,3.4s-3.4-1.5-3.4-3.4c0-1.9,1.5-3.4,3.3-3.4C379.9,62.5,381.4,64,381.4,65.9"
				/>
			<path class="st10" d="M376.5,67.7c0,0,2.7,0,3-1.2c0.3-1.1-0.2-2.5-0.2-2.5s1.3,1.4,0.9,2.5c-0.4,1.1-0.7,1.4-1.7,1.6
				C378,68.3,377,68,376.5,67.7z"/>
		</g>
		<g>
			<path class="st9" d="M389.6,72.6c0,1.9-1.5,3.4-3.4,3.4c-1.9,0-3.4-1.5-3.4-3.4c0-1.9,1.5-3.4,3.3-3.4
				C388,69.2,389.6,70.7,389.6,72.6"/>
			<path class="st10" d="M384.6,74.4c0,0,2.7,0,3-1.2c0.3-1.1-0.2-2.5-0.2-2.5s1.3,1.4,0.9,2.5c-0.4,1.1-0.7,1.4-1.7,1.6
				C386.1,75,385.1,74.7,384.6,74.4z"/>
		</g>
		<g>
			<path class="st9" d="M393.1,83.6c0,1.9-1.5,3.4-3.4,3.4c-1.9,0-3.4-1.5-3.4-3.4c0-1.9,1.5-3.4,3.3-3.4
				C391.6,80.2,393.1,81.7,393.1,83.6"/>
			<path class="st10" d="M388.2,85.4c0,0,2.7,0,3-1.2c0.3-1.1-0.2-2.5-0.2-2.5s1.3,1.4,0.9,2.5c-0.4,1.1-0.7,1.4-1.7,1.6
				C389.6,86,388.7,85.7,388.2,85.4z"/>
		</g>
		<g>
			<path class="st9" d="M391.8,94.7c0,1.9-1.5,3.4-3.4,3.4s-3.4-1.5-3.4-3.4c0-1.9,1.5-3.4,3.3-3.4
				C390.3,91.3,391.8,92.8,391.8,94.7"/>
			<path class="st10" d="M386.9,96.5c0,0,2.7,0,3-1.2c0.3-1.1-0.2-2.5-0.2-2.5s1.3,1.4,0.9,2.5c-0.4,1.1-0.7,1.4-1.7,1.6
				C388.3,97.1,387.4,96.9,386.9,96.5z"/>
		</g>
		<g>
			<path class="st9" d="M386.8,104.5c0,1.9-1.5,3.4-3.4,3.4s-3.4-1.5-3.4-3.4c0-1.9,1.5-3.4,3.3-3.4
				C385.3,101.1,386.8,102.6,386.8,104.5"/>
			<path class="st10" d="M381.9,106.2c0,0,2.7,0,3-1.2c0.3-1.1-0.2-2.5-0.2-2.5s1.3,1.4,0.9,2.5c-0.4,1.1-0.7,1.4-1.7,1.6
				C383.4,106.9,382.4,106.6,381.9,106.2z"/>
		</g>
		<g>
			<path class="st9" d="M345.2,72.8c0,1.9-1.5,3.4-3.4,3.4c-1.9,0-3.4-1.5-3.4-3.4c0-1.9,1.5-3.4,3.3-3.4
				C343.7,69.3,345.2,70.8,345.2,72.8"/>
			<path class="st10" d="M340.3,74.5c0,0,2.7,0,3-1.2c0.3-1.1-0.2-2.5-0.2-2.5s1.3,1.4,0.9,2.5c-0.4,1.1-0.7,1.4-1.7,1.6
				C341.7,75.1,340.8,74.9,340.3,74.5z"/>
		</g>
		<g>
			<path class="st11" d="M335.1,71.9c0,1.6-1.3,2.8-2.8,2.8c-1.5,0-2.8-1.3-2.8-2.8c0-1.6,1.2-2.8,2.8-2.9
				C333.8,69,335,70.3,335.1,71.9"/>
			<path class="st10" d="M330.9,73.3c0,0,2.3,0,2.5-1c0.2-0.9-0.2-2.1-0.2-2.1s1.1,1.2,0.8,2.1s-0.6,1.2-1.4,1.3
				C332.1,73.9,331.4,73.7,330.9,73.3z"/>
		</g>
		<g>
			<path class="st11" d="M335.1,75.4c0,1.6-1.3,2.8-2.8,2.8c-1.5,0-2.8-1.3-2.8-2.8c0-1.6,1.2-2.8,2.8-2.9
				C333.8,72.6,335.1,73.8,335.1,75.4"/>
			<path class="st10" d="M331,76.9c0,0,2.3,0,2.5-1c0.2-0.9-0.2-2.1-0.2-2.1s1.1,1.2,0.8,2.1s-0.6,1.2-1.4,1.3
				C332.2,77.4,331.4,77.2,331,76.9z"/>
		</g>
		<g>
			<path class="st11" d="M335.3,80.6c0,1.6-1.3,2.8-2.8,2.8c-1.5,0-2.8-1.3-2.8-2.8c0-1.6,1.2-2.8,2.8-2.9
				C334,77.8,335.3,79,335.3,80.6"/>
			<path class="st10" d="M331.2,82.1c0,0,2.3,0,2.5-1c0.2-0.9-0.2-2.1-0.2-2.1s1.1,1.2,0.8,2.1s-0.6,1.2-1.4,1.3
				C332.4,82.6,331.6,82.4,331.2,82.1z"/>
		</g>
		<g>
			<path class="st12" d="M335.6,86.2c0,1.7-1.4,3.1-3,3.1c-1.7,0-3-1.4-3-3.1c0-1.7,1.3-3.1,3-3.1C334.2,83.1,335.6,84.4,335.6,86.2
				"/>
			<path class="st10" d="M331.1,87.7c0,0,2.5,0,2.7-1c0.2-1-0.2-2.3-0.2-2.3s1.2,1.3,0.8,2.3c-0.3,1-0.7,1.3-1.5,1.5
				C332.4,88.3,331.6,88.1,331.1,87.7z"/>
		</g>
		<g>
			<path class="st9" d="M335.9,93.6c0,1.9-1.5,3.4-3.4,3.4s-3.4-1.5-3.4-3.4c0-1.9,1.5-3.4,3.3-3.4
				C334.4,90.2,335.9,91.7,335.9,93.6"/>
			<path class="st10" d="M331,95.3c0,0,2.7,0,3-1.2c0.3-1.1-0.2-2.5-0.2-2.5s1.3,1.4,0.9,2.5c-0.4,1.1-0.7,1.4-1.7,1.6
				C332.4,95.9,331.5,95.7,331,95.3z"/>
		</g>
		<g>
			<path class="st13" d="M335.6,108.8c0,1.8-1.4,3.2-3.1,3.2s-3.2-1.4-3.2-3.2c0-1.8,1.4-3.2,3.1-3.2
				C334.1,105.6,335.5,107,335.6,108.8"/>
			<path class="st10" d="M330.9,110.4c0,0,2.5,0,2.8-1.1c0.3-1-0.2-2.4-0.2-2.4s1.2,1.3,0.9,2.4s-0.7,1.3-1.6,1.5
				C332.3,111,331.4,110.8,330.9,110.4z"/>
		</g>
		<g>
			<path class="st9" d="M326.5,72.7c0,1.9-1.5,3.4-3.4,3.4c-1.9,0-3.4-1.5-3.4-3.4c0-1.9,1.5-3.4,3.3-3.4
				C324.9,69.2,326.5,70.8,326.5,72.7"/>
			<path class="st10" d="M321.5,74.4c0,0,2.7,0,3-1.2c0.3-1.1-0.2-2.5-0.2-2.5s1.3,1.4,0.9,2.5c-0.4,1.1-0.7,1.4-1.7,1.6
				C323,75,322.1,74.8,321.5,74.4z"/>
		</g>
		<g>
			<path class="st9" d="M318.1,69.4c0,1.9-1.5,3.4-3.4,3.4c-1.9,0-3.4-1.5-3.4-3.4c0-1.9,1.5-3.4,3.3-3.4
				C316.6,66,318.1,67.5,318.1,69.4"/>
			<path class="st10" d="M313.2,71.1c0,0,2.7,0,3-1.2c0.3-1.1-0.2-2.5-0.2-2.5s1.3,1.4,0.9,2.5s-0.7,1.4-1.7,1.6
				C314.7,71.7,313.7,71.5,313.2,71.1z"/>
		</g>
		<g>
			<path class="st9" d="M310.2,65.6c0,1.9-1.5,3.4-3.4,3.4c-1.9,0-3.4-1.5-3.4-3.4c0-1.9,1.5-3.4,3.3-3.4
				C308.6,62.2,310.2,63.7,310.2,65.6"/>
			<path class="st10" d="M305.2,67.4c0,0,2.7,0,3-1.2c0.3-1.1-0.2-2.5-0.2-2.5s1.3,1.4,0.9,2.5c-0.4,1.1-0.7,1.4-1.7,1.6
				C306.7,68,305.8,67.7,305.2,67.4z"/>
		</g>
		<g>
			<path class="st9" d="M301,63.6c0,1.9-1.5,3.4-3.4,3.4c-1.9,0-3.4-1.5-3.4-3.4c0-1.9,1.5-3.4,3.3-3.4
				C299.5,60.2,301,61.7,301,63.6"/>
			<path class="st10" d="M296.1,65.4c0,0,2.7,0,3-1.2c0.3-1.1-0.2-2.5-0.2-2.5s1.3,1.4,0.9,2.5c-0.4,1.1-0.7,1.4-1.7,1.6
				C297.5,66,296.6,65.7,296.1,65.4z"/>
		</g>
		<g>
			<path class="st9" d="M290.2,66.2c0,1.9-1.5,3.4-3.4,3.4c-1.9,0-3.4-1.5-3.4-3.4c0-1.9,1.5-3.4,3.3-3.4
				C288.7,62.8,290.2,64.3,290.2,66.2"/>
			<path class="st10" d="M285.3,68c0,0,2.7,0,3-1.2s-0.2-2.5-0.2-2.5s1.3,1.4,0.9,2.5c-0.4,1.1-0.7,1.4-1.7,1.6
				C286.8,68.6,285.8,68.3,285.3,68z"/>
		</g>
		<g>
			<path class="st9" d="M282.6,73.8c0,1.9-1.5,3.4-3.4,3.4c-1.9,0-3.4-1.5-3.4-3.4c0-1.9,1.5-3.4,3.3-3.4
				C281.1,70.4,282.6,71.9,282.6,73.8"/>
			<path class="st10" d="M277.7,75.6c0,0,2.7,0,3-1.2s-0.2-2.5-0.2-2.5s1.3,1.4,0.9,2.5c-0.4,1.1-0.7,1.4-1.7,1.6
				C279.1,76.2,278.2,75.9,277.7,75.6z"/>
		</g>
		<g>
			<path class="st9" d="M279.4,84.5c0,1.9-1.5,3.4-3.4,3.4s-3.4-1.5-3.4-3.4c0-1.9,1.5-3.4,3.3-3.4
				C277.9,81.1,279.4,82.6,279.4,84.5"/>
			<path class="st10" d="M274.5,86.3c0,0,2.7,0,3-1.2c0.3-1.1-0.2-2.5-0.2-2.5s1.3,1.4,0.9,2.5c-0.4,1.1-0.7,1.4-1.7,1.6
				C276,86.9,275,86.6,274.5,86.3z"/>
		</g>
		<g>
			<path class="st9" d="M280.9,95.6c0,1.9-1.5,3.4-3.4,3.4c-1.9,0-3.4-1.5-3.4-3.4c0-1.9,1.5-3.4,3.3-3.4
				C279.3,92.2,280.8,93.7,280.9,95.6"/>
			<path class="st10" d="M275.9,97.4c0,0,2.7,0,3-1.2c0.3-1.1-0.2-2.5-0.2-2.5s1.3,1.4,0.9,2.5c-0.4,1.1-0.7,1.4-1.7,1.6
				C277.4,98,276.4,97.8,275.9,97.4z"/>
		</g>
		<g>
			<path class="st9" d="M286,105.7c0,1.9-1.5,3.4-3.4,3.4c-1.9,0-3.4-1.5-3.4-3.4c0-1.9,1.5-3.4,3.3-3.4
				C284.5,102.3,286,103.8,286,105.7"/>
			<path class="st10" d="M281.1,107.5c0,0,2.7,0,3-1.2c0.3-1.1-0.2-2.5-0.2-2.5s1.3,1.4,0.9,2.5c-0.4,1.1-0.7,1.4-1.7,1.6
				C282.5,108.1,281.6,107.8,281.1,107.5z"/>
		</g>
		<g>
			<path class="st14" d="M291.8,118.4c0.5,1.8,0,3.5-1.1,3.8c-1.1,0.3-2.4-0.9-2.9-2.7c-0.5-1.8,0-3.5,1.1-3.8
				C290,115.4,291.3,116.6,291.8,118.4"/>
			<path class="st10" d="M289.3,120.9c0,0,1.6-0.5,1.5-1.6s-0.8-2.4-0.8-2.4s1.1,1.2,1.2,2.3s-0.1,1.5-0.6,1.8
				C290.3,121.3,289.7,121.2,289.3,120.9z"/>
		</g>
		<g>
			<path class="st14" d="M378.6,119.1c-0.4,1.8-1.7,3.1-2.9,2.8c-1.1-0.3-1.7-2-1.2-3.8c0.4-1.8,1.7-3.1,2.9-2.8
				C378.5,115.5,379,117.2,378.6,119.1"/>
			<path class="st10" d="M375.2,120c0,0,1.7,0.4,2.1-0.7c0.4-1,0.5-2.5,0.5-2.5s0.4,1.6,0,2.6c-0.5,1-0.8,1.2-1.4,1.3
				C375.9,120.9,375.4,120.5,375.2,120z"/>
		</g>
	</g>
	<path class="st15" d="M330.2,54.2l0.2,5.7c0,0-6.7,0.6-7,1.2C322.1,64,325,68,325,68s2.3-1.7,8-1.7c5.4,0,8.2,1.3,8.2,1.3
		s1.5-2.3,1.5-4c0-1.7-0.6-3.4-0.6-3.4s-2.8-0.4-3.6-0.4c-0.8,0-2.4,0-2.4,0l-0.2-5.8L330.2,54.2z"/>
	<path class="st16" d="M338.5,63c0,0.6-0.5,1.2-1.2,1.2c-0.7,0-1.2-0.5-1.2-1.2c0-0.6,0.5-1.2,1.2-1.2C338,61.9,338.5,62.4,338.5,63
		 M341.3,63.6c0,0.7-0.6,1.2-1.3,1.2c-0.7,0-1.3-0.5-1.3-1.2c0-0.7,0.6-1.2,1.3-1.2C340.7,62.4,341.3,63,341.3,63.6 M335.7,63
		c0,0.6-0.5,1.2-1.2,1.2s-1.2-0.5-1.2-1.2c0-0.6,0.5-1.2,1.2-1.2C335.2,61.8,335.7,62.3,335.7,63 M330.1,63c0,0.7-0.6,1.2-1.3,1.2
		c-0.7,0-1.3-0.5-1.3-1.2c0-0.7,0.6-1.2,1.2-1.2S330.1,62.4,330.1,63 M327,63.2c0,0.7-0.6,1.2-1.3,1.2c-0.7,0-1.3-0.5-1.3-1.2
		c0-0.7,0.6-1.2,1.2-1.2C326.5,62,327,62.6,327,63.2 M332.7,59.8c0,0.6-0.5,1-1.1,1c-0.6,0-1.1-0.5-1.1-1c0-0.6,0.5-1,1.1-1
		C332.2,58.7,332.7,59.2,332.7,59.8 M332.7,55c0,0.6-0.5,1-1.1,1c-0.6,0-1.1-0.5-1.1-1c0-0.6,0.5-1,1.1-1S332.7,54.5,332.7,55
		 M332.7,57.6c0,0.6-0.5,1-1.1,1c-0.6,0-1.1-0.5-1.1-1c0-0.6,0.5-1,1.1-1C332.2,56.6,332.7,57,332.7,57.6"/>
	<path class="st16" d="M334.1,64.1c0,0.6-0.5,1.2-1.2,1.2c-0.7,0-1.2-0.5-1.2-1.2c0-0.6,0.5-1.2,1.2-1.2S334.1,63.4,334.1,64.1"/>
	<path class="st17" d="M334.2,62.7c0,0.7-0.6,1.3-1.3,1.3c-0.7,0-1.3-0.6-1.3-1.3c0-0.7,0.6-1.3,1.3-1.3
		C333.6,61.5,334.2,62,334.2,62.7"/>
	<g>
		<path class="st18" d="M335.4,45.9c0,1.4-1.1,2.5-2.5,2.5c-1.4,0-2.5-1.1-2.5-2.5s1.1-2.5,2.5-2.5
			C334.3,43.3,335.4,44.4,335.4,45.9"/>
		<path class="st10" d="M331.7,47.1c0,0,2,0,2.2-0.9c0.2-0.8-0.1-1.9-0.1-1.9s1,1.1,0.7,1.9c-0.3,0.8-0.5,1-1.2,1.2
			C332.8,47.6,332.1,47.4,331.7,47.1z"/>
	</g>
	<path class="st19" d="M292.8,130.4c0,0,2.2,2.1,2.8,3.9c0.6,1.8,1.5,6.8,1.5,6.8s23.2-6.4,34.6-5.9c11.4,0.5,37.6,6.3,37.6,6.3
		s0.4-2.8,1-5.8s2.7-6.2,2.7-6.2s-25.1-7.8-40.9-7.1c-15.8,0.7-23.7,2.4-27.3,3.5C301.3,127,292.6,130.4,292.8,130.4z"/>
	<path class="st20" d="M327.7,36.5h10c0,0-2.5,1.7-3,3.3c-0.4,1.4-0.3,3.7-0.3,3.7s2.7,0,3.9-1c1.2-1,3.8-2.8,3.8-2.8v12.7
		c0,0-2.5-2.4-3.9-3.1c-1.8-0.9-3.6-1.3-3.6-1.3s0,2.1,0.8,3.3c0.8,1.2,4.2,5.8,4.2,5.8l-14.3,0.5c0,0,3.4-3.6,4.8-6.2
		c0.9-1.7,0.5-3.4,0.5-3.4s-2.4,0-3.6,0.8c-1.2,0.8-3.3,3.4-3.3,3.4l0-12.2c0,0,0.9,2.4,2.9,3.3c2,0.9,3.9,0.4,3.9,0.4
		s0.4-2.4-0.4-3.9C329.3,38.1,327.5,36.4,327.7,36.5z"/>
	<path class="st21" d="M354.4,76.8c0,0-7.1-0.1-13.2-3.7c-6.1-3.6-12.2-7.4-21.2-5.2c-1.8,0.4-8.6,3.4-11.6,13.1
		c-2.1,6.8,0.3,15,2.5,18.7c2.1,3.7,5.6,7.4,5.6,7.4l3.7-2.5c0,0-9.3-7.9-8.2-18.2c1.1-10.3,6.2-12.7,6.2-12.7s6.3-5,14.8-0.3
		c8.5,4.7,16.8,6.8,16.8,6.8s7.8,1.9,8.5,1.8S354.2,76.7,354.4,76.8z"/>
	<path class="st22" d="M328,115.3l-3.8-7.4l11.3-4.4c0,0-2.7,3.6-3.4,6.2c-0.8,3.2-0.5,5.9-0.5,5.9s1-0.8,2.3-2.9
		c1-1.6,2.6-7.3,2.6-7.3l5.1,16.3c0,0-2.6-2.6-4.5-2.9c-2.1-0.4-4.6,0.3-4.6,0.3l-3,0.9L328,115.3z"/>
	<path class="st21" d="M311.4,76.7c0,0,7.1-0.1,13.2-3.7c6.1-3.6,12.2-7.4,21.2-5.2c1.8,0.4,8.6,3.4,11.6,13.1
		c2.1,6.8-0.3,15-2.5,18.7c-2.1,3.7-3.6,5.8-3.6,5.8l-4.4-1.6c0,0,8.1-7.3,7-17.5c-1.1-10.3-6.2-12.7-6.2-12.7s-6.3-5-14.8-0.3
		c-8.5,4.7-16.8,6.8-16.8,6.8s-7.8,1.9-8.5,1.8S311.6,76.6,311.4,76.7z"/>
	<rect x="331.4" y="69.6" class="st23" width="3" height="27.6"/>
	<rect x="331.1" y="69.5" class="st23" width="3.5" height="27.6"/>
	<path class="st23" d="M342.6,63.1c0,4.9-4.3,8.9-9.7,8.9c-5.3,0-9.7-4-9.7-8.9c0-4.9,4.3-8.9,9.6-8.9
		C338.2,54.2,342.5,58.1,342.6,63.1"/>
	<path class="st24" d="M324,97l16.6-0.1c0,0-2,1.2-3.6,4.1c-1.7,3-1.4,4.9-1.4,4.9s2.5,0,4.3-1.3c1.8-1.3,3.8-3.7,3.8-3.7l-0.1,15.3
		c0,0-1.2-2-3.2-3.1c-2-1.2-4.8-1.2-4.8-1.2h-5.7c0,0-2.6,0.2-3.8,0.9c-1.6,1.1-3.7,3.2-3.7,3.2l-0.3-14.5c0,0,0.8,2.5,3.5,3.6
		c2.7,1,4.2,0.9,4.2,0.9s0-3.3-1.4-4.9C327.1,99.4,324,97.1,324,97z"/>
	<path class="st25" d="M332.1,109.1c0,0,2.4,5.7,5.3,8.2c1.6,1.5,6.6,2.6,8.8,2c5-1.3,8.5-5.3,8.5-5.3s-0.2,4.4,3,6.8
		s5.7,3.1,8.3,2.3c2.6-0.7,10-6.2,10-6.2l1.5,1.4c0,0-4.2,4.1-8.7,6.3c-2.3,1.1-9.3,0.5-11.5-1.3c-2.3-1.8-3.6-6.2-3.6-6.2
		s-1.4,2.8-4.4,3.8c-3,1-7.1,0.9-10.9-0.2c-2.6-0.7-5.9-4.3-6.5-5.4c-0.6-1.2-0.5-1.8-0.5-1.8s-1.9,5.4-5.8,6.8
		c-3.7,1.4-7.9,1.4-11.4,0.4c-3.6-1-3.9-3-3.9-3s-0.3,5.7-8.1,7.3c-7.8,1.6-14.1-4.1-14.1-4.1l1.1-1.6c0,0,4.4,5,11.2,4.5
		c6.8-0.5,9-9.1,9-9.1s3,4.5,10.9,4.6c7.9,0.1,10.2-10.3,10.2-10.3L332.1,109.1z"/>
	<g>
		<path class="st26" d="M336.9,112.4c0,0,0.1-2.8,0.7-3.6c0.8-1.2,2-1.2,2.6-1.1c0.7,0.2,1.5,0.9,1.3,2.8c-0.1,1.9-0.7,2.9-0.1,3.6
			c0.6,0.7,0.7,1.2,1.8,1.1c1.1-0.2,1.6-0.5,1.3-1.5c-0.2-1-0.6,0.1-0.8-0.8c-0.2-0.9,1.1-4.6,0.9-6.8c-0.2-2.2-1.1-4-2.8-4.5
			c-1.6-0.4-3-0.4-4.5,0.7c-1.4,1.1-3.3,4.5-3.3,4.5l0,7.4l3-0.2L336.9,112.4z"/>
		<path class="st26" d="M331.3,114.4c0,0-1.2-2.5-2-3c-1.2-0.7-2.3-0.3-2.8,0.1c-0.6,0.5-1,1.4-0.1,3.1c0.9,1.7,1.7,2.4,1.5,3.3
			c-0.2,0.9-0.1,1.4-1.2,1.7c-1.1,0.3-1.7,0.1-1.9-0.9c-0.2-1,0.6-0.2,0.4-1s-2.8-3.8-3.5-5.9c-0.7-2.1-0.6-4.1,0.8-5.2
			c1.3-1,2.6-1.6,4.4-1.2c1.7,0.4,4.8,2.8,4.8,2.8l3,6.8l-2.8,1.1L331.3,114.4z"/>
		<path class="st26" d="M330.7,92.4c0,0-2.9,4.9-2.3,8.7s4.6,11.9,4.6,11.9l0,1.1l2.1-0.2l-0.5-1.1c0,0,1.1-9.8,0.4-12.8
			C334.6,97.7,330.7,92.5,330.7,92.4z M335.4,115c0,0,1.5,1.8,3.2,2.6c1.9,0.9,2.7,0.9,3.5,0.4c0.6-0.4,0.4-2.2-0.3-2.7
			c-0.7-0.5-1.4-0.2-1.5,0.2c-0.2,0.8-0.5,0.8-1.1,0.4c-0.9-0.5-2.9-1.7-2.9-1.7L335.4,115z M333.1,115.4c0,0-0.6,2.2-1.9,3.7
			c-1.4,1.6-2.1,2-3,1.8c-0.7-0.2-1.2-1.9-0.8-2.6c0.4-0.7,1.2-0.8,1.5-0.4c0.5,0.7,0.7,0.5,1.2,0c0.6-0.8,1.9-2.7,1.9-2.7
			L333.1,115.4z"/>
		<path class="st27" d="M338.6,113.6c0.1,0.6-1.8,1.5-4.3,1.9c-2.5,0.4-4.6,0.2-4.7-0.4c-0.1-0.6,1.8-1.5,4.3-1.9
			C336.4,112.8,338.5,113,338.6,113.6"/>
	</g>
	<g>
		<path class="st26" d="M335,113.5c0,0,1-2.6,1.9-3.1c1.2-0.8,2.3-0.4,2.8-0.1c0.6,0.4,1.1,1.3,0.3,3.1s-1.6,2.4-1.3,3.3
			c0.3,0.9,0.2,1.4,1.3,1.6c1.1,0.2,1.7,0.1,1.8-1c0.1-1-0.6-0.1-0.5-1c0.1-0.9,2.6-3.9,3.2-6.1c0.6-2.2,0.4-4.2-1-5.2
			c-1.4-1-2.6-1.4-4.4-0.9c-1.7,0.5-4.7,3.1-4.7,3.1l-2.6,6.9l2.9,0.9L335,113.5z"/>
		<path class="st26" d="M329,113.4c0,0-0.2-2.8-0.8-3.5c-0.9-1.1-2-1.1-2.6-0.9c-0.7,0.2-1.4,0.9-1.2,2.8c0.2,1.9,0.8,2.8,0.3,3.6
			c-0.5,0.8-0.6,1.3-1.7,1.1c-1.1-0.1-1.6-0.4-1.4-1.5s0.6,0.1,0.7-0.8c0.2-0.9-1.3-4.5-1.2-6.8c0.1-2.2,0.9-4.1,2.5-4.6
			c1.6-0.5,3-0.6,4.5,0.5c1.5,1,3.5,4.3,3.5,4.3l0.4,7.4l-3,0L329,113.4z"/>
		<path class="st26" d="M336.2,92.6c0,0-4.5,3.6-5.2,7.4c-0.7,3.8,0.1,12.8,0.1,12.8l-0.3,1l2.1,0.5l-0.1-1.2c0,0,4.4-8.8,4.9-11.9
			C338,98.9,336.2,92.7,336.2,92.6z M332.7,115.4c0,0,0.8,2.2,2.1,3.6c1.5,1.5,2.2,1.8,3.1,1.6c0.7-0.2,1.1-1.9,0.7-2.6
			c-0.4-0.7-1.2-0.7-1.5-0.3c-0.5,0.7-0.7,0.6-1.2,0c-0.7-0.7-2.1-2.6-2.1-2.6L332.7,115.4z M330.4,115c0,0-1.4,1.8-3,2.8
			c-1.9,1.1-2.6,1.1-3.4,0.6c-0.6-0.4-0.5-2.2,0.1-2.7c0.6-0.5,1.4-0.3,1.5,0.1c0.2,0.8,0.5,0.7,1.1,0.4c0.8-0.5,2.8-1.9,2.8-1.9
			L330.4,115z"/>
		<path class="st27" d="M336.3,115.3c-0.1,0.6-2.2,0.8-4.7,0.3c-2.5-0.5-4.4-1.4-4.3-2c0.1-0.6,2.2-0.8,4.7-0.3
			C334.4,113.7,336.4,114.7,336.3,115.3"/>
	</g>
	<path class="st28" d="M292,130.1c0,0,0.5,2,1.7,1c1.2-1.1,17.2-7.4,39.8-7.4c22.6,0,37.5,6.2,38.4,6.6c0.9,0.4,1.3,0.9,2,0
		c0.8-0.9-0.8-2.2-0.8-2.2s-15.7-6.7-40.3-6.6s-40.5,7.1-40.5,7.1S291.2,129.3,292,130.1z"/>
	<path d="M320.5,139.5c0,0,0.7-2,2-2.4c1-0.3,2.6,0.7,2.6,0.7s-1.9-0.2-2.5,0.2c-0.5,0.3-0.7,1.2-0.7,1.2s0.4-0.7,1.9-0.7
		s1.6,0.1,1.6,0.1s-2.5,0.2-3.1,0.9c-0.6,0.7,2.3,1,2.3,1s-4.5,0-5.1-0.2c-0.6-0.3-1-1.2-2-0.9c-1,0.3-2,1.2-2,1.2s1.1-1.9,1.9-1.9
		c0.7,0,1.1,0,1.8,0.2C319.9,139.2,320.5,139.5,320.5,139.5z M303.7,143.1c0,0,0.3-2.1,1.5-2.7c0.9-0.5,2.7,0.2,2.7,0.2
		s-1.9,0.2-2.4,0.6c-0.5,0.4-0.5,1.3-0.5,1.3s0.3-0.8,1.7-1c1.5-0.2,1.6-0.2,1.6-0.2s-2.4,0.6-2.8,1.5c-0.4,0.8,2.5,0.6,2.5,0.6
		s-4.4,0.8-5,0.7c-0.6-0.2-1.2-1-2.1-0.5c-0.9,0.5-1.8,1.5-1.8,1.5s0.8-2.1,1.5-2.2c0.7-0.1,1.1-0.3,1.8-0.1
		C303.1,142.9,303.7,143.1,303.7,143.1z M334.6,138.8c0,0,0.8-2,2.1-2.3c1-0.2,2.5,0.8,2.5,0.8s-1.9-0.3-2.5,0
		c-0.6,0.3-0.8,1.2-0.8,1.2s0.5-0.7,1.9-0.5c1.5,0.2,1.6,0.2,1.6,0.2s-2.5,0-3.1,0.7c-0.6,0.7,2.3,1.2,2.3,1.2s-4.5-0.2-5-0.5
		c-0.6-0.3-0.9-1.2-1.9-1c-1,0.2-2.1,1.1-2.1,1.1s1.2-1.8,2-1.8c0.7,0,1.1,0,1.8,0.3C334,138.4,334.6,138.8,334.6,138.8z
		 M348.7,140.4c0,0,1.1-1.9,2.4-2c1-0.1,2.4,1.1,2.4,1.1s-1.9-0.5-2.5-0.3c-0.6,0.2-0.9,1.1-0.9,1.1s0.5-0.6,2-0.3
		c1.4,0.3,1.6,0.4,1.6,0.4s-2.5-0.2-3.2,0.4s2.1,1.4,2.1,1.4s-4.4-0.8-4.9-1.1c-0.5-0.4-0.7-1.3-1.8-1.2c-1,0.1-2.2,0.8-2.2,0.8
		s1.5-1.7,2.2-1.6c0.7,0.1,1.1,0.2,1.7,0.6C348.1,139.9,348.7,140.4,348.7,140.4z M362.7,142.9c0,0,1-1.4,2.1-1.4
		c0.8,0,1.9,1.1,1.9,1.1s-1.5-0.5-2-0.4c-0.5,0.1-0.8,0.8-0.8,0.8s0.5-0.5,1.6-0.1c1.1,0.4,1.3,0.4,1.3,0.4s-2-0.4-2.6,0.1
		c-0.6,0.4,1.6,1.3,1.6,1.3s-3.5-0.9-3.9-1.3s-0.5-1.1-1.3-1.1c-0.8,0-1.8,0.5-1.8,0.5s1.3-1.2,1.9-1.1c0.6,0.1,0.9,0.2,1.3,0.6
		C362.3,142.5,362.7,142.9,362.7,142.9z"/>
	<path class="st29" d="M337.9,130c0.3,1.7-1.6,3.5-4.4,4c-2.8,0.6-5.3-0.4-5.6-2c-0.3-1.7,1.6-3.5,4.4-4
		C335.1,127.4,337.6,128.3,337.9,130z"/>
	<path class="st30" d="M334,129.7c0.1,0.4-0.3,0.8-1,1c-0.6,0.1-1.2-0.1-1.2-0.5c-0.1-0.4,0.3-0.8,1-1
		C333.4,129,333.9,129.3,334,129.7z"/>
	<path class="st29" d="M337.8,132c-0.5,1.6-3.1,2.3-5.8,1.4c-2.7-0.8-4.5-2.8-3.9-4.5c0.5-1.6,3.1-2.3,5.8-1.4
		S338.3,130.3,337.8,132z"/>
	<path class="st30" d="M334,128.7c-0.1,0.4-0.7,0.6-1.3,0.4c-0.6-0.2-1-0.7-0.8-1.1c0.1-0.4,0.7-0.6,1.3-0.4
		C333.7,127.9,334.1,128.3,334,128.7z"/>
	<rect x="327.8" y="126.2" class="st31" width="10.1" height="5.1"/>
	<path class="st32" d="M333.9,127.3c0,0.2-0.4,0.4-1,0.4c-0.5,0-1-0.2-1-0.4c0-0.2,0.4-0.4,1-0.4C333.4,126.8,333.9,127,333.9,127.3
		z"/>
	<path class="st33" d="M335.1,131.3l1.7,4.9l-3.1,1.7c0,0-1.4,1-2.8,0.3c-1.4-0.8-2.3-3-1.5-3.9
		C330.8,132.4,335.1,131.2,335.1,131.3z"/>
	<path class="st34" d="M334.3,134.8c0,0.8-0.6,1.5-1.4,1.5c-0.8,0-1.4-0.7-1.4-1.5c0-0.8,0.6-1.5,1.4-1.5
		C333.7,133.3,334.3,134,334.3,134.8z"/>
	<path class="st35" d="M333.4,134.2c0,0.3,0,0.5-0.2,0.7c-0.1,0.2-0.3,0.2-0.5,0.1c-0.2-0.1-0.3-0.3-0.4-0.6c0-0.3,0-0.5,0.2-0.7
		c0.1-0.2,0.3-0.2,0.5-0.1C333.3,133.7,333.4,133.9,333.4,134.2z"/>
	<path class="st33" d="M330.7,131.9l-1.7,4.4l3.9,2.1c0,0,1.7,0.8,2.8-0.2c0.9-0.8,1.2-2.7,0.4-3.7
		C335.6,133.6,330.7,131.9,330.7,131.9z"/>
	<path class="st36" d="M334.2,135.4c0,0.5-0.6,1-1.3,1c-0.7,0-1.3-0.4-1.3-1c0-0.5,0.6-1,1.3-1C333.6,134.5,334.2,134.9,334.2,135.4
		L334.2,135.4z"/>
	<path class="st35" d="M333.5,135.3c0,0.3-0.1,0.5-0.3,0.6c-0.2,0.1-0.4,0.1-0.6,0c-0.2-0.1-0.3-0.4-0.3-0.6c0-0.3,0.1-0.5,0.3-0.6
		c0.2-0.1,0.4-0.1,0.6,0C333.4,134.8,333.5,135,333.5,135.3z"/>
	<g>
		<path class="st37" d="M331.5,126.6c0,0.4-0.3,0.7-0.7,0.7c-0.4,0-0.7-0.3-0.7-0.7c0-0.4,0.3-0.7,0.7-0.7
			C331.1,125.9,331.5,126.2,331.5,126.6z"/>
		<path class="st37" d="M335.8,126.9c0,0.4-0.3,0.7-0.7,0.7c-0.4,0-0.7-0.3-0.7-0.7c0-0.4,0.3-0.7,0.7-0.7
			C335.5,126.2,335.8,126.5,335.8,126.9z"/>
		<path class="st37" d="M333.6,128.5c0,0.5-0.4,0.9-0.9,0.9s-0.9-0.4-0.9-0.9c0-0.5,0.4-0.9,0.9-0.9S333.6,128.1,333.6,128.5z"/>
		<path class="st37" d="M335.7,131.3c0,0.4-0.3,0.7-0.7,0.7c-0.4,0-0.7-0.3-0.7-0.7c0-0.4,0.3-0.7,0.7-0.7
			C335.3,130.7,335.7,131,335.7,131.3z"/>
		<path class="st37" d="M331.5,130.8c0,0.4-0.3,0.7-0.7,0.7c-0.4,0-0.7-0.3-0.7-0.7c0-0.4,0.3-0.7,0.7-0.7
			C331.2,130.1,331.5,130.4,331.5,130.8z"/>
	</g>
	<g>
		<path class="st37" d="M331,127.4c0.1,0.4-0.2,0.7-0.5,0.8s-0.8-0.1-0.8-0.5c-0.1-0.4,0.2-0.7,0.5-0.8
			C330.6,126.8,330.9,127,331,127.4z"/>
		<path class="st37" d="M335.3,126.6c0.1,0.4-0.2,0.7-0.5,0.8c-0.4,0.1-0.8-0.1-0.8-0.5c-0.1-0.4,0.2-0.7,0.5-0.8
			C334.8,126,335.2,126.3,335.3,126.6z"/>
		<path class="st37" d="M333.5,128.7c0.1,0.5-0.2,0.9-0.7,1c-0.5,0.1-1-0.2-1.1-0.6c-0.1-0.5,0.2-0.9,0.7-1
			C333,128,333.4,128.3,333.5,128.7z"/>
		<path class="st37" d="M336.2,131c0.1,0.4-0.2,0.7-0.5,0.8c-0.4,0.1-0.8-0.1-0.8-0.5c-0.1-0.4,0.2-0.7,0.5-0.8
			C335.7,130.4,336.1,130.6,336.2,131z"/>
		<path class="st37" d="M332,131.4c0.1,0.4-0.2,0.7-0.5,0.8s-0.8-0.1-0.8-0.5c-0.1-0.4,0.2-0.7,0.5-0.8
			C331.5,130.8,331.9,131.1,332,131.4z"/>
	</g>
	<g>
		<path class="st37" d="M330.8,131.3c0.1,0.3-0.1,0.7-0.4,0.9c-0.4,0.1-0.8,0-0.9-0.4c-0.1-0.3,0.1-0.7,0.4-0.9
			S330.6,130.9,330.8,131.3z"/>
		<path class="st37" d="M334.9,129.9c0.1,0.3-0.1,0.7-0.4,0.9c-0.4,0.1-0.8,0-0.9-0.4c-0.1-0.3,0.1-0.7,0.4-0.9
			C334.3,129.4,334.7,129.6,334.9,129.9z"/>
		<path class="st37" d="M333.4,132.3c0.2,0.4-0.1,0.9-0.5,1.1c-0.5,0.2-1,0-1.1-0.5c-0.2-0.4,0.1-0.9,0.5-1.1
			C332.8,131.6,333.3,131.8,333.4,132.3z"/>
		<path class="st37" d="M336.4,134.2c0.1,0.3-0.1,0.7-0.4,0.9c-0.4,0.1-0.8,0-0.9-0.4c-0.1-0.3,0.1-0.7,0.4-0.9
			C335.8,133.6,336.2,133.8,336.4,134.2z"/>
		<path class="st37" d="M332.3,135.2c0.1,0.3-0.1,0.7-0.4,0.9s-0.8,0-0.9-0.4c-0.1-0.3,0.1-0.7,0.4-0.9
			C331.8,134.6,332.2,134.8,332.3,135.2z"/>
	</g>
	<g>
		<path class="st37" d="M331.9,129.3c-0.1,0.4-0.5,0.6-0.9,0.5c-0.4-0.1-0.7-0.5-0.6-0.9c0.1-0.4,0.5-0.6,0.9-0.5
			C331.8,128.5,332,128.9,331.9,129.3z"/>
		<path class="st37" d="M336.4,130.7c-0.1,0.4-0.5,0.6-0.9,0.5c-0.4-0.1-0.7-0.5-0.6-0.9c0.1-0.4,0.5-0.6,0.9-0.5
			C336.2,129.9,336.5,130.3,336.4,130.7z"/>
		<path class="st37" d="M333.7,131.8c-0.1,0.5-0.6,0.8-1.2,0.7c-0.5-0.1-0.8-0.6-0.7-1.1c0.1-0.5,0.6-0.8,1.2-0.7
			C333.5,130.9,333.8,131.4,333.7,131.8z"/>
		<path class="st37" d="M335.1,135.3c-0.1,0.4-0.5,0.6-0.9,0.5c-0.4-0.1-0.7-0.5-0.6-0.9c0.1-0.4,0.5-0.6,0.9-0.5
			C335,134.5,335.2,134.9,335.1,135.3z"/>
		<path class="st37" d="M330.9,133.7c-0.1,0.4-0.5,0.6-0.9,0.5c-0.4-0.1-0.7-0.5-0.6-0.9c0.1-0.4,0.5-0.6,0.9-0.5
			C330.8,132.9,331,133.3,330.9,133.7z"/>
	</g>
	<path class="st38" d="M337.6,89.2c0,0-2,1.9-4.5,1.9c-2.4,0-3.8-1-4.6-1.5c-0.8-0.5,0.3-2,0.3-2"/>
	<path class="st39" d="M338.6,93.1c0,0-3.7-0.6-5.2-1.2c-1.5-0.5-1.2-1.5-2.9-1.4c-1.8,0.1-3.6,1.4-3.2,3.2c0.4,1.8,1.7,2,2.9,1.7
		c1.3-0.4,0.9-2.6-0.8-2.4c-1.7,0.1-0.3,1.5-0.3,1.5"/>
	<path class="st40" d="M329.1,90.3c0,0,1,1.5,3.7,1.3c2.7-0.3,3.7-1.7,3.8-2.3c0.1-0.6,0-1.8-0.5-2.3c-0.5-0.5-2.3-0.8-2.3-0.8"/>
	<g>
		<path class="st41" d="M346.8,270.3c2.5-2.4,6.5-5.1,8.7-11c2.1-5.5,3.1-15.6,5-20.7c2.5-8.8,7.5-17.3,1.5-16.7
			c-5.6,0.6-7.5,6-9.6,10c-1,1.5-3.3,4.7-3.7,6.5c-0.1-3-1.6-11.9-1.9-20.8c-0.3-8.3-0.1-17-0.3-20.2c-0.3-4.3-0.2-8.3-1.2-11.4
			c-0.5-1.5-2.6-2.9-3.7-2.8c-2.3,0-3.7,2-4,3.9c-0.2,1.5-0.2,0.9-0.3,2.8c-0.2,2.4,0,5.5-0.1,8.2c-0.2,2.9,0.2,6.2,0,8.9
			c-0.3,5.5-0.7,10.5-0.9,11.6c0-2-0.9-11.7-1.2-20.8c-0.1-3.5-0.2-6.9-0.3-10.1c0-2.6,0.1-5.3-0.2-7.3c-0.5-3.4-1.6-5-4.1-5
			c-1.7,0-4.1,1.2-4.8,5c-0.4,2-0.4,4.6-0.4,7.3c0.1,2.5,0.2,5.3,0.2,8c-0.2,10.4-0.3,21.5-0.8,24.7c-0.1-1.1-1.1-6.5-1.4-13.8
			c-0.1-2.9-0.3-6.3-0.4-9.7c-0.2-4-0.2-6.9-0.3-9.6c0-1.6-0.7-6.2-3.7-5.9c-1.6-0.2-3.3,0.9-4,5.3c-0.4,2.4-0.4,6.6-0.4,9.8
			c-0.1,6.1-0.4,11.5-0.1,16.9c0.2,3.4,0.2,6,0.2,7.7c0,0.4-0.9-2.9-1.3-7.3c-0.4-4.4-0.8-10-0.8-8.7c0-2.3-0.1-5.6-0.3-8.4
			c-0.2-2.2-0.1-4.6-2.4-4.4c-2.4,0.2-3.9,1-4.3,5.1c-0.3,2.6-0.4,8.4-0.5,10.5c0.3,5.3-1.2,17.6-1.8,21.1c-0.2,2.5-1.2,5.7-1.6,9.2
			c-0.9,7.4,0,16.2,0.9,20.6c2,7,7.1,10.2,6.8,15c-0.3,4.8,0,13.2,0,17c0,3.8,3.3,4,10.1,2.5c11.1-2.4,17.2,2.4,26.3-1.1
			c-1.2-10.4,1.1-16.7,1-20.5L346.8,270.3z"/>
		<path class="st41" d="M340.3,245.7c2.3-6.3,5.2-8.8,8-10.2"/>
		<path class="st42" d="M315.1,239.1c3.5-1.4,7-2.4,10.5-3.6c4.3-1.2,8.5-2.9,12.9-3.6c2.1-0.4,4.3-0.9,6.5-1 M308.9,272.9
			c0.5-0.3,0.9,0.2,1.4,0.3c0.7,0.2,1.3,0.4,2,0.3c1.3,0,2.7,0,4,0c1.6-0.1,2.9-0.1,4.2-1 M330.6,273.1c0.5,0.4,1,0.7,1.5,0.9
			c0.9,0.4,1.8,0.4,7.4,0c3.4,0.2,6.5-2.8,7.4-3.6"/>
	</g>
</g>
</svg>
