<?xml version="1.0" encoding="utf-8"?>
<!-- Generator: Adobe Illustrator 20.0.0, SVG Export Plug-In . SVG Version: 6.00 Build 0)  -->
<svg version="1.1" id="Vrstva_1" xmlns="http://www.w3.org/2000/svg" xmlns:xlink="http://www.w3.org/1999/xlink" x="0px" y="0px"
	 viewBox="0 0 640 480" style="enable-background:new 0 0 640 480;" xml:space="preserve">
<style type="text/css">
	.st0{fill:#0061FF;}
	.st1{fill:none;}
	.st2{fill:#FFD600;}
</style>
<g id="Vrstva_1_1_">
	<g id="Layer_1">
		<title>africa</title>
		<rect y="0" class="st0" width="639.4" height="480"/>
	</g>
</g>
<g id="Vrstva_4">
	<g>
		<path class="st1" d="M428.2,281.1c-0.2-0.2-0.5-0.3-0.8-0.4c0.2,0.1,0.3,0.1,0.5,0.3c-1.3,0.3-2.6,1.8-3.1,3.3
			c0.2-0.1,0.3-0.2,0.5-0.2C425.7,282.8,426.9,281.5,428.2,281.1z"/>
		<path class="st1" d="M390.5,253.6c0.5,1,1.2,3.6,2.3,4.6c0.4,0.3,0.4,0.7,0.4,1.2c0-0.5,0-1-0.4-1.3c-1-0.9-1.8-3.3-2.3-4.6
			c-0.7-1.8-3.4-7.9-3.5-10.7C387,245.5,389.9,251.8,390.5,253.6z"/>
		<path class="st1" d="M474.4,299.8c0.8-0.7,1.8-1.6,2.6-2.2c-0.1,0-0.2,0.1-0.3,0.1C475.8,298.4,475,299.1,474.4,299.8
			C474.3,299.7,474.3,299.8,474.4,299.8z"/>
		<path class="st1" d="M387,241.4l0.4,0.1l0.1-0.1l-0.5-0.1c-0.6,0.7-0.7,0.6-1.6,0.7v0.1C386.3,242,386.4,242.1,387,241.4z"/>
		<path class="st1" d="M428.7,284.9c-0.4-0.5-0.9-0.8-1.4-1c0.4,0.2,0.7,0.4,1,0.8c0.4,0.6,0.8,0.8,1.3,0.9
			C429.3,285.6,429,285.4,428.7,284.9z"/>
		<path class="st1" d="M415.7,283.8c-0.2,0-0.3,0.1-0.5,0.2c-0.1,0.3-0.3,0.5-0.3,0.8c0.2,0.1,0.4,0.2,0.6,0.2
			c-0.1,0-0.2-0.1-0.3-0.1C415.4,284.5,415.5,284.1,415.7,283.8z"/>
		<path class="st1" d="M393.2,262.3C393.2,262.3,393.3,262.3,393.2,262.3c-0.1-0.4-0.2-0.7-0.2-1.1
			C393.1,261.6,393.1,261.9,393.2,262.3z"/>
		<path class="st1" d="M431.6,286.3h0.1c-0.2-0.1-0.3-0.1-0.5-0.2C431.4,286.2,431.5,286.2,431.6,286.3z"/>
		<path class="st1" d="M443.7,289c-0.7-0.7-1.2-2.3-2.1-2.6c-0.2-0.1-0.4-0.2-0.6-0.2c0.1,0,0.2,0.1,0.3,0.1
			c0.8,0.3,1.2,1.9,2.1,2.6c-1.3-0.2-2.8-1-3.4,0.4c0.1,0.1,0.2,0.2,0.3,0.3C440.8,287.9,442.2,288.8,443.7,289z"/>
		<path class="st1" d="M391.9,258.4c-0.1,0.1-0.3,0.2-0.4,0.2c-1.1,1-1.3,2.7-1,4.2C390.2,261.1,390.5,259.3,391.9,258.4z"/>
		<path class="st1" d="M392.2,262.2v-0.1l0,0C392.2,262.1,392.2,262.1,392.2,262.2z"/>
		<path class="st1" d="M439.3,284.5c-0.1,0-0.2,0.1-0.4,0.1c-0.2,0.8,0.2,1.1,0.8,1.2C439.3,285.7,439,285.4,439.3,284.5z"/>
		<path class="st1" d="M306.7,158v-0.1c-0.5,0-1-0.4-1.6-0.4l-0.1,0.1C305.7,157.5,306.2,158,306.7,158z"/>
		<path class="st1" d="M460.8,295.8l-0.1-0.1c-0.1-0.1-0.2-0.1-0.3-0.1C460.4,295.7,460.6,295.7,460.8,295.8z"/>
		<path class="st1" d="M279.4,158.8c2.3-0.8,4.8-1,7-1.9c2.2-0.7,4.3-1.4,6.4-2.3c3.4-1.2,4.2-1,7.7,0.2c0,0,0.1,0,0.1-0.1
			c-3.4-1.3-4.3-1.6-7.8-0.2c-2.2,0.8-4.3,1.6-6.4,2.3c-2.4,0.8-4.8,1.2-7,1.9c-0.9,0.3-4,0.5-3.9,1.6
			C275.5,159.1,278.6,159,279.4,158.8z"/>
		<path class="st1" d="M468.4,303.7c2.4,2.3,6.8-0.8,6.7-2.8c0,2-4.4,4.9-6.7,2.7c-1.6-1.4-7.1,2-7.2,0.4
			C461.1,305.6,466.8,302.1,468.4,303.7z"/>
		<path class="st1" d="M284.5,159.9C284.5,159.9,284.6,159.9,284.5,159.9c0-0.4,0-0.4-0.2-0.7c0,0,0,0-0.1,0
			C284.4,159.6,284.4,159.7,284.5,159.9z"/>
		<path class="st1" d="M277.9,160.8C277.9,160.8,277.9,160.7,277.9,160.8c-0.1-0.2-0.2-0.4-0.3-0.6c0,0,0,0-0.1,0
			C277.7,160.4,277.8,160.6,277.9,160.8z"/>
		<path class="st1" d="M430.8,289.4c-1.4,1.4-3.8,5.3-4.1,7.1c0.1,0,0.3,0,0.4,0c0.4-1.8,2.4-5.2,3.8-6.7
			C430.8,289.7,430.8,289.5,430.8,289.4z"/>
		<path class="st1" d="M386.7,243.9c-0.2-0.1-0.3-0.2-0.4-0.3c-1.4-0.7-3.7-1.6-4.3,0.4c-0.3,1.2-0.5,2-0.5,2.5
			c0-0.5,0.1-1.2,0.5-2.4C382.5,241.9,385.2,243.4,386.7,243.9z"/>
		<path class="st1" d="M295.1,167.7c-0.6,0.5-1.1,1-1.7,1.4C294,168.7,294.5,168.2,295.1,167.7z"/>
		<path class="st1" d="M301.2,158.7c1.9-0.2,3.2-2.5,5-2.4l0.1-0.1c-1.9-0.2-3.2,2.2-5.2,2.4c-2.5,0.5-3.5,0.6-5.9-0.4v0.1
			C297.7,159.1,298.7,159,301.2,158.7z"/>
		<path class="st1" d="M438.5,288.6c-2.1-0.8-4.9,0.3-6.1,2.2l0.3,0.3C433.7,289.1,436.4,287.9,438.5,288.6z"/>
		<path class="st1" d="M458.7,296.6c-0.3-0.1-0.7-0.2-1-0.3C458,296.5,458.4,296.6,458.7,296.6z"/>
		<path class="st1" d="M387,240.2C387,240.2,387.1,240.2,387,240.2c0-0.2-0.7-0.6-0.8-0.7c-0.6,1.2-1,2-0.9,2.6
			c0-0.6,0.3-1.3,0.9-2.5C386.4,239.5,386.8,240,387,240.2z"/>
		<path class="st1" d="M452.1,291.9L452.1,291.9c0.8-0.8,1.1-1.1,0.8-2.1l-0.1,0.1C453.1,290.7,452.8,291,452.1,291.9z"/>
		<path class="st1" d="M452.4,290.3C452.4,290.3,452.4,290.2,452.4,290.3c-0.2-0.9-0.8-1.2-1.4-1.2
			C451.5,289.2,452,289.5,452.4,290.3z"/>
		<path class="st1" d="M451.3,291.4c0.3,0,0.6,0,0.9-0.2c0,0,0,0,0.1-0.1C452,291.3,451.6,291.4,451.3,291.4z"/>
		<path class="st1" d="M453.7,293.1c0.5,0.4,0.5,1.4,1.3,1.6C454.4,294.3,454.5,293.1,453.7,293.1z"/>
		<path class="st1" d="M444.1,289.3c0.6,0.3,1.4,0.5,2.1,0.5C445.5,289.7,444.8,289.6,444.1,289.3
			C444.2,289.2,444.1,289.2,444.1,289.3z"/>
		<path class="st1" d="M391.3,256.8c-0.1,0.6-0.7,1.8-0.9,2.3c0,0,0,0,0.1-0.1C390.7,258.5,391.2,257.4,391.3,256.8z"/>
		<path class="st1" d="M456.2,289.3c0.1,0,0.2,0.1,0.2,0.1c-0.2-0.1-0.4-0.1-0.6-0.2c-2.6-0.6-5.9-0.6-8.6-1.2
			c-0.5-0.1-2.4-0.6-3.8-1.2c1.6,0.6,3.6,1.1,4.2,1.3C450.2,288.6,453.5,288.7,456.2,289.3z"/>
		<path class="st1" d="M433,273.1c-0.9-0.5-2,0.5-2.8,0.4c0,0,0.1,0,0.1,0.1C431.3,273.9,432.2,272.9,433,273.1z"/>
		<path class="st1" d="M444.2,287.8c-0.2,0.2-0.2,0.5-0.3,0.8C444,288.5,444.1,288,444.2,287.8z"/>
		<path class="st1" d="M455.1,295.9c0.5-0.5,0.3-0.6,0.6-1.2c-0.1,0-0.3,0-0.4,0c-0.2,0.5-0.1,0.6-0.5,1c0.6,0.2,0.5,0.2,0.7,0.7
			c0.1-0.1,0.1-0.1,0.2-0.1C455.7,296.2,455.6,296.2,455.1,295.9z"/>
		<path class="st1" d="M425.4,273.4c0-0.2,0.1-0.3,0.1-0.5c-0.9,0.5-1,1.6-1.7,2.3c-0.1,0.2-0.1,0.4-0.2,0.5
			C424.6,275.3,424.6,274.2,425.4,273.4z"/>
		<path class="st1" d="M426.2,272.2c0.5,0,1,0,1.6,0.2c-0.6-0.2-1.2-0.3-1.9-0.3c1.2,1,0.6,1.8-0.3,2.5c-0.1,0.2-0.2,0.4-0.4,0.6
			C426.4,274.4,427.7,273.5,426.2,272.2z"/>
		<path class="st1" d="M448.8,289.5c-0.4,0-0.8-0.2-1.2-0.2C448.1,289.4,448.4,289.5,448.8,289.5z"/>
		<path class="st1" d="M436.5,294c0,0.5,0,0.9-0.1,1.3c0.2-0.2,0.3-0.4,0.4-0.6c0-0.5,0-1,0.1-1.6
			C436.8,293.6,436.6,293.8,436.5,294z"/>
		<path class="st1" d="M388.2,253.5c-0.1,0.4-0.1,0.7-0.2,1.1l0,0C388.1,254.2,388.1,253.9,388.2,253.5L388.2,253.5z"/>
		<path class="st1" d="M427.7,305c-0.1-2.3,0.8-4.7,1.4-6.7c0.3-1.6,1.9-3.8,1.7-5.4c-0.1,0.1-0.2,0.2-0.3,0.3c0,1.4-1.2,3.5-1.7,5
			c-0.5,2.2-1.6,4.6-1.4,6.7c0.2,2.5,1.1,7.6,2.8,8C428.7,311.9,427.9,307.3,427.7,305z"/>
		<path class="st1" d="M432.2,289.9c0.1-0.1,0.2-0.3,0.3-0.4c-0.4,0.4-0.8,0.5-1.2,0.7c0,0.1,0,0.2,0.1,0.3
			C431.6,290.2,431.9,290.1,432.2,289.9z"/>
		<path class="st1" d="M389.4,254.9c0.1,0.7-0.1,1.7-0.1,2.5c0,0,0,0,0-0.1C389.4,256.5,389.6,255.7,389.4,254.9z"/>
		<path class="st1" d="M443.7,301.4c-0.2-0.7,1.6-2.6,1.8-2.8c1.3-0.9,0.9-3.1,0.2-4.4c0.3,0,0.3,0.1,0.7,0.1
			c-0.5-2.4-2.3-1.8-3.6-3.1c-0.3-0.4-1-0.7-1.7-0.8c0.5,0.2,1,0.4,1.3,0.7c1.2,1.4,3.1,0.8,3.6,3.1c-0.3-0.1-0.3-0.1-0.7-0.1
			c0.7,1.3,1,3.4-0.2,4.4c-0.2,0.2-2.1,2.1-1.8,2.8c0.1,0.2,0.2,0.3,0.5,0.3C443.7,301.6,443.7,301.5,443.7,301.4z"/>
		<path class="st1" d="M447.9,299.9c1.2,0.7,1.3,4.4,1.6,5.6c0.1-0.1,0.2-0.2,0.3-0.3C449.6,303.6,449.4,300.2,447.9,299.9z"/>
		<path class="st1" d="M411.1,284.6c1.6-1.6,3.2-3.2,4.9-4.8c1.8-0.7,3.7-1.6,5.5-2.4c1.4-0.6,0.7-2.4,2.3-3c0-0.1,0.1-0.2,0.1-0.2
			c-2.2,0.5-1.2,2.4-2.8,3.1c-1.8,0.7-3.7,1.6-5.5,2.4c-1.7,1.7-3.3,3.2-5.4,4.8c0.4,0.2,0.8,0.3,1.2,0.3
			C411.3,284.7,411.2,284.7,411.1,284.6z"/>
		<path class="st1" d="M443.5,287.5c-0.3,0-0.4,0.2-0.5,0.3C443.1,287.6,443.3,287.5,443.5,287.5z"/>
		<path class="st1" d="M388.4,254.3c0,0.1-0.1,0.1-0.2,0.2C388.3,254.4,388.3,254.4,388.4,254.3z"/>
		<path class="st1" d="M384.4,248c-0.1,0-0.1,0-0.2,0c-0.8,0.2-1.1,0.7-1,1.3C383.2,248.6,383.5,248.2,384.4,248z"/>
		<path class="st1" d="M305.4,162.5l0.1-0.1c-0.5,0.1-1,0.1-1.6,0.1v0.1C304.3,162.6,305,162.6,305.4,162.5z"/>
		<path class="st1" d="M291.6,160.6L291.6,160.6c-1.2,1.9-4.3,0.2-6.2,0.7l0.1,0.1C287.4,160.9,290.5,162.5,291.6,160.6z"/>
		<path class="st1" d="M313,194.2C313,194.3,313,194.3,313,194.2C313,194.3,313,194.3,313,194.2z"/>
		<path class="st1" d="M309.8,195.4c0-0.1,0-0.2,0-0.2c-1.3,0-2.4-0.7-3.6-0.6l0.1,0.1C307.5,194.5,308.6,195.3,309.8,195.4z"/>
		<path class="st1" d="M464.1,306.8c-2.8,2.1-4.9,3.4-8,4.7C459.3,310.4,461.4,308.9,464.1,306.8z"/>
		<path class="st1" d="M315.9,186.7c0,0.1-0.1,0.3-0.1,0.4C315.8,186.9,315.9,186.8,315.9,186.7L315.9,186.7z"/>
		<path class="st1" d="M322.1,195.4c0-0.1,0-0.2-0.1-0.4l0,0C322.1,195.2,322.1,195.3,322.1,195.4z"/>
		<path class="st1" d="M314.4,192.2c0.7-1,1.7-0.2,2.6-0.5c0.8-0.2,1.1-0.5,1-0.8c0,0.3-0.3,0.5-1,0.7c-0.9,0.2-1.9-0.6-2.6,0.5
			c-0.7,1.2-0.2,1.6-1.7,1.9l0.1,0.1C314.1,193.8,313.8,193.3,314.4,192.2z"/>
		<path class="st1" d="M332,184.3c-0.9,0.8-1.7,2.3-2.4,3.1c-1.4,1.4-2.2,1.8-3.9,2.1c-1.8,0.2-4.7,0.1-5.5-2.2
			c-0.2-0.6-3.2,0.1-4-1.4c-0.2-0.5-3.1-1.7-3.4-1.3c-0.1,0.1-0.1,0.2-0.1,0.3c0-0.1,0-0.1,0.1-0.2c0.3-0.3,3.2,0.8,3.4,1.3
			c0.8,1.6,3.8,0.8,4,1.4c0.8,2.3,3.7,2.4,5.5,2.2c1.8-0.2,2.5-0.5,3.9-2.1c0.7-0.8,1.4-2.3,2.4-3.1c2.6-2.2,6.8-1.3,9.6-0.1
			l0.1-0.1C338.9,183,334.5,182.1,332,184.3z"/>
		<path class="st1" d="M335.9,184.5C335.8,184.5,335.8,184.5,335.9,184.5c0,0,0.1,0,0.2,0c0.4-0.1,0.9,0,1.3,0c0.2,0,0.4,0,0.6,0.1
			c-2.6-0.9-5,0.9-7.4,2.5c0,0.1-0.1,0.1-0.1,0.2C332.3,186.2,334,184.8,335.9,184.5z"/>
		<path class="st1" d="M337.8,185.2c0.2-0.1,0.4-0.1,0.7-0.2c-0.8,0-1.7,0-2.4-0.4c-0.1,0-0.2,0-0.2,0
			C336.3,185,337,185.2,337.8,185.2z"/>
		<path class="st1" d="M337.4,186.1c0.1-0.1,0.1-0.1,0.2-0.2c-0.9,0.4-1.1,0.3-2.1,0.1c-0.1,0-0.2,0-0.2,0.1
			C336.4,186.3,336.6,186.4,337.4,186.1z"/>
		<path class="st1" d="M331.1,189.4l0.1-0.1c-0.3,0.1-0.5,0.1-0.8,0.1l-0.1,0.1C330.6,189.4,330.8,189.4,331.1,189.4z"/>
		<path class="st1" d="M313.3,194.6C313.3,194.6,313.3,194.5,313.3,194.6c-1.1,0.8-2.3-0.1-3.6-0.2c0,0.1,0,0.2,0,0.2
			C311.1,194.6,312.3,195.5,313.3,194.6z"/>
		<path class="st1" d="M449.1,307.8c0.1,0.1,0.1,0.2,0.1,0.3C449.3,308,449.3,307.9,449.1,307.8z"/>
		<path class="st1" d="M298.9,166L298.9,166c-0.4-1-1.2-1.8-2.2-2c0,0-0.1,0-0.1,0.1C297.5,164.3,298.4,165,298.9,166z"/>
		<path class="st1" d="M287.5,163.4c-1,0.2-2,0.9-2.7,1.4c0,0,0,0,0.1,0.1C285.6,164.3,286.7,163.7,287.5,163.4
			C287.6,163.5,287.5,163.4,287.5,163.4z"/>
		<path class="st1" d="M448.9,307.3c-1.4,1.7-2.4,3.2-3.4,5.3l0,0C446.6,310.6,447.7,309,448.9,307.3L448.9,307.3z"/>
		<path class="st1" d="M450.1,308.8c-0.1-0.2-0.3-0.4-0.4-0.4C449.8,308.4,449.9,308.6,450.1,308.8L450.1,308.8z"/>
		<path class="st1" d="M294.2,166.6c0.7-0.4,0.9-0.8,0.9-1.1c0,0.3-0.3,0.6-0.9,1c-0.9,0.7-1.2,1.7-1.7,2.1
			c-0.5,0.3-1.6,0.3-2.1,0.7c0,0,0.1,0,0.1,0.1c0.5-0.3,1.4-0.3,2-0.6C293.1,168.2,293.2,167.3,294.2,166.6z"/>
		<path class="st1" d="M449.5,308.2c0.1,0,0.1,0.1,0.2,0.1C449.6,308.3,449.6,308.2,449.5,308.2z"/>
		<path class="st1" d="M285.3,165.8c0,1-1.9,1.2-2.8,1.4l0.1,0.1C283.7,167.1,285.5,166.9,285.3,165.8z"/>
		<path class="st1" d="M447.7,314.1c0.2-0.2,0.3-0.6,0.6-0.8C448,313.5,447.9,313.8,447.7,314.1z"/>
		<path class="st1" d="M439.6,278c0-0.1,0-0.1,0.1-0.2c-1,0.2-1.9,0.2-2.5,0.1C437.8,278.1,438.6,278.1,439.6,278z"/>
		<path class="st2" d="M463.5,304.8c0,1.8-5.6,3.2-7.2,3.1c-2.4,0-2.8,0-4.7,1.8c-1.3,1.2-2.2,2.4-3.9,1.6c0.2-1.4,1.3-2.1,2.4-2.4
			c-0.1-0.2-0.3-0.4-0.4-0.4c-0.1-0.1-0.1-0.1-0.2-0.1c-0.1,0-0.1-0.1-0.1-0.1c0-0.1-0.1-0.1-0.1-0.3c-0.1-0.1-0.1-0.3-0.2-0.5
			c-1.3,1.8-2.4,3.3-3.4,5.3c0.5,0.1,0.9,0.2,1.3,0.3s0.9,0.2,1.3,0.3c-0.2,0.2-0.3,0.6-0.6,0.8c0.9,0.1,1.8,0,2.5-0.1
			c1-0.2,2-0.6,2.9-1c0.9-0.5,1.9-1,3.1-1.4l0,0c3.1-1.2,5.3-2.6,8-4.7C464.2,305.8,464.4,305.3,463.5,304.8z"/>
		<path class="st2" d="M305.7,160.5c0.3-0.9,0.7-1.8,1-2.5c-0.5,0-1-0.5-1.7-0.5l0.1-0.1h-0.1c0.4-0.3,0.7-0.8,1.1-1.2
			c-1.9-0.1-3.1,2.2-5,2.4c-2.6,0.3-3.6,0.5-6-0.5v-0.1l0,0c0.6-1.9,3.5-2.6,5.2-3.3c-3.3-1.2-4.2-1.4-7.7-0.2
			c-2.2,0.8-4.3,1.6-6.4,2.3c-2.3,0.8-4.8,1-7,1.9c-0.9,0.2-3.9,0.3-3.9,1.4c0,0.3,0.4,0.8,1.3,1.3c0.3-0.1,0.8-0.5,1-0.7
			c-0.1-0.2-0.2-0.4-0.3-0.6c0,0,0,0,0.1,0c0,0,0-0.1-0.1-0.1c1.6-0.6,5.4-0.6,6.9-0.1c-0.1-0.2-0.1-0.3-0.3-0.7c0,0,0,0,0.1,0
			c0,0,0-0.1-0.1-0.1c2.6-0.3,5,0,7.4,1.4c0,0,0,0.1-0.1,0.1c0,0,0,0,0.1,0c-1.1,1.9-4.2,0.3-6.1,0.8c0.8,0.5,1.6,1.1,2,2
			c0,0,0,0-0.1,0c0,0,0,0.1,0.1,0.1c-0.9,0.2-2,0.8-2.7,1.3c0.3,0.3,0.4,0.6,0.4,0.9c0.2,1-1.6,1.3-2.7,1.4c1.7,1.1,3.5,0.3,5.2,1.1
			c1.2,0.5,2.9-2.6,3.9-3.3c1.3-0.9,3.6-0.6,3.4,0.4c0,0.3-0.2,0.7-0.9,1.1c-1,0.7-1.2,1.6-1.7,2.1c-0.4,0.3-1.4,0.4-2,0.6
			c0.9,0.7,1.9,0.4,2.8-0.2c0.5-0.4,1.1-0.9,1.7-1.4c1.1-1,2.4-2,3.7-1.7c-0.4-1-1.3-1.7-2.3-1.9l0.1-0.1h-0.1
			c2.6-2.7,7.6,1.1,8.9-1.6c-0.4,0.1-1,0.1-1.4,0.1v-0.1l0,0C304,160.6,305.2,161.5,305.7,160.5z"/>
		<path class="st2" d="M384.4,247.8c-0.1,0-0.1,0-0.2,0.1c0.1,0,0.1,0,0.2,0c-1,0.2-1.3,0.7-1.2,1.3c0.2,1.6,2.3,3.7,2.8,4.9
			c0.5,0.1,0.8,0.3,1.2,0.6c0.2-1.7,0-0.8,1-1.4v0.1l0,0c-0.1,0.4-0.1,0.7-0.2,1.1c0.1,0,0.1-0.1,0.2-0.1c0.1-0.1,0.1-0.1,0.2-0.2
			c0-0.1,0.1-0.2,0.1-0.3c0.5,0.2,0.7,0.5,0.8,1c0.2,0.7,0,1.6-0.1,2.4c0.4-0.7,1-1.4,1.9-1c0.1,0.1,0.2,0.3,0.2,0.5
			c0,0.6-0.6,1.6-0.8,2.2c0.6-0.5,1.1-0.5,1.4-0.8c-0.1,0.1-0.3,0.2-0.4,0.3c0.1-0.1,0.3-0.1,0.4-0.2c-1.4,0.9-1.8,2.8-1.4,4.4
			c0,0.1,0.1,0.3,0.1,0.4c0.5,1.6,1.6-0.1,1.6-1V262l0,0v-0.1c0.3,0.1,0.7,0.1,1,0.3c-0.1-0.4-0.2-0.7-0.2-1.1
			c0-0.6,0.1-1.2,0.2-1.8c0-0.5-0.1-0.9-0.4-1.2c-1-0.9-1.8-3.4-2.3-4.6c-0.7-1.8-3.5-8-3.5-10.8c0-0.6,0.1-1,0.3-1.2l-0.4-0.1
			c-0.6,0.7-0.7,0.6-1.6,0.7V242l0,0c0.2-0.9,0.8-1.6,1.6-1.9c-0.2-0.2-0.6-0.6-0.8-0.6c-0.6,1.1-0.9,1.9-0.9,2.5
			c0.1,0.6,0.5,1.1,1.6,1.8c-0.1-0.1-0.3-0.1-0.4-0.2c0.1,0.1,0.3,0.2,0.4,0.3c-1.4-0.6-4.1-2.1-4.8,0.2c-0.3,1.1-0.5,1.9-0.5,2.4
			C381.5,247.6,382.4,247.4,384.4,247.8z"/>
		<path class="st2" d="M421.4,277.5c-1.8,0.8-3.7,1.7-5.5,2.4c-1.7,1.6-3.3,3.2-4.9,4.8c0.1,0.1,0.3,0.1,0.4,0.2
			c1.3,0.1,2.6-0.7,3.9-1.1c0,0.1-0.1,0.2-0.1,0.3c0.2-0.1,0.3-0.1,0.5-0.2c-0.1,0.3-0.2,0.7-0.5,1c0.1,0,0.2,0.1,0.3,0.1
			c3.8,1,8.8-5.5,11.8-4.2c0.3,0.1,0.6,0.2,0.8,0.4c-1.2,0.4-2.4,1.6-3,3c0.8-0.3,1.6-0.4,2.2-0.1c0.5,0.1,1,0.4,1.4,1
			c0.3,0.4,0.6,0.6,0.9,0.8c0.5,0.1,0.9,0.1,1.6,0.4c0.2,0,0.3,0.1,0.5,0.2c1,0,6.4-1.8,7.2-2c0,0.1,0,0.2,0,0.2
			c0.2,0,0.3-0.1,0.4-0.1c-0.3,0.8,0,1.1,0.4,1.3c0.4,0.1,0.8,0.2,1.2,0.3c0.2,0.1,0.4,0.1,0.6,0.2c0.8,0.3,1.3,1.9,2.1,2.6
			c-1.4-0.2-2.9-1-3.4,0.6c-0.1-0.1-0.2-0.2-0.3-0.3c0,0.1,0,0.1-0.1,0.2c-0.4-0.4-0.8-0.7-1.3-0.9c-2.1-0.6-4.8,0.5-5.8,2.4
			l-0.3-0.3l-0.1,0.1l-0.3-0.3c0.1-0.2,0.2-0.3,0.3-0.5c-0.3,0.1-0.6,0.3-0.8,0.6c0-0.1,0-0.2-0.1-0.3c-0.1,0.1-0.2,0.1-0.3,0.2
			c0-0.2,0-0.4-0.1-0.6c-1.4,1.6-3.4,4.9-3.8,6.7c1.4-0.2,2.2-2.9,3.4-3.7c0,0.1,0,0.2,0,0.4c0.1-0.1,0.2-0.2,0.3-0.3
			c0.2,1.6-1.3,3.8-1.7,5.4c-0.6,2.1-1.6,4.4-1.4,6.7c0.2,2.3,0.9,6.9,2.5,7.8c0.7,0.2,1.6-0.5,2.6-2.6c1.8-3.7,1.2-6.1,0.5-9.8
			c-0.8-4.1,2.2-4.8,3.3-7.2c0,0.3-0.1,0.6-0.1,0.8c0.1-0.2,0.3-0.5,0.4-0.7c-0.1,0.5-0.1,1-0.1,1.6c0.6-1.1,0.5-2.6,2.5-2.8
			c-1.3-1.8,0.3-2.1,1.8-1.6c0.6,0.2,1.3,0.5,1.7,0.8c1.3,1.3,3.1,0.7,3.6,3.1c-0.3,0-0.3-0.1-0.7-0.1c0.7,1.3,1,3.4-0.2,4.4
			c-0.2,0.1-2.1,2.1-1.8,2.8c0,0.1,0.1,0.2,0.1,0.2c1,0,3.1-1.9,3.7-1.9c0.2,0,0.3,0.1,0.5,0.1c1.4,0.3,1.7,3.6,1.9,5.3
			c0.8-0.9,1.8-1.9,2.6-2.8c0.6-0.6,0-2.5,0.3-3.4c0.6-2.1,2.8-4.3-0.2-5.7c0.6-0.3,1-0.3,1.2-0.1c0.8,0,0.7,1.1,1.3,1.6
			c0.1,0,0.2,0,0.4,0v0.1c0.1,0,0.2,0,0.4,0c-0.2,0.6-0.1,0.7-0.6,1.2c0.4,0.3,0.4,0.3,0.6,0.5c0.5-0.3,1.2-0.2,1.9,0
			c0.3,0.1,0.7,0.2,1,0.3c0.3,0,0.5,0.1,0.8,0c0.1,0-0.3-1.4,0.8-1c0.1,0,0.2,0,0.3,0.1c-1.8-1.8-1.8-5.3-4.2-6.4
			c-0.1,0-0.2-0.1-0.2-0.1c-2.6-0.6-6-0.7-8.6-1.2c-0.5-0.1-2.6-0.7-4.2-1.3c-1.4-0.5-2.6-1.1-2.4-1.4c0.5-0.7,0-1.3-0.5-1.9
			c-0.5-0.7,0.6-1.2,0.3-1.9c-0.6-1.9-2.1-0.9-1.2-3.5c-1,0.1-1.9,0.1-2.4-0.1c-1.8-0.3-2.1-1.9-3.6-4.2c-0.2-0.3-0.4-0.4-0.6-0.5
			c-0.8-0.1-1.8,0.8-2.7,0.4c0,0-0.1,0-0.1-0.1c-0.1,0-0.2,0-0.2-0.1c-0.8-0.3-1.6-0.7-2.3-1c-0.5-0.1-1-0.2-1.6-0.2
			c1.6,1.3,0.2,2.2-1,3c0.2-0.2,0.3-0.4,0.4-0.6c-0.2,0.2-0.5,0.3-0.7,0.5c0.3-0.5,0.5-1,0.6-1.7c-0.7,0.8-0.8,2-1.9,2.4
			c0.1-0.2,0.2-0.4,0.2-0.5c-0.2,0.2-0.3,0.3-0.6,0.4c0.2-0.3,0.3-0.7,0.5-1.1C422.2,275,422.9,276.8,421.4,277.5z M447.7,289.3
			c0.4,0,0.7,0.2,1.2,0.2c0.2,0,0.5,0,0.8-0.1c0.4-0.2,0.8-0.3,1.2-0.2c0.6,0,1.1,0.3,1.4,1.1c0.1-0.2,0.3-0.3,0.4-0.5v0.1l0.1-0.1
			c0.3,0.9,0,1.3-0.7,2.2h-0.1l0,0l-0.3-0.2c0.2-0.2,0.4-0.3,0.5-0.5c-0.3,0.1-0.6,0.2-0.9,0.2c-1.2,0-2.7-0.8-3.7-1.3
			c-0.5-0.1-0.8-0.1-1.2-0.2C446.9,289.3,447.3,289.3,447.7,289.3z M446.1,289.2c0,0.2,0,0.3,0,0.6c-0.6,0-1.4-0.1-2.1-0.5
			c0,0,0.1,0,0.1-0.1h-0.1c0.2-0.2,0.6-0.5,0.8-0.7C445.4,288.8,445.7,288.9,446.1,289.2z M443.5,287.5c0.2,0,0.4,0.1,0.7,0.3
			c-0.1,0.2-0.2,0.6-0.3,0.8c-0.2-0.2-0.6-0.5-0.8-0.8C443,287.6,443.3,287.5,443.5,287.5z"/>
		<path class="st2" d="M332,184.4c-0.9,0.8-1.7,2.3-2.4,3.1c-1.4,1.6-2.2,1.8-3.9,2.1c-1.8,0.3-4.7,0.1-5.5-2.2
			c-0.2-0.6-3.2,0.1-4-1.4c-0.2-0.5-3.1-1.7-3.4-1.3c-0.1,0.1-0.1,0.1-0.1,0.2c0.3,0.7,2.9,1.8,3.4,1.7v0.1l0,0
			c-0.1,0.1-0.1,0.3-0.1,0.4c-0.1,1.6,2.3,2.9,2.3,3.7c0.1,0.3-0.2,0.6-1,0.8c-0.9,0.2-1.9-0.6-2.6,0.5c-0.7,1.1-0.4,1.7-1.6,1.9
			c0.1,0.1,0.1,0.2,0.2,0.2l0,0c0.1,0.1,0.2,0.1,0.2,0.2c0,0,0,0-0.1,0c0,0,0,0.1,0.1,0.1c-1,0.8-2.3,0-3.5,0c0,0.2,0.1,0.3,0.1,0.5
			l0,0c0,0.1,0,0.2,0,0.2c-1.2-0.1-2.4-0.8-3.6-0.7c1.8,2.2,5.9,2.6,8.6,3.1c1.6,0.2,7.2-0.6,7.2-2.4c0-0.1,0-0.2-0.1-0.3l0,0v-0.1
			c2.1-1.8,3.2-1.2,5.5-2.3c1.1-0.6,2.5-2.3,3.5-3.2c-0.3,0-0.5,0-0.8,0.1l0.1-0.1h-0.1c1.3-1.3,2.2-2.1,3.8-2.5
			c1.3-0.3,2.3,0.1,3.3-0.8c-0.8,0.3-1,0.2-2.1-0.1c0.1,0,0.2,0,0.2-0.1c-0.1,0-0.2,0-0.2-0.1c0.7-0.2,1.6-0.4,2.3-0.5
			c-0.7,0-1.4-0.2-2-0.6c0.1,0,0.2,0,0.2,0s-0.1-0.1-0.2-0.1c-1.8,0.3-3.5,1.6-5.4,2.7c0-0.1,0-0.1,0.1-0.2c0,0,0,0-0.1,0
			c0.8-3.1,9.2-5,9.6-1.4c0.4-0.3,0.9-1,1.3-1.4C338.8,183.1,334.5,182.2,332,184.4z"/>
		<path class="st2" d="M336,184.5c0.5,0,0.9,0,1.3,0C336.9,184.5,336.5,184.5,336,184.5z"/>
		<path class="st2" d="M468.4,303.6c2.3,2.2,6.6-0.7,6.7-2.7c0-0.4-0.3-0.8-0.8-1c0,0,0.1,0,0.1-0.1c0,0,0,0-0.1,0
			c0.7-0.6,1.6-1.3,2.4-2.1c-1.9,0.8-5.3,3.4-6.5,2.9c-2.2-1-5,0.3-7.4,0.8c-1,1.3-1.6,2.2-1.6,2.6
			C461.3,305.5,466.8,302.1,468.4,303.6z"/>
		<path class="st2" d="M367.3,75.8c-1.8-0.2-6.2-0.1-7.4,1.3C361.4,78.8,368,79.3,367.3,75.8z"/>
		<path class="st2" d="M369.9,63c1.7-0.1,2.9-1,4.4-0.7c-1.4-1.8-3.2-1.6-5.2-1.2C367,61.5,368.4,63.1,369.9,63z"/>
		<path class="st2" d="M359.1,73.1c0.7,1.3,0.9,1.2,1.2,2.5c1.9,0.1,4.1,0.7,5.7-0.9c-0.9-0.6-1.8-1.2-2.8-1.7
			C361.7,72.3,360.5,72.5,359.1,73.1z"/>
		<path class="st2" d="M375.5,73.2c-3.3,1.3,2.3,1.6,2.6,3.1c-0.6-0.1-1.3,0.1-1.9,0c0.8,1.2,1.7,2.4,2.6,3.6
			c-1.2-0.7-9.8-8.8-9.4-3.2c0.8,0,1.7,0,2.5,0.1c-1.9,0.7-1.4,2.8,0.5,2.2c-0.5,1.7-3.7,0-5.4,0.2c-0.9,0-2.1,0.5-2.6,1.3
			c1.2,0,2.4,0,3.4,0c-3.7,2.5,1.4,2.8,3.2,2.4c2.8-0.6,5.5-0.8,8.3-1.2c-0.5,1-1.2,1.4-2.3,1.3c0.2,0.1,0.5,0.3,0.7,0.6
			c-1-0.1-2.2,0.2-2.9,1.2c1,0,2.3,0.2,3.2,0.8c-0.7-0.1-1.4,0.2-2.2,0.2c0.2,1.8,1.7,1.7,3.1,2.2c0.8,0.2,1.2-1,1.9-0.9
			c2.3,0.1,5.2,1.2,7-0.7c-0.7-0.3-1.2-1-1.9-1.4c0.7-0.6,1-1.3,1-2.4c0.3,0.3,1,0.6,1.4,0.9c0.3-1.6-0.7-2.1-0.7-3.3
			c-0.1-1.2,0.6-2.4,0.5-3.4c0-0.6-1.3-2.9-1.8-3.1c-0.8-0.3-2.6-1.6-3.4-0.9C380.6,74.1,378.6,72,375.5,73.2z"/>
		<path class="st2" d="M380,138.1c0.3,0.5,1.2,1.2,1.7,1.4c0.3-0.7,0.6-0.6,0.9-0.9c0.1,0.9,0.7,1.6,1.8,1.7
			c0.1-0.3,0.2-0.6,0.3-0.9c0.8,2.5,4.8,2.8,6.8,3.1c2.3,0.3,4.3-1.8,6.2-3c-2.5-2.3-4.9-4.3-7.8-6.1c-1.6-1-2.9-2.9-4.3-1.3
			c-1,1-2.9,2.4-0.9,3.8c-0.3,0.1-0.6,0.1-0.9,0.2C382.6,137.9,380.9,136.1,380,138.1z"/>
		<path class="st2" d="M391.9,107.5c-0.5,0.5-1.3,0.5-1.8,0.9c-1.6-3.6-2.4-2.9-6-2.9c1.8-1.2,3.7-2.4,5.5-3.7
			c-0.6-0.2-1-0.9-1.8-1.2c0.8-0.6,1.8-1,2.8-1.7c-2.1-1-3-2.1-5.2-1.2c-2.4,0.8-3.1,1.4-5.4,0.2c-2.2-1-3.2-0.2-5.5-0.1
			c-0.9,0-2.3,2.3-3.1,3.1c0.9,0.3,5.2,1.6,5.2,2.5c0,2.2,0.1,4.8-2.9,4.3c-1.3-0.2-3-3.4-4.3-3c-1.4,0.5-3.7,1.8-1.8,3.3
			c3.4,2.8,7.4,3.7,10.2,7.2c1.3,1.7,2.3,3.7,4.3,4.1c1.6,0.3,4.1-0.9,3.6-3c2.6,1.2,10-3.8,5.3-5.5c0.7-0.2,1.4-0.7,2.2-0.8
			C392.8,109.3,392.5,108.4,391.9,107.5z"/>
		<path class="st2" d="M367.1,133.9c0.6-3.4,2.4-2.5,4.1-0.9c0.1-0.5,0.7-0.9,0.8-1.4c2.5,3.9,2.2-1.2,2.1-3c-2.8,0.6-6.1-1.4-9-3.2
			c-1-0.6-5.2-2.3-5.7-3.4c-0.5-1.2,0.9-3.1,0.2-4.9c-1.7-4-2.6-10-6.3-12.1c-1.6-0.8-3-3.1-4-1.3c-0.5,0.8-3.3-1.2-4.1-1.7
			c0.9,1.6-0.8,2.1-0.5,3c0.3,1,0.7,2.2,1.2,3.2c0.8,2.4,1.7,4.8,2.6,7.2c-1.7,0.7-2.6,1.9-3.2-0.1c-0.7-2.3-1.6-4.4-2.3-6.7
			c-1-3.1-6.2-3.2-8.5-2.9c1.3,1.3,2.6,2.8,3.8,4c-0.8-0.2-3.7-1.4-4.1-0.7c-1.2,2.1-1.3,1.9-3.6,1.9c0.6-0.8,1.2-1.6,1.8-2.4
			c-1.6-0.7-5.9-3.8-7.2-3.4c-1,0.2-1.3,2.8-2.5,2.9c-1.2,0.1-2.4,0.2-3.6,0.3c2.1-1.7,4-3.8,1.2-5.5c-2.2-1.2-3-0.3-5.4,0.5
			c-4.9,1.8-8.1,3.3-12.3,6.7c0.6,0.1,1.2,0.7,1.8,0.9c-1.7,1.6-4.3,2.9-3.8,5.6c1.4,0,2.8,0,4.1,0c-0.3,0.5-0.3,1.2-0.6,1.6
			c2.9-0.1,5.9-0.2,8.7-0.2c-3,1.3-6.1,2.8-9.1,4c1.8,1.8,2.4,2.9,4.7,2.9c3.1,0,6.1-0.1,9.2-0.1c4.6,0,8.3,0.9,12.6,2.2
			c3.1,0.8-1.9,1.7-3,1.7c-2.4,0-4.8-0.6-7.1-0.9c-3.7-0.5-8.5,1.6-12.1,2.4c2.2,7.4,9.2,6.2,15.1,6.4c-0.3,3.7,0.5,5.6,3.8,5.4
			c4.1-0.3,8.3-0.6,12.4-0.9c2.9-0.2,3.8-2.2,6.7-2.6c1.8-0.3,2.4-0.5,3.8-1.6c1.2-0.9,1.2-2.5,3-1.9c-0.2,0.5-0.2,1.2-0.5,1.7
			c2.1,0.3,3.9,0.8,6,1.2c-0.3,0.2-0.7,0.6-1,0.9c3.3,0,6.4,1.9,9.8,1.6c0.8-0.1,4.1-1.2,4.1-2.1c0-1.6-2.1-1.2-0.7-3.1
			c-2.3-0.6-3.7,0.7-5.3,2.3c0-1.6,0.3-3-0.8-4.1c0.5,0.1,1.2,0,1.7,0.2C366.1,133.4,366.7,133.7,367.1,133.9z"/>
		<path class="st2" d="M481.5,146.1c-1.6,1.7,4.8,1.7,5.4,1.7C486.1,144.8,483.1,144.3,481.5,146.1z"/>
		<path class="st2" d="M423.7,23.1c-2.1,1.7-3.9,3.3-5.9,5c3.3,2.4,6.8,0.5,10.8,0.3c3.6-0.1,7.4-1.6,10.9-2.4
			c-3.2,1.7-5.6,2.9-9.2,3.2c-3.4,0.3-5.5,0.1-8.7,1.7c3.3,0.9,6.8,3.1,9.9,1c3.8-2.6,5.7-3,10.2-3.3c-4,1.2-6,2.2-9.2,5
			c2.9,0.3,5.7,0.8,8.6,0.8c2.4,0,2.6,0.5,2.9-2.1c0.1-0.9,2.8-1.2,3.4-1.4c-0.5,0.5-0.8,1-1.2,1.6c1.8-0.6,3.7-1,5.5-1.7
			c-1.4,1.2-2.8,2.3-4.1,3.4c2.3-0.5,4.6-0.8,6.8-1.3c1.4-0.2,4.9-0.2,6-1.3c3.4-3.3,6.5-4.8,10.9-6.7c-1.8,1.7-3.7,3.3-5.5,5
			c1.2,0.5,2.3,1,3.4,1.6c-7.2,1.9-14.6,3.4-21.9,4.8c2.5,2.3,4.9,4.6,7.4,6.8c-3.1-1.9-6.9-5.5-10.6-6.3
			c-0.6-0.1-10.7-0.1-10.6-0.5c-3,5.9,2.9,5.5,6.1,7.7c3,2.1,5.6,5.5,7.2,8.8c-4.7-2.5-12.3-3.2-16.4,0.9c-3.8,3.9-0.3,4.1,3.3,4.9
			c2.5,0.6,4.6-2.6,6.4-4.4c-1.3,4.1-5,6.5-0.6,9.6c3.4,2.5,7.7-2.6,9.5-4.8c-3.3,4.8-5.5,8-11.4,6.4c-2.4-0.6-2.6-3.9-4.7-4.1
			c-2.9-0.3-4.3-0.6-7,0.5c1.8,3.2,1.8,3.4,5.2,3.8c-2.4,2.4-3.7,1.7-6.5,2.9c-0.9,0.5-3.3,0.8-3.9,1.8c-0.6,0.8,1,1.7-0.2,2.5
			c1.8,2.4,2.4,0.7,4-1.2c0.1,2.8,3.8,4.8,4.9,1.7c0.5,2.8,2.2,1.3,3.9,1.4c1.8,0.2,3.7,0.5,5.5,0.5c2.2,0,2.6-2.1,4.1-1.4
			c1.3,0.5,3.6,1.4,3.1-1.2c0.8,2.1,4.8,3.8,5,0.5c1.7,1.9,2.6-0.5,3.8,0.5c1.7,1.3,0.9,2.1,0.5,4.1c2.4-0.7,4.9-1.4,7.2-2.3
			c0.7-0.2,1-1.6,1.8-1.9c0.2-0.1,0.9,1,1.9,0.7c0.6-0.2,2.6-0.5,2.5-1.3c-0.1-0.9,0-2.9-0.7-3.3c-1.3-0.8-1.7-1.3-3-0.6
			c-1.6,0.9-1.6,1.4-2.6-0.1c-0.8-1.3,3.6-4.6,4.3-5.3c2.4-2.2-1.4-3.2-0.2-4.1c0.8-0.7,4.1,1.4,5.6,0.9c2.9-1,3.6-1.4,5.5-4
			c-1.4-0.7-2.8-1.6-4.1-2.3c2.4-0.3,4.9-0.6,7.2-0.9c0.2-3-6.1-3.2-8.1-3.8c2.8,0,5.6,0,8.4,0c0.7-3.3-7.4-2.4-9.4-2.6
			c5.2-0.6,10.1-1,15.3-2.2c-0.2-0.9-0.6-1.8-0.8-2.8c1.8,0.5,4.1,1.8,6,0.9c2.5-1.3,3.7-2.3,5.6-4.4c-1.9-0.1-3.7-0.2-5.5-0.2
			c3-0.6,5.9-1.2,8.8-1.8c2.5-0.5,5.6-3.4,7.9-4.8c3-1.9,12.9-4.4,13.1-8.1c-7.6,1.6-15,3.1-22.5,4.6c4.6-1.3,9.2-2.8,13.8-4
			c-2.6-0.5-5.3-0.8-8-1.3c5.9-0.5,11.8-0.8,17.7-1.3c4.1-0.3,9.5-4.8,13.3-6.8c-5.2-1.9-9.9-3.1-15.3-4c-4.7-0.8-8.8,0.6-13.4,1.7
			c2.5-1.4,5-2.9,7.6-4.1c-4.7-0.7-9.5-2.1-14.3-2.1c-4.4,0-9.3,1.4-13.8,2.1c0.6,1.2,1.2,2.4,1.8,3.6c-2.2-1.4-4.9-4.4-7.6-4.4
			c-3.7-0.1-7.4-0.1-11-0.1c2.2,1.8,4.4,3.6,6.5,5.5c-2.6-1-5.2-2.2-7.8-3.2c-1.4-0.6-5.7-1.8-7-1.3c-1,0.3-1.3,1.8-2.5,1.9
			c-1.7,0.1-3.3,0.2-5.2,0.3c-1.9,0.1-3.9,2.9-5.5,4c4.3,2.4,8.7,4.7,13,7c-4.8-1.2-9.5-2.4-14.5-3.6c-2.1-0.6-4.6-3-6.3-4.1
			c-1.4-0.9-3.8-0.5-5.5-0.5c0.3,0.9,0.7,1.9,1,2.9c-1.8,0-3.7,0.1-5.5,0.1c1.3,0.6,2.6,1.2,3.8,1.8c-4.9,0.3-11.4-2.5-13.9,3.2
			c-3.3-2.9-7.6-0.6-11,1.3c2.3,1,4.6,2.2,6.8,3.2C419.4,24.9,421.5,24.1,423.7,23.1z"/>
		<path class="st2" d="M410.6,89.5c0.9,2.2,3.7,0.2,4.9-0.7c0.9,2.1,0.9,2.4,3,2.6c1.8,0.1,3.3,0.8,3.7-1.7c0.2,0.6,0.9,0.9,1.2,1.6
			c0-0.8,0.5-1.8,0.5-2.6c2.3,0.9-0.1,3.7,2.4,3.8c2.5,0.1,5,0.2,7.6,0.3c-0.1-0.6,0.1-1.3-0.1-1.8c1.3,1.8,4.8,2.5,5.5-0.2
			c0.7,2.8,4.6,0.9,6.4,0.7c-0.2-1-0.3-2.1-0.6-3.1c2.6,0,1.2,2.9,3.1,3.4c1.7,0.6,2.9,1.2,4.6,0.9c1-0.1,5.7-0.2,6-1.3
			c0.7-2.4,1.4-2.2,3.7-2.9c-0.9-1-2.3-1-3.6-1.4c1-0.7,2.1-1.6,3-2.3c-3.9-3.3-8.8-6-13.9-4.3c-2.2,0.7-3.9-0.3-6.2,0.5
			c-2.3,0.8-4.3,1.3-6.7,1.8c0.5,0.3,0.8,0.8,1.3,1c-2.3-0.5-5.6-2.1-7.9-1.7c-0.7,0.1-2.1,1.4-2.8,0.9c-1-0.7-2.2-1.4-3.3-2.2
			c-0.6-0.3-5.3-3-5.3-3.1c-0.5-1.4,4.1,0.3,4.7-1.8c-1.3-0.3-2.6-0.7-3.9-1c-1.8-0.5-0.9-1.4-2.3-2.3c-2.4-1.4-4.8,0.6-7.2,0.1
			c-2.5-0.5-3.7-2.6-6-3c-2.5-0.3-5.6-1.6-8-0.8c-4,1.2-2.9,2.8-0.2,5.4c2.5,2.5,4,2.1,7.2,1.7c2.8-0.3,4-1.4,6,0.9
			c1.2,1.4,4.4,4,2.4,6C408.5,85.9,409.2,86.5,410.6,89.5z"/>
		<path class="st2" d="M535.1,159c0.3-3,1.4-4.7-1.3-6c-1.7-0.7-4.9,0.1-6.7,0.1c0.6-0.9,1.2-1.8,1.8-2.8c-2.8-0.3-3.9-0.2-5.9-2.4
			c-1.7-1.8-2.4-2.5-4.6-3.3c-4.6-1.7-9-3.3-13.2-5.4c1.2-0.1,2.5-0.3,3.7-0.5c-0.2-1.2-0.3-2.3-0.6-3.4c1.8,0.3,3.4,0.7,5.3,1
			c-1-2.9-0.8-2.8-3.4-2.3c-1.4,0.2-2.8-0.6-4.1-1c2.4-1.6,3.2-1.8,6.1-1.6c0-2.3-2.3-3.2-3.8-4.3c-0.3,2.3-2.6,2.6-4.1,3.4
			c0.6-2.3-1.2-1.9-2.6-2.2c1.9-0.6,5.3-0.6,6-3.1c-1.7-0.8-10.3-6.5-11.5-4.1c-0.8,1.9-3.8,3.9-4.7,1.4c-0.6-0.3,3.4-2.2,4.4-2.8
			c-1-3.7-5.9-3.1-8.5-2.3c-1.6,0.6-5.4-5.4-6.9-6.9c-1.8-1.8-6.1-3.7-8.5-3.3c-1.2,0.1-3.9-0.1-4.9,0.8c-0.6,0.6-2.8,3.3-3.6,2.9
			c-2.6-1.6-2.4-1.7-4.7,0.5c-1.2,1.2-3,1.2-1.8-0.8c1.3-2.5,1.7-2.6,0.5-5.2c-0.8-1.8-1.6-1.6-2.6-3c-0.9-1.3-0.6-3.6-2.3-3.7
			c-1.3-0.1-3.3-0.7-4.6-0.2c-3.1,1.2-6.1,2.6-9.3,3.2c0.3-1.2,0.6-2.4,0.8-3.6c-4.9-0.6-7-0.6-11.6,1.4c-3.4,1.4-5.5,3.6-6.9,7.6
			c-0.6,1.4-2.5,4.7-2.3,6.1c0.1,0.7,0.6,5.5,1,5.5c4.4,0.5,7.2,0,10.6,3.3c-3.2-0.2-6.4-0.6-9.6-0.8c1.2,2.5,3.8,4.4,6.1,5.6
			c1.8,1,2.6-0.3,4.1-0.5c3.3-0.3,0.9,0.6,2.8,2.3c0.7,0.7,3.6,1.2,4.6,1.2c3.1,0.1,7.1-0.6,10.1,0.6c0.9,0.3,2.1,0.7,3,1.2
			c0.6,0.2,1-1.3,1.6-1.3c1.6,0.1,1.9,2.3,3.6,1.7c-1.2-1.2-2.5-2.3-3.7-3.4c4.9,1.4,8,2.5,12.9,1.3c-0.9-2.1-1.2-3.1-3.3-3.7
			c2.6-2.5,2.4,1.4,4.3,2.3c0.6,0.3,2.4-0.7,2.5,0.2c0.2,1,0.5,2.1,0.6,3.1c2.3-2.4,6.2,2.9,8.1,4.4c-3.4,0.9-4,0.5-4,4.4
			c1.6-0.6,3.1-1.2,4.7-1.8c2.1-0.8,1.9-0.9,3.1,1c1.6,2.8,4.9,1.9,6.5,4.9c1,2.1,2.2,3.9,3.2,6c0.5,0.9-0.6,1.4-1.3,2.2
			c-2.5,2.5-5.2,5.2-7.7,7.7c0.8,0.6,4,2.2,3.4,3.8c-0.2,0.7-4.9,1.4-5.6,1.7c-3,0.8-6.4-0.3-9.5-0.7c0.3,2.1-2.4,2.6-3.3,4.3
			c-0.7,1.3,1.4,3.9,2.9,3.8c2.1-0.1,4.6,0.3,6.2-1c1.6-1.4,3.6-0.2,5.5,0.2c0-0.6,0.3-1.3,0.2-1.9c1.3-0.2,2.1,0.6,2.1,1.9
			c3.3-2.2,3.2-0.1,5.4,3.1c1.2,1.8,3.3,1.6,5.3,2.6c-1,0.6-2.3,1-3.3,1.7c1.8,1,3.1,2.1,5.3,1.9c-0.2,0.3-0.5,0.7-0.7,1
			c2.2,0.5,4.1,1,6.3,1.6c0.8,0.2,0.8,2.2,2.3,2.5c4,1,8.3,2.2,12.3,3.2c0.2-2.1,0.8-2.8-0.7-3.8c-1.6-1-3-2.2-4.6-3.2
			c-0.9-0.7-3.2-0.5-3.8-1.6c-0.8-1.4-1.7-2.9-2.5-4.3c1.4,0.6,3,1.3,4.4,1.9c-0.3-0.6-0.3-1.4-0.7-2.2c2.5,1.6,5,3.1,7.6,4.8
			c1.3,0.8,3.7,3.9,4.6,3.6c-0.3-0.8-0.6-1.7-0.9-2.5c0.5,0.2,1,0.2,1.6,0.5c0.9-2.3-2.3-2.9-0.9-5c0.7,0.9,1.4,1.8,2.1,2.8
			c-0.2-1.4,0-4.3-0.7-5.5c-0.8-1.4-2.5-0.8-3-2.8c-0.5-2.3-0.2-2.9-2.2-3.7c-1.6-0.7-2.9-1.9-3.3,0.7c-0.6-1.7-1-3.3-1.7-5
			c-0.6-2.1-1-1.2-2.8-0.5c-0.3-1.2-0.7-2.3-1-3.4c1.2,0.1,2.3,0.3,3.4,0.5c-0.1-2.3-2.5-2.2-1.2-4.1c0.9-1.4,2.1-1.2,3.4-0.3
			c1.3,0.7,2.5,3.3,3.9,3.6c1,0.2,3.2-1.2,4.3-1.6c0.7,2.5-1.7,2.8-3.3,3.4c2.8,3.2,4.3,4.7,8,6.3c0.7-2.3,0.1-4.8-0.1-7.1
			c3,2.2,4.3,0.5,7.4-1.2c-1-0.5-2.2-1-3.2-1.6C531.7,157.8,533.9,158.8,535.1,159z"/>
		<path class="st2" d="M458.8,177.4c-2.8-2.1-3.2-2.2-6.4-1.7c2.9-2.9-4.7-6.5-6.1-7.7c-1-0.7-2.9-0.3-3.8-1.4
			c-1.4-1.6-1.9-2.2-3.3-0.1c-0.3-0.3-0.7-1.2-0.8-1.7c3-0.5,2.1-4.7-0.5-3.4c-2.6,1.2-2.5,3.4-3.3,6.3c-0.3,1.2-0.5,2.4-0.7,3.7
			c-0.1,0.8,0.7,2.3,0.3,3c-0.3,0.9-3.3,3.1-4.1,4.1c0.8-0.1,5.6-1.3,6.1-1c0.6,0.3,0.9,5.4,2.1,4.6c1.6-1.2,2.9-3.4,4.3-3.9
			c2.4-0.8,2.2-2.9,4.6-3.7c-0.5,3.8,6,4.7,8.4,5.4C456.5,178.9,457.7,178.1,458.8,177.4z"/>
		<path class="st2" d="M478.6,151.1c1.6-2.6,0.3-3.8,1.3-6.3c-3.2-4.4-11.9,2.1-8.3,5.3C473,151.2,477.1,153.6,478.6,151.1z"/>
		<path class="st2" d="M443.5,187c0.1,0.5,0.5,2.1,0.9,2.1c3.3-0.3,7.2-1.8,7.8-6.1c-0.8,0-1.7,0-2.5-0.1c-2.2,0.3-3.4,0.5-5.2,1.8
			C443.5,185.6,443,185.5,443.5,187z"/>
		<path class="st2" d="M363.6,86.4c-1-2.9-2.4-2.5-4.8-1.7C356.1,88.4,362.2,86.9,363.6,86.4z"/>
		<path class="st2" d="M404.1,65.1c0.6-0.9,1.3-1.8,1.9-2.8c-4.3-1.3-8.8-1.6-12.7,0.7C394.1,66.4,401.7,65,404.1,65.1z"/>
		<path class="st2" d="M357.6,51.8c2.2,0.2,2.8-3,4.7-1c-0.3,0.2-0.7,0.8-1,1c1,0.2,2.2,0.3,3.2,0.6c0.3,3.6-4.6,0.8-6.8,2.3
			c0.7,6.2,7.7,0.1,8.8,1.7c1.4,1.7,3.9,1.3,6,1.6c1.9,0.2,2.2,1.3,3.1,3.2c0.9,1.6,9.4,1.4,5.3-3.3c-0.6-0.7-2.2-1.7-1.8-2.8
			c0.3-1.4,0.6-1.3-0.5-2.2c-1.8-1.6-2.4-1.2-4.7-0.8c0.7-4.6-4.9-2.3-6.4-1.4c-1.2-2.8-2.5-4.8-5.7-4.3c-3.4,0.5-5.4-0.2-6.7,3.4
			c1.2,0,2.4-0.1,3.6-0.1C358.2,50.2,357.8,51.1,357.6,51.8z"/>
		<path class="st2" d="M306.3,77.6c-1.2,0.3-7.8,2.9-7,4.8c0.5,1.3,3.7,0.8,4.4-0.1C304.7,81.1,306.7,79.3,306.3,77.6z"/>
		<path class="st2" d="M335.9,75.7c1.4,0.9,3,1.8,4.4,2.8c-1,0.3-2.1,0.8-3,1.2c0.9,0.3,4.8,1.4,4.7,2.5c-0.3,2.4-2.6,1.2-4.6,1.2
			c-0.9-0.1-5.2,0.3-5.5-0.8c-0.6-2.6-0.9-2.4-3.3-2.2c0.3-0.2,0.8-0.5,1.2-0.7c-1.6-1.3-3.6-3.9-5.6-3.6c-3.7,0.7-2.4-0.8-5.4-2.1
			c-0.6-0.2-5.3,0.2-5.3,1.3c0,1,3.8,1.6,4.7,1.8c-3.1-0.2-5.3-0.6-8.1,0.6v1.6c1.9,1.2,5.4,0.2,7.6,0.2c-0.9,0.7-9.8,0.1-9.6,2.4
			c0.2,2.1,7.7-0.2,8.6-0.5c-2.9,2.4-8.7,0.6-10.7,4c2.5,0.8,3.6,1,6,0.5c-0.1,0.3-0.2,0.8-0.3,1.2c0.9,0.3,2.1,0.6,3.1,0.8
			c-0.7-2.2,1.7-1.8,2.1,0.2c2.6-1.6,3.1-1.8,3.9-4.9c1.9,0.6,1,2.1,0.8,3.7c1.4-0.1,4.9,0.6,5.2-1.6c0.9,2.2,4.6,1,6.1,0
			c-3,3.2-9.2,3.7-13.3,5.2c5.2,3.3,7.2,2.3,12.6,0.2c3.1-1,6.1-2.3,9.2-3.3c1.8-0.6,2.8,1,4.4,0.9c0.8-0.1,0.9-1.6,2.4-1.6
			s2.9,0,4.4,0c1.9,0,2.8-2.3,3.2-4.3c0.6-2.5,0.3-4.9-3-4.4c-4,0.6-0.7,1.8-2.3,3.8c-0.6-2.2-1.3-2.4-3.1-3c-1-0.3-1.4-2.5-2.4-3.2
			c-2.1-1.6-0.5-6.3-4.6-4.7C338.8,73.1,337.6,74.3,335.9,75.7z"/>
		<path class="st2" d="M358.5,68c0.9,1.2,2.3-0.6,1.2-1.9c-0.7-0.9-1.6-1.7-2.3-2.3c-1.3-0.9-2.3-2.4-3.9-1.6
			c0.2,1.2,0.6,2.3,0.9,3.4C355.4,66.7,357.8,67.2,358.5,68z"/>
		<path class="st2" d="M338.9,58.9c-2.9-1.2-7.1,0.5-9.9,0.9c-3.7,0.6-5.5-0.1-4.7,4.4c1.7,0,3.1,2.4,4.6,2.1
			c2.3-0.6,4.6-1.2,6.8-1.8c1.6-0.5,0.8-0.9,1.2-2.2c0.3-0.9-2.5-0.1-3.1-1.2C335.8,60.8,337.5,60.8,338.9,58.9z"/>
		<path class="st2" d="M322.6,61.5c-2.8-2.4-2.8-2.8-6.1-1.4c1.2,0.8,2.4,1.7,3.6,2.5C321,62.3,321.8,61.8,322.6,61.5z"/>
		<path class="st2" d="M317.6,71.4c1.8,0.3,3.9,1.4,5.6,0.1c-0.5-0.3-0.8-0.8-1.3-1C320.4,70.4,318.7,70.1,317.6,71.4z"/>
		<path class="st2" d="M329.3,56.5c1.9,1,1.7-0.5,3.3-0.6c1.2-0.1,8.5,2.6,7.7-1.2c-0.6-2.3-6.3-2.2-7.8-1.7c-2.5,0.7-7,1-8.6,3.4
			c0.3,0.2,0.6,0.5,0.9,0.6C326.1,56.9,328.1,55.7,329.3,56.5z"/>
		<path class="st2" d="M349.4,101.4c2.2,0.6,2.3,1,3.9,2.5c1.3,1.2,2.2,2.8,3.8,1.9c1.2-0.6,2.4-2.8,2.3-4c-0.1-1.9-1.3-2.2-2.9-3.1
			C354,99.1,350.7,98,349.4,101.4z"/>
		<path class="st2" d="M417,71.1c-1.4,1.2,2.1,3.3,3.2,2.9c-0.3-0.5-0.3-1.2-0.6-1.6C421.3,71.3,418,70.3,417,71.1z"/>
		<path class="st2" d="M383.1,39.5c-0.9-2.4-6.9-1.8-5.2,1.7C380.5,42.2,385.1,44.8,383.1,39.5z"/>
		<path class="st2" d="M414.2,64.1c-1.6,1.4,1.6,2.6,2.3,3c1.4,0.7,2.8-0.1,4.1-0.6C420.5,63.4,416,62.5,414.2,64.1z"/>
		<path class="st2" d="M404.6,86.9c-0.5-2.3-3-5.7-5.4-4.9c-1.4,0.5-8.5,1.7-7.2,5.3c0.5,1.4,6,3.3,7.4,4
			C402.3,90.8,405.3,91.3,404.6,86.9z"/>
		<path class="st2" d="M458.9,105.9c0.6,0.7,2.1,1.2,2.8,1.7c1.4,0.8,5.9-1,7.4-1.4c2.1-0.5,4.6,0.2,6.5,0.2
			c-2.8-3.6-4.7-4.8-8.5-6.8c-1.2-0.6-3,0.3-4.3-0.1c-1.6-0.6-3.1-1.2-4.8-1.7c-2.6,0.5-3,4-0.7,5.2
			C459.4,103.8,457.8,104.5,458.9,105.9z"/>
		<path class="st2" d="M390.9,58.6c-1.2,0.6-2.4,0.3-3.6,0.8c0.9,0.5,2.9,2.4,3.2,2.4c1.2,0,2.5-0.5,3.7-0.8
			c1.3-0.3,3.7-0.3,4.4-1.7c0.7-1.2-1-1.8,0.6-3.4c-1.4-0.5-3.4-0.5-4.7-0.9c-1-0.3-2.3-1.8-3.6-2.3c-1.9-0.8-8.7-2.1-4.9,1.9
			c-0.5,0.1-0.8,0.1-1.3,0.2C385.6,58.4,388.8,56.6,390.9,58.6z"/>
		<path class="st2" d="M391.3,39.1c0.6,4.8,5.9,4.8,9,3.4c-1,1.7-2.6,1.6-4.3,1.8c-1.3,0.2-0.8,1.9,0.3,1.8c1.2-0.1,1,2.2,2.5,1
			c1-0.8,1.7-1.6,3-1c-0.1,0.3-0.1,0.7-0.2,1c1.4,0.7,1.9-0.5,3.2-1c0.3-0.2,1.8,1.6,1.3-0.7c2.3,0.9,6.2-0.2,7.9,1.2
			c-1.9,0.2-3.8,0.5-5.7,0.7c2.9,1.2,5.7,0.6,8.7,0.3c-5.5,1-10.6,0.6-15.6,2.8c1.4,1,3.2,1.4,5,1.9c-0.9,0.1-1.9,0.1-2.8,0.2
			c1.6,2.3,5.7,1.4,8.4,2.1c-1.8,0.2-3.4,0.3-5.3,0.6c2.3,3.7,7.4,3,11,3.2c-0.2-0.9-0.8-1.6-1.8-1.9c2.3-0.1,3.3,0.9,5.2,2.4
			c-0.8-1.7-1.7-3.4-2.5-5.2c1.7,1.7,3.4,3.3,5.2,5c0.7-2.1,1.3-3,0.1-4.9c7.2,3.8-0.6-3,4.1-4.4c-0.5,1.6,0.2,2.9,0.8,4.1
			c1.3-1,3.3-1.8,2.4-3.9c1.3,1,6.3-1.7,8.5-2.3c-0.8-1.6-2.2-2.5-3.4-3.7c-0.2,0.7-0.8,1.2-0.9,1.9c-0.2-3.6-4.1-1.4-5.9-0.7
			c1.9-3.6,2.8-5.3-1.7-5.7c2.8-2.4-1-5.4-3.6-3.2c0.6,0.9,1,1.9,1.7,2.9c-1.4,0.1-2.8-0.3-3.7-1.8c-0.5-0.8,0.8-3.2-1.3-2.6
			c-2.3,0.7-4.3-0.3-5.9-2.2c-2.5-2.9-3.8-5.2-7.2-6c-2.1-0.6-5.5-1.7-7,0.5c1.9,0.7,4,0,5.7,0.9c-1.8,3.1-8-1.3-9.9,3.6
			c1.6,0.5,3.8,0.2,5,1.3c-1.4,0.3-8.6,0.6-6.3,2.9c-1,0.3-2.3,0.8-3.3,1.2c1.9,0.9,3,0.5,4.9,0.9c-0.2,0.1-0.6,0.3-0.8,0.5
			c1.8,0.8,3.7-1,5.3,0c-0.6,0.1-1,0.7-1.7,0.9c0.5,0.3,0.7,0.8,1.2,1.2c-0.6-0.1-1.3-0.2-2.1-0.5C396.1,39.3,393.7,39.2,391.3,39.1
			z"/>
		<path class="st2" d="M290.9,79.8c2.1,0.2,0.9-1.4,1.6-2.1c1.2-1,2.8,0.5,2.5,2.6c1-0.3,2.8-0.5,3.6-1.4c0.8-0.9-1.4-2.8,0-3.4
			c0.8-0.3,1.6,2.9,3.1,1c0.9-1,0.2-2.2-0.8-2.5c1.3-0.8,2.6,0.3,2.6-2.1c0-1,1.8-0.9,2.4-0.3c-3.1,2.1-0.1,5.2,2.6,4.3
			c1.8-0.5,6.5-4,3.2-5.7c0.5-0.3,1.4-0.5,2.2-0.5c-4.4-0.8-0.5-2.8,1.4-3.4c-2.9-1.6-3.8-2.6-6.8-1.6c0.5,0.2,0.6,0.7,1.3,0.9
			c-1.3,1.2-2.5,0.3-3.9-0.2c-1-0.3-2.6,0.2-3.7,0.3c-2.9,0.3-3.9,1.6-6.2,3.6c-1.6,1.3-4.4,5-6.4,5.3c-3.2,0.3-5.6,1.3-3,4.6
			C288,79.4,289.4,79.6,290.9,79.8z"/>
		<path class="st2" d="M461.7,187c-1.4-0.5-3,1.3-3.1,2.5c-0.1,1.9,0.6,2.2,1.8,3.4C461.6,191.9,465.1,188.2,461.7,187z"/>
		<path class="st2" d="M523.1,266.9c2.5,2.1,8.4,6.9,11.6,4.3C531.7,267.9,527.1,266.8,523.1,266.9z"/>
		<path class="st2" d="M478.4,421.2c1.7-0.5,3.3-0.9,5-1.4c-1.3-1-2.3-2.1-3.9-2.4c-1.2-0.2-1.8-2.1-2.4-1.9
			c-2.3,0.2-5.2-1.2-6.7-3.2c-0.1,0.2-0.2,0.3-0.3,0.6c-4.9-3.2-10.1-6.2-15.7-6.7c-3.3-0.3-6,0.3-9.2,1.2c-2.6,0.7-3.3,3.2-5.5,4.6
			c4.1,2.3,9.1-7.2,13.2-3.1c-0.7,0.3-1.2,0.6-2.2,0.5c0.7,0.9,2.1,1.4,3,1c1.3-0.3,1.4,0.6,2.9,0.6c2.3,0.1,4.4,1.7,6.9,2.1
			c2.3,0.3,2.4,3,4.9,4.1c0.7,0.3,3.1-0.3,3.1,1.4c0,0.6-2.2,2.2-2.5,2.6C472.1,421.7,475.2,421,478.4,421.2z"/>
		<path class="st2" d="M335.8,184.5L335.8,184.5c0.1,0,0.2,0,0.2,0C335.9,184.5,335.9,184.5,335.8,184.5z"/>
		<path class="st2" d="M356.7,414c-0.9,3.3-2.4,4.7,0,7c2.5,2.5,5,5.2,7.6,7.7c0.9,0.9,3.2,1.3,4.4,1.8c3.8,1.6,7.8,3.1,11.6,4.7
			c4.8,1.9,9.9,5.6,14.9,4c2.3-0.7,4.8-2.6,6.7-0.8c2.8,2.8,5.6,5.6,8.5,8.4c3.2,3.1,9.9,3.4,14.1,4.6c5.3,1.4,7.6,5.4,11.2,9.6
			c1.4,1.7,0.9,4.6,2.1,6.3c1.3,2.2,5.3,4,7.2,5.5c0.9,0.7,1.9,1.4,2.9,2.3c0.6,0.3,1.2-0.6,2.2-0.5c1.8,0.3,4.9,3.6,5.6,1.7
			c1.4,3.4,1.3,3.1,4.6,1.7c-0.3-0.6-2.1-2.5-1.4-3.1c1-0.9,2.1-2.1,3.2-2.6c1.7-0.8,1.7-0.9,3.2-0.1c2.3,1.3,3,0.5,2.9,3.2
			c0,0.9,0.6,2.4,1.8,1c1-1.2,1-1.3,1.2-2.9c0.3-2.3-3-3-5.5-3.7c-3.6-1-5.4,0.3-8.8,1.7c-5.6,2.3-13-7.8-12.3-13.9
			c0.1-1.3,1.2-2.4,1.4-3.7c0.3-2.3,0.7-4.6,1-6.8c0.6-3.4-1.4-5.6-4.4-6.9c-1.4-0.6-3.4-0.5-5-0.7c-1.4-0.2-2.4,0.9-3.8,0.8
			c-3.6-0.6-6.7,0.3-10-0.8c0.9-0.9,3.4-3.7,2.8-5.2c-0.7-1.7,1.9-6.1-0.5-6.2c0.3-0.6,0.7-1.6,1.2-2.1c-0.2,1.2,0.1,2.3,0.8,3.1
			c0.3-1.8,0.7-3.6,1.4-5.4c-0.2,0.1-0.5,0.3-0.7,0.5l-0.2-0.3c0.5-0.3,0.8-0.8,1.3-1.3c-1.2,0-0.9-0.5-1.4-0.8
			c1-0.1,3.1-4.4,3.7-5.9c1.6-3.7-3.3-2.8-5.2-2.9c-1.3-0.1-5.5,0.8-6.7,1.3c-3,1.2-2.8,4.6-3.6,7.4c-0.5,1.7-1,2.2-2.4,3.3
			c-0.5,0.5,0.3,1.3,0,1.7c-0.5,0.5-1.3,0.6-1.9,0.9c-0.6,0.2-1.4-1.2-2.5-1c-1.6,0.1-2.5,0.3-3.9,0.9c-1.4,0.5-3,1-4.4,1.7
			c-0.6,0.2-1.8-1.7-2.6-1.9c-3.6-1-4.4-3.3-6.7-6.7c-3.7-5.7-4.7-10.6-4.7-17.3c0-2.8,1-5.4,1.8-7.9c0.2-0.9,1-2.5,0.9-3.6
			c-0.1-1.4-2.1-3-2.1-4.4c0-4.7,7.9-10.6,11.1-11.8c2.1-0.8,5.3-3.2,7.4-2.4c1,0.5,2.8,1.6,3.8,1c2.1-0.7,2.8,0.5,4.6,1.9
			c1.4,1,2.3-1.2,3.3,0.9c0-0.8,0.5-1.2,0.2-2.3c1,0.7,3.3,1.3,2.8,2.8c0.8,0.1,1.8-0.3,1.6-1.6c-0.1-0.3-2.4-1.2-2.9-1.4
			c4.1-2.1-1.4-2.8-3-2.9c2.2-1.7,9.5,0.7,9.9-2.6c0.7,3.8,4.4,0.8,6.7,1.4c1.3,0.3,2.8,1.8,3.9,2.5c1.3,0.8,2.8-0.1,4-0.6
			c2.5-0.8,3.7,2.2,5.9,3.6c2.5,1.7,0.2,5.3,0.9,7.7c0.2-0.2,0.6-0.5,0.8-0.7c-0.5,1.9,0.3,2.9,1,4.4c0.6,1.4,1.3,2.6,1.8,4.4
			c0,0.2,2.5,2.4,2.9,3c1.3,1.9,2.3,0.3,3.4-0.8c1.6-1.6,0.9-6.8,0.3-9c-1.2-4-2.4-7.4-4.1-11.1c-0.9-2.2-1.7-6-0.6-8.1
			c2.3-4.6,3-5.6,7-8.1c1.2-0.7,2.1-2.2,2.9-3.2c0.9-1.2,2.9-0.8,3.3-1.7c0.7-1,1.8-3.4,2.9-4.1c0.5-0.3,1.4,0.8,2.2,0.5
			c0.8-0.5,1.7-0.9,2.6-1.4c-1.3-0.7-2.4,0.9-3.1-0.9c0.8,0,1.2-0.5,1.9-0.7c-0.5-0.2-0.8-0.7-1.3-0.9c0.8-0.1,4-0.2,4.1-1.2
			c0.3-2.3-2.3-1.8-3.8-1.8c1.8-0.6,3-0.3,3.4-2.4c0.6-2.5-1.6-1.7-2.1-3.2c-0.2-0.8,0.8-3.3,0.3-4.1c-0.6-1-2.5-1.4-3.2-2.6
			c1,0.2,2.1,0.8,3,1.6c-0.8-3.8-1.8-5.3,1.3-7.6c1.3-0.9,0.1,1.8,0,2.1c-0.6,1.3-0.7,2.8-0.9,4.1c1.9-0.5,1.4,1.4,2.4,2.1
			c-0.6,1.3-1.2,2.5-1.2,4l0.3,0.1c0.5-2.1,2.3-4.3,3.2-6.3c0.9-1.9-1.7-4.8-1.8-6.9c0.6,1.8,3.1,2.8,2.3,4.3c1.3-1.2,6.5-8,2.9-8.4
			c0.8-1.6,3.4-1,4.9-1.2c1.8-0.1,3-0.8,4.6-1.8c-0.6,0.1-1.3-0.1-1.9-0.1c0.2-0.1,0.5-0.3,0.7-0.6c-2.4,0.3-4.3,1.6-6.7,1.8
			c3.3-2.3,5.2-2.4,9-2.8c1.2-0.1,0.9-2.5,1.8-2.3c1.7,0.3,3.4,1.3,5.2,0.2c-0.3-0.5-0.7-0.9-1-1.3c0.1,0.3,0.2,0.7,0.5,0.9
			c-5.3,0.6-1.4-6.5-0.6-8.6c0.6-1.4,0.6-2.4,1.9-3c2.1-0.7,3-0.9,4-3.1c0.2,0.2,0.6,0.6,0.8,0.8c0.9-1.8,7.7-0.3,6.4-4.4
			c0.8,0,2.3,0.5,2.9-0.2c1.2-1.4,1.2,0.1,2.3-0.6c1.6-1,4-3.6,6-3.1c-0.6,0.8-1.3,1.8-1.3,2.6c1.4-0.9,3.6-0.3,5.2-0.3
			c-1.3,1.2-2.2,2.9-3.6,1.7c-0.7-0.6,0-1.9-1.4-0.8c-2.2,1.6-8.4,4.8-5.7,8.5c0.7,0.2,1.9,1.9,3.1,0.7c1.8-1.7,3.3-4.3,5-5.7
			c0.9-0.7,1.2,1.4,2.3,0.5c0.8-0.7,1.8-0.9,2.8-1.3c2.5-0.9,4.9-2.1,7.4-3c-0.5-0.3-0.7-1-1.2-1.6c2.2,0.3,3.9-0.8,6-1.7
			c1.4-0.6-0.9-3.3-2.8-1.9c0.5-1.9,1.9-3.9-0.5-4.8c-1.2,1.9-4.9,5.3-3.1,7.6c-0.5,0.2-1.3,0.5-1.8,0.5c-0.1-0.5-0.2-0.9-0.2-1.4
			c-2.6,1.9-5.6,0.7-8.6-0.8c0.2-0.1,0.5-0.3,0.7-0.5c-2.1-0.5-5-2.8-3.9-5.5c-0.6,0.1-1.4-0.1-2.1,0.1c1.2-0.8,2.1-2.2,2.4-3.7
			c-1.3-0.3-2.4-0.1-3.6,0.2c-0.1,0-2.1-2.1-2.8-2.3c1.9-1.3,3.3,1.2,5-0.2c1.3-1.2,4.9-2.5,2.3-4.3c0.5,0.2,0.9,0.2,1.3,0.5
			c-2.5-6.4-12.3-0.9-15.8,0.8c-5.3,2.5-8,8-13.2,10.6c3.1-2.3,4.4-5.6,7-8.4c1.4-1.6,2.9-3.7,4.6-4.9c1-0.7,4.8-1,5-2.5
			c1-5.2,5-3.8,9-4c4.4-0.2,8.4-0.1,12.9,0.2c4.3,0.5,6.8,0,9.8-3.2c1.4-1.6,2.3-2.8,4.1-3.3c1.9-0.5,3.6-0.2,5.3-0.7
			c1-0.2,4.1-2.1,4.9-3c1.4-2.3-0.7-2.9,0-4.9c0.3-0.9,1.7-4.4,0-5c-2.3-0.7-3.9-2.2-5.3,0.5c-1.2-1.4,0.9-1.3,0.2-3.2
			c-0.5-1.4-3-1.7-4.1-1.6c0.6,0.6,0.8,0.8,1.8,0.9c-1.7,0.1-3.4,0.6-5,1.4c-0.6,0.3-0.2,0.9-1.2,1.3c-1.2,0.5-1.8,0.6-2.5,1.6
			c-0.8,1.2-1.4-2.2,0.2-2.8c1.8-0.5,4.8-0.7,5.7-2.4c-1.4,0.5-3.1,1.4-4.4,0.9c2.2-0.7,4.3-1.6,6.4-1.9c3.9-0.6,0.3-2.3-1.4-3.4
			c-2.6-1.8-3.9-1.8-7-2.1c-1.7-0.1-0.5-1.4-1.2-2.8c-0.6-1-2.4-1.9-3.3-2.6c-0.3-0.3-2.4-1.6-2.5-2.1c-0.2-1,1.8-2.8,1.8-3.9
			c-0.1-2.2-3.4-5.9-4.6-7.8c-1.9-3.3-4.7-11.7-8.7-11.9c0.2-0.9,0.3-1.9,0.6-2.9c-1.8-0.3-4.3,3.1-4,4.9c0.5,2.5-1.2,4.7-2.3,6.9
			c-0.5-0.5-1.2-0.5-1.7-0.9c-1.9,10.7-11.4-6.5-14,1.3c-1.6-1.4,1.3-3.4,2.3-4.7c-0.5,0.1-1-0.1-1.7,0c0.8-1.9,0.1-3.7-0.1-5.7
			c-0.3-2.1,0.2-2.6,1.3-4.4c-1.9-0.9-3.2-1.9-5.3-1.6c-2.5,0.3-3.8-1.4-4.3-3.6c-0.3-1.6-3.6-2.9-4.7-3.7c-2.4-1.7-3-3-5.6-1.8
			c-4,1.9-7.8-1.7-11.9-1.2c-2.3,0.2-3.6,1-3,3.2c1,3.4,0.9,4.1-0.1,7.7c-0.6,1.9,0.6,4.1,1,6.1c0.9,3.6,0.8,3.2-1.9,5.6
			c-2.4,2.3-1.8,2.1,0.1,4.7c1.3,1.9,3,3.3,4.7,5c2.4,2.4,1.9,9.8,0,12.4c-2.2,3-8,5.3-11,7.1c0.9,1.4,3.1,3.6,3.3,5.3
			c0.5,3.1,1,6.2,1.6,9.2c0.5,3-5.4,9.2-8.1,5.9c-2.8-3.4-7.7-7.1-7.4-11.9c0.1-3.4,0.2-6.9,0.5-10.3c0-1-4.8-0.9-5.6-1
			c-2.5-0.2-5-0.5-7.6-0.8c-1.7-0.1-4.4-3.1-5.7-4c-4.6-3.2-8-4.8-13-6.7c-1.7-0.6-3.6-1.8-5.4-1.4c-3.3,0.7-4.1,2.1-5.4-1.4
			c-0.7-1.9-1.6-6.9-3-8.3c-1.3-1.2-5-1.2-6.8-1.7c0.9-4.3,1.8-8.6,2.8-12.9c0.8-3.8,3.9-7.1,6-10.2c0.5-0.6,1.7-3.4,2.5-3.3
			c2.4,0.1,3.4,0.1,5.7-0.9c2.1-0.9,0.1-2.9-1-3.4c-2.4-1.3-2.8-1.3-5.4-0.7c0.3-0.3,0.6-0.7,0.9-1c-1.7-0.7-3.3-1.6-4.9-2.3
			c2.5,0.7,5,1.3,7.4,2.1c3.9,1.2,4.1,1,7.7-1.4c1-0.8,2.4-0.3,3.7-0.2c1,0,2.4-0.9,3.3-1.4c1.7-0.8,3.3-5.4,4.3-7.1
			c-2.5-0.3-6.3,0.1-8.6-1c-3.1-1.6-6.3-3.1-9.4-4.8c4.6,0.2,8.1,0,12.2,2.2c2.6,1.4,3.4,2.6,6.1,1.2c1.8-0.9,2.8-3.1,3.8-4.8
			c-1-0.6-2.2-1.2-3.2-1.9c0.8-2.1,3.2-1.3,5-1.3c0.7,0,0.1,1.9,0.9,2.2c1.2,0.2,2.3,0.6,3.4,0.8c-0.1-0.5-0.2-0.9-0.5-1.3
			c1,0.6,2.3,1.2,3.3,1.8c-0.7-1.7-1.4-3.2-2.2-4.9c1.4,1.3,2.6,3.7,4.4,2.6c1.9-1.1,5.2-2.3,6.4-3.9c2.1-2.6,1.2-3.9-0.7-5.7
			c-1.8-1.7-2.5-3.7-3.6-6c1.2-0.1,3.9,0.2,4.8-0.7c1.3-1.6-0.6-3,0.6-5.2c-2.9-0.6-3.4-1-5.5-3.3c-1-1.2-5.3-1-6.8-1.3
			c-2.3-0.3-3.8-1-4.3,1.6c-0.5,2.6,0.8,3.7,2.2,5.9c-3.6,1.6-3.6,1.3-3.6,5.5c0,0.8-1.8,1.9-2.3,2.4c-1,0.9-0.9,1.9-1,3.6
			c-0.5,5.6-12.1-4.8-6.9-7.7c0,0.5,0.2,1,0.2,1.6c2.5-0.8,1.2-3.2,0.8-5.3c-0.2-1.2-3.7-2.5-4.7-3.1c-1.6-0.9-2.3,2.6-2.4,3.4
			c-0.2,2.3-0.9,3.2-2.3,5c-2.2-1.3-1.8-1.9-1.2-4.3c0.5-2.5-0.3-2.5-2.2-3.9c0.8-0.6,1.8-1.2,2.6-1.8c-1.8-0.8-3.2-2.4-5-1.2
			c-1.7,1.2-3.2,0-5-0.7c1.8-1.2,3.7-2.5,5.6-3.7c-1.6-1.8-5.3-4.7-5.7-6.9c-0.7-3.6-2.9-6.9-6.7-6.3c-0.5-2.4,8.1-7.2,0.6-8.4
			c2.4,0,7.8,1.2,10-0.2c2.5-1.6,4.9-6.9,6.5-9.5c-4.1-1.3-7.1-1.7-11.5-1.7c-3.1,0-11.1-1.4-6.5,3.6c-1.2,0-3.9-0.8-3.9,0.7
			c-0.1,2.1-0.8,4.7,0.1,6.4c1.3,2.4,1.3,3.4,1.4,6.3c0.1,3.1-0.2,3-2.8,4.6c1.3-0.1,2.5,0.3,2.1,2.1c-2.5-1-4-0.6-4.1,2.8
			c0,3.4-0.1,5.5,1.2,8.7c0.6,1.6,5.5,2.4,6.8,3c1.8,0.7,4.6-1.4,4.7,1.6c-2.6,0.2-5.3,0.8-4.9,4.6c1.2-0.6,2.4-1.2,3.6-1.7
			c0.2,1.4,0.9,2.6,0,3.6c-1.4,1.4-2.5,3.1-4.4,3.4c-4.6,0.7-3.2,4-2.1,7.8c-0.9-0.6-4.1-2.1-4.6-3c-0.3-0.9,1-4.3,1.4-5.5
			c-2.3-0.6-4.9-1.8-7.1-1.8c-3.7,0-3.8,1.6-4.8,4.9c-0.5,1.7-12.1,0.2-14.2-0.5c-2.5-0.9-4.9-1.8-7.6-2.4c-1.3-0.3-2.3-0.1-2.9-1.4
			c-0.5-0.9-1-3-1.9-3.6c-3.2-1.8-3.6-1.4-7-0.3c-3.3,1-4.8,0.7-5.7,4.4c4.3,0.1,7.2-1.2,11.2-2.9c1.9,2.9-6.4,3.1-7.6,5
			c-1.6,2.8-0.3,2.1,0.1,5c0.1,0.7-0.7,1.3-0.5,2.2c0.2,1.2,0.6,2.4,0.8,3.6c-1.9-2.8-3.7-5.6-5.6-8.4c-1.3-2.1-4.7-1.4-6.5-1.3
			c-4,0.3-8.1,0.6-12.2,0.9c-2.5,0.2-5-1-7.4-1.8c0.5-0.2,7.6-2.6,5.3-4.3c-3.1-2.2-5-3.8-8.6-3.9c0.1,0.3,0.2,0.8,0.3,1.2
			c-5.6-1.4-11.7-2.4-17.1-4.7c-2.6-1-6.3-3.8-9.2-3.4c-0.8,0.1-1.6,0.2-2.4,0.3c-0.8,0.1,0.1,1.8-0.2,2.2c-1,0.9-3.7,0.9-5.2,1.3
			c0.3-0.8,1.7-2.5,0.8-3c-2.2-1.3,0.6-2.1-0.9-3.7c-2.6,2.4-3.1,3.6-4.1,7.1c-3.6-3.3-6.8-6.8-10-10.7c-1.9,1.6,0.7,1.8-0.3,3
			c-1.3,1.4-2.5,3-3.8,4.4c-0.9-3.9-11.7,5.4-14.9,3.1c4.1-2.3,8.5-4.4,12.6-6.7c-1.7-2.8-13.2,4.3-15.8,5.5
			c-1.6,0.7-4.1-3.3-5.5-2.1c-0.8,0.8-5.9,6.9-6.7,6.5c-4.6-2.1-9-4.8-13.8-5.6c-7.2-1.3-14.6-2.6-21.8-3.8
			c-4.9-0.8-9.9-1.4-14.8-2.2c-3.2-0.5-13.1-0.1-14.2-3.2c-1.4-4-11-1.7-14.3-3.4c-3.8-2.1-3.6-1.9-7,0.8c-2.5,1.9-5,1.9-8,2.5
			c-4.7,0.8-9.6,2.9-13.2,6.1c-2.2,1.9-3.6,4.6-5.4,6.9c-1.4,2.2-5,1.4-7.2,1.6c-0.5,0-1.8-0.1-2.1,0.3c-0.2,0.7-1.6,3.7-1.3,4.3
			c0.6,1.4,6.7,3.1,8.1,3.8c2.2,0.9,2.1,4.4,4.1,5.2c2.6,0.9,4.9,1.3,7.8,1.6c-1.2,0.8-0.8,1.9,0.2,2.9c-0.5,0.1-0.8,0.3-1.2,0.5
			c1,0.5,2.2,0.8,3.1,1.3c-2.3,1.6-3.1,2.8-5.6,2.1c-3-0.8-5.9-0.2-5.7-4c-3.3,0.2-5,0.6-8,2.3c0.2,0.3,0.6,0.7,0.8,1
			c-3.8,0-6.3,1.7-9.8,3.4c2.3,3.6,5.4,3.9,7.8,4.8c-0.6,0.1-1.2,0.7-1.8,0.9c2.6,5.3,8.1,4.3,12.9,3.7c2.4-0.3,2.8,1.3,5.3,0
			c1.9-1,4.6-4,5.6-0.7c-0.7,0.5-1.6,0.8-2.4,1.3c1.8,1.9,3.2,2.4,2.3,4.9c-1.2,3.2-3.3,1.2-6,2.3c-2.6,1-3,3.4-6,3.1
			c-3.6-0.3-3.3,0.5-5.3,3.8c-0.9,1.7-2.6,3.2-2.2,5.3c0.5,2.4,0.7,6.4,1.9,8.5c1,1.9,4.3,3.6,6,4.9c0.6,0.5,5-2.8,6-3.2
			c0.6,3.4,1.2,6.9,1.8,10.3c1.7-0.7,3.3-1.4,5.2-2.3c1.4-0.6,3.6,1.9,4.8,2.8c3.3,2.5,6.9-0.5,10.1-2.3c0.9,1.6,0,2.1-0.9,3
			c-1.6,1.6-1.6,2.1-2.1,4.4c-0.5,2.8-5,4.3-4.1,6.8c-2.6-1.8-7.4,3.4-8.7,5.9c-1.8-3.2-7.9,2.6-9.9,3.8c-2.8,1.7-5.3,2.3-7.7,4.7
			c2.6,0.6,4.3,0.1,6.7-1.4c1-0.7,0.3-1.6,1.9-1.7c1.2-0.1,2.4-0.2,3.6-0.6c2.9-0.8,12.9-2.6,13.1-6c0.3-3.6,8-5.6,10.6-7.4
			c4.9-3.6,8.6-6.4,12.3-11.4c-1.2-0.3-2.5-0.6-3.7-0.9c2.5-4.6,4-7.8,8-10.8c4.6-3.4,6.8-4.6,12.2-5.6c-0.9,0.6-1.8,1.3-2.6,2.1
			c0.8,0.7,1.6,1.4,2.4,2.2c-3.3-0.1-4.9,0-7.9,1.7c-1.3,0.7-2.9,6.7-0.8,7.2c-1.3,0.3-2.1,1.3-1.4,2.8c2.6-0.9,14.8-4.1,13.9-7.4
			c-1-3.8,0.3-4.6,3.3-4.9c3.3-0.3,4.1,0.3,7.1,2.2c2.2,1.3,5,3.9,7.4,4.6c2.3,0.6,5.2-1.4,7.4-0.6c5.9,2.2,10.3,4,15.6,7.7
			c2.2,1.4,4.9,2.8,6.8,4.7c2.3,2.3,3.9,6,5.7,8.7c1.8,2.9,2.4,3.4,5.4,4.9c2.1,0.9,4.1,6.1,5.5,8.1c1.8,2.8,4.3-2.9,4.8-2.4
			c4.1,2.6,4.6,2.3,4,7.4c-0.5,5.6,7,8.4,9.2,13.3c1.9,4.4,2.5,4.6,6.7,6.3c2.5,1,5,1,7.4,2.8c2.8,1.9,4.8,3.6,7,6
			c3,3.2,2.8,3.8,2.6,8.5c-3.1-1.2-6.1-2.2-9.3-2.9c1.8,5.3,3.1,8.8,2.8,14.3c-0.2,5.7-0.6,11.5-0.8,17.2
			c-0.3,6.9-0.5,11.1,1.4,17.6c1.4,5,5.6,7.8,7.8,12.4c1.4,3.1,2.9,6.2,4.3,9.3c1.3,2.9,2.3,2.6,5.3,3.3c3.6,0.9,8.4,4.3,9.9,8
			c1.3,3.4,2.6,6.8,3.9,10.2c0.8,2.1,1.3,5.2,3.1,6.1c2.9,1.4,3.7,2.9,5.6,5.6c2.2,3.2-1.7,3.6-3.3,3.7c1.4,1.2,2.8,2.5,4.1,3.7
			c1.2,1,2.3,0.6,3.3,1.6c1,0.9,3.6,2.1,3.7,3.7c0.1,1-0.2,4.9,0.6,5.5c2.9,2.2,6.1,4,7.9,7.4c0.8,1.6,2.8,1,3-0.9
			c0.2-1.6-1.8-3.4-2.9-4.1c-0.9-0.7-2.3,1.6-2.4-1.6c-0.1-2.1-0.9-3.7-1.7-5.5c-0.6-1.8-1-3.6-2.4-4.8c-1.8-1.6-2.4-2.2-3.3-4.6
			c-1.7-4-3.9-6.5-6.7-9.8c-1.8-2.2-2.4-7.7-3.2-10.6c2.5,1.2,5,2.3,7.6,3.4c1.2,0.6,2.4,7.7,2.8,9.1c0.8,2.6,3,3.6,5,5.2
			c2.4,1.9,3.9,4,6,6.5c0.5,0.6,1.9,1.9,1.8,2.8c-0.1,0.8-0.9,2.5-0.2,3.1c2.8,2.5,5.4,5,8.1,7.6c1.7,1.6,2.6,2.9,3.9,4.8
			C353.3,407.7,357.4,411.9,356.7,414z M464.1,306.8c-2.8,2.2-4.9,3.6-8,4.7l0,0c-1.2,0.4-2.2,0.9-3.1,1.4c-0.9,0.5-1.9,0.9-2.9,1
			c-0.7,0.1-1.6,0.2-2.5,0.1c0.2-0.2,0.3-0.6,0.6-0.8c-0.5-0.1-0.9-0.2-1.3-0.3c-0.4-0.1-0.9-0.2-1.3-0.3l0,0l0,0
			c1-2.1,2.1-3.6,3.4-5.3l0,0l0,0c0.1,0.2,0.1,0.4,0.2,0.5c0.1,0.1,0.1,0.2,0.1,0.3s0.1,0.1,0.1,0.1c0.1,0,0.1,0.1,0.2,0.1
			c0.1,0.1,0.2,0.2,0.4,0.4l0,0l0,0c-1,0.3-2.2,1-2.4,2.4c1.8,0.8,2.6-0.5,3.9-1.6c1.9-1.8,2.2-1.9,4.7-1.8c1.7,0,7.2-1.3,7.2-3.1
			C464.4,305.3,464.2,305.8,464.1,306.8z M462.7,301.3c2.3-0.5,5.2-1.8,7.4-0.8c1.3,0.6,5-2.3,6.8-3c-0.1,0.1-0.2,0.2-0.3,0.2
			c0.1,0,0.2-0.1,0.3-0.1c-0.8,0.7-1.8,1.4-2.6,2.2c0.5,0.3,0.8,0.6,0.7,1.1c0.1,2-4.3,5.1-6.7,2.8c-1.6-1.6-7.3,1.9-7.2,0.3
			C461.1,303.6,461.6,302.7,462.7,301.3z M415.5,279.7c1.8-0.8,3.7-1.7,5.5-2.4c1.6-0.7,0.6-2.6,2.8-3.1c0,0.1-0.1,0.2-0.1,0.2
			c0.1,0,0.3-0.1,0.4-0.1c-0.1,0.3-0.2,0.6-0.4,0.8c0.6-0.7,0.7-1.9,1.7-2.3c0,0.2-0.1,0.3-0.1,0.5c0.1-0.1,0.3-0.3,0.4-0.4
			c0,0.6-0.1,1.1-0.3,1.6c0.9-0.7,1.6-1.4,0.3-2.5c0.7-0.1,1.3,0.1,1.9,0.3c0.8,0.2,1.7,0.7,2.5,1c0.8,0.1,1.9-0.8,2.8-0.4
			c0.3,0,0.6,0.2,0.9,0.7c1.3,2.1,1.9,3.6,3.2,4.1c0.6,0.1,1.4,0.1,2.5-0.1c0,0.1,0,0.1-0.1,0.2c0.1,0,0.3,0,0.4-0.1
			c-1,2.9,0.6,1.8,1.2,3.7c0.1,0.7-0.8,1.2-0.3,1.9c0.3,0.6,0.9,1.2,0.5,1.9c-0.1,0.3,0.8,0.8,2,1.3c1.6,0.5,3.3,1,3.8,1.2
			c2.8,0.6,6,0.6,8.6,1.2c0.2,0,0.4,0.1,0.6,0.2c2.9,0.9,2.8,4.9,4.8,6.6c-0.2-0.1-0.3-0.2-0.5-0.2l0.1,0.1
			c-0.2-0.1-0.3-0.2-0.4-0.2c-0.7,0-0.4,1.1-0.5,1.1c-0.3,0.1-0.7,0-1.1-0.1c-0.3-0.1-0.7-0.2-1-0.3c-0.6-0.1-1.3-0.2-1.8,0.2
			c-0.1-0.1-0.1-0.2-0.1-0.2c-0.1,0-0.1,0.1-0.2,0.1c-0.2-0.5-0.1-0.5-0.7-0.7c0.4-0.4,0.4-0.6,0.5-1c-0.1,0-0.2-0.1-0.3-0.1
			c-0.8-0.1-0.8-1.2-1.3-1.6c-0.2,0-0.5,0.1-0.8,0.2c3,1.4,0.9,3.7,0.2,5.7c-0.2,0.9,0.2,2.8-0.3,3.4c-0.9,0.9-1.9,2.1-2.9,3.1
			c0-0.1,0-0.3-0.1-0.4c-0.1,0.1-0.2,0.2-0.3,0.3c-0.2-1.1-0.3-4.9-1.6-5.6h-0.1c-0.6,0-3.4,2.5-4,1.8c-0.2,0-0.4-0.1-0.5-0.3
			c-0.2-0.7,1.6-2.5,1.8-2.8c1.3-0.9,0.9-3.1,0.2-4.4c0.3,0,0.3,0,0.7,0.1c-0.5-2.3-2.4-1.7-3.6-3.1c-0.3-0.3-0.8-0.6-1.3-0.7
			c-1.3-0.3-2.7,0-1.4,1.7c-2.3,0.1-1.8,2.3-2.9,3.4c0-0.2,0-0.5,0.1-0.7c-0.1,0.2-0.2,0.4-0.4,0.6c0.1-0.4,0.1-0.9,0.1-1.3
			c-1.2,2-3.5,2.9-2.9,6.5c0.7,3.7,1.3,6.2-0.5,9.8c-1.1,2.4-2.2,2.9-2.9,2.4c-1.7-0.4-2.7-5.5-2.8-8c-0.1-2.2,0.9-4.6,1.4-6.7
			c0.4-1.4,1.7-3.5,1.7-5c-1.2,1.1-2,3.7-3.5,3.4v-0.1c-0.1,0-0.2,0-0.4,0c0.3-1.9,2.8-5.7,4.1-7.1c0,0.1,0,0.3,0,0.4
			c0.1-0.1,0.2-0.2,0.3-0.3c0,0.2,0,0.5,0.1,0.7c0.4-0.3,0.8-0.4,1.2-0.7c-0.1,0.2-0.2,0.3-0.3,0.4c0.2-0.1,0.4-0.2,0.7-0.3
			c-0.1,0.3-0.3,0.6-0.6,0.9l0.1,0.1c1.2-1.9,4-3,6.1-2.2c0.5,0.1,0.9,0.4,1.3,0.8c0.6-1.4,2-0.6,3.4-0.4c-0.8-0.7-1.2-2.3-2.1-2.6
			c-0.1,0-0.2-0.1-0.3-0.1c-0.4-0.1-0.9-0.2-1.2-0.3c-0.6-0.1-1-0.4-0.8-1.2c-1.7,0.5-6.4,2.1-7,1.8c-0.1,0-0.2-0.1-0.2-0.1H431
			c-0.1-0.1-0.2-0.1-0.4-0.2c-0.5-0.2-1-0.2-1.6-0.4c-0.4-0.1-0.9-0.3-1.3-0.9c-0.3-0.4-0.6-0.7-1-0.8c-0.7-0.2-1.4,0-2.3,0.5
			c0-0.1,0.1-0.2,0.1-0.4c-0.2,0.1-0.3,0.2-0.5,0.2c0.5-1.6,1.8-3,3.1-3.3c-0.1-0.1-0.3-0.2-0.5-0.3c-3.1-0.6-8.1,5.7-11.8,4.2
			c-0.2-0.1-0.4-0.1-0.6-0.2c0.1-0.3,0.2-0.5,0.3-0.8c-1.3,0.5-2.7,1.2-3.7,0.8c-0.4,0-0.8-0.1-1.2-0.3
			C412.2,283,413.9,281.4,415.5,279.7z M381.9,244.1c0.5-2.1,2.8-1.1,4.3-0.4c-0.7-0.5-1-1-1-1.6c-0.1-0.6,0.2-1.4,0.9-2.6
			c0.1,0.1,0.8,0.6,0.9,0.7c0,0,0,0-0.1,0l0.1,0.1c-0.8,0.3-1.3,0.9-1.7,1.8c0.8-0.1,0.9,0,1.6-0.7l0.5,0.1l-0.1,0.1h0.1
			c-0.3,0.2-0.4,0.6-0.4,1.2c0.1,2.8,2.9,8.9,3.5,10.7c0.5,1.2,1.2,3.6,2.3,4.6c0.4,0.3,0.5,0.8,0.4,1.3c0,0.5-0.1,1.1-0.2,1.8
			c0,0.4,0.1,0.7,0.2,1.1l0,0v0.1c-0.3-0.1-0.7-0.1-1-0.3v0.1c0,1-1.1,2.9-1.6,1.2c0-0.2-0.1-0.3-0.1-0.5c-0.4-1.6-0.1-3.2,1-4.2
			c-0.3,0.2-0.7,0.2-1.1,0.6c0,0,0-0.1,0.1-0.2c0,0,0,0-0.1,0.1c0.2-0.5,0.8-1.6,0.9-2.3c0-0.2,0-0.3-0.2-0.4
			c-0.8-0.5-1.6,0.3-1.9,1c0-0.1,0-0.1,0-0.2c0,0,0,0,0,0.1c0.1-0.8,0.3-1.8,0.1-2.5c-0.1-0.4-0.4-0.7-0.8-0.9
			c0,0.1-0.1,0.2-0.1,0.2c0,0.1-0.1,0.2-0.2,0.2c-0.1,0.1-0.1,0.1-0.2,0.2v-0.1l0,0c0.1-0.4,0.1-0.7,0.2-1.1c-0.9,0.4-0.8-0.2-1,1.4
			c-0.5-0.1-0.8-0.3-1.2-0.6c-0.6-1.1-2.8-3.5-2.8-5c-0.1-0.6,0.2-1.1,1-1.3c-1.9-0.4-2.7-0.3-2.8-1.3
			C381.4,246.1,381.6,245.2,381.9,244.1z M305.7,160.6c-0.5,1-1.7,0.2-1.8,1.8c0.5,0,1,0,1.6-0.1c0,0,0,0.1-0.1,0.1c0,0,0,0,0.1,0
			c-1.1,2.9-6.2-0.9-8.9,1.6c1,0.3,1.9,0.9,2.3,2c0,0,0,0-0.1,0c0,0,0,0.1,0.1,0.1c-1.3-0.4-2.6,0.4-3.8,1.4c-0.6,0.5-1.1,1-1.7,1.4
			c-1,0.7-2,1.1-2.9,0.3h0.1c0,0-0.1,0-0.1-0.1c0.5-0.3,1.6-0.3,2.1-0.7c0.5-0.3,0.7-1.3,1.7-2.1c0.6-0.4,0.9-0.7,0.9-1
			c-0.1-0.8-2.2-1.1-3.4-0.2c-1,0.8-2.8,3.9-3.9,3.3c-1.8-0.8-3.7,0.1-5.4-1.2h0.1l-0.1-0.1c0.9-0.2,2.9-0.4,2.8-1.4
			c0-0.2-0.2-0.5-0.4-0.8c0,0,0,0,0.1,0c0,0,0,0-0.1-0.1c0.7-0.5,1.7-1.1,2.7-1.4c-0.5-0.8-1.2-1.3-2.1-2h0.1l-0.1-0.1
			c1.9-0.5,4.9,1.1,6.1-0.7c-2.4-1.6-4.7-1.9-7.2-1.4c0.2,0.2,0.2,0.3,0.3,0.7h-0.1c0,0,0,0.1,0.1,0.1c-1.7-0.5-5.4-0.5-7,0.1
			c0.1,0.2,0.2,0.4,0.3,0.6l0,0v0.1c-0.1,0-0.8,0.5-1,0.7c-0.9-0.6-1.3-1.1-1.3-1.4c-0.1-1,3-1.2,3.9-1.6c2.3-0.7,4.7-1,7-1.9
			c2.2-0.7,4.3-1.4,6.4-2.3c3.4-1.3,4.3-1,7.8,0.2c0,0-0.1,0-0.1,0.1c0.1,0,0.1,0,0.1,0.1c-1.7,0.7-4.6,1.3-5.3,3.2
			c2.4,1,3.4,0.9,5.9,0.4c1.9-0.2,3.2-2.6,5.2-2.4l-0.1,0.1h0.1c-0.4,0.3-0.8,0.8-1.2,1.2c0.5,0.1,1,0.4,1.6,0.4v0.1l0,0
			C306.4,159,306.1,159.8,305.7,160.6z M341.6,184.3c-0.5,0.5-0.8,1.2-1.4,1.6c-0.5-3.5-8.5-1.8-9.6,1.2c2.5-1.6,4.9-3.4,7.4-2.5
			c-0.2,0-0.4,0-0.6-0.1c0.2,0,0.4,0.1,0.6,0.2c-0.7-0.1-1.3,0-2.1-0.1c0.7,0.4,1.6,0.4,2.4,0.4c-0.2,0.1-0.4,0.1-0.7,0.2
			c0.2,0,0.4,0,0.7,0c-0.8,0.2-1.9,0.4-2.7,0.6c0.8,0.2,1,0.4,2.1-0.1c-0.1,0.1-0.2,0.1-0.2,0.2c0.1,0,0.1-0.1,0.2-0.1
			c-1.2,1.3-2.2,0.7-3.6,1c-1.6,0.3-2.4,1.1-3.7,2.4c0.3,0,0.5,0,0.8-0.1l-0.1,0.1h0.1c-1,0.9-2.4,2.8-3.7,3.3
			c-2.2,1-3.4,0.5-5.5,2.3c0,0.1,0.1,0.2,0.1,0.4c0.2,1.9-5.7,2.7-7.2,2.5c-2.6-0.3-7-0.8-8.7-3.2h0.1l-0.1-0.1
			c1.3-0.1,2.4,0.6,3.6,0.6c0-0.2-0.1-0.3-0.1-0.5l0,0c0-0.1,0-0.2,0-0.2c1.2,0.1,2.5,1,3.5,0.2c-0.1-0.1-0.1-0.2-0.2-0.2l0,0
			c-0.1-0.1-0.2-0.2-0.3-0.2h0.1l-0.1-0.1c1.4-0.3,0.9-0.7,1.7-1.9c0.7-1,1.7-0.2,2.6-0.5c0.7-0.2,1-0.4,1-0.7
			c-0.1-0.9-2.4-2.2-2.3-3.7c0-0.1,0-0.3,0.1-0.4c-0.5,0.1-3.2-1.1-3.4-1.9c-0.1-0.1-0.1-0.2,0.1-0.3c0.3-0.3,3.2,0.8,3.4,1.3
			c0.8,1.6,3.8,0.8,4,1.4c0.8,2.3,3.7,2.4,5.5,2.2c1.8-0.2,2.5-0.6,3.9-2.1c0.7-0.8,1.4-2.3,2.4-3.1c2.6-2.2,6.9-1.3,9.6-0.1
			C341.6,184.2,341.6,184.2,341.6,184.3C341.6,184.2,341.6,184.3,341.6,184.3z"/>
		<path class="st2" d="M451.6,309.7c1.9-1.8,2.3-1.8,4.7-1.8C453.8,307.7,453.5,307.9,451.6,309.7z"/>
		<path class="st2" d="M447.7,314.1c0.9,0.1,1.8,0,2.5-0.1C449.4,314.1,448.6,314.1,447.7,314.1z"/>
		<path class="st2" d="M449.4,308.1c0,0.1,0.1,0.1,0.1,0.1L449.4,308.1z"/>
		<path class="st2" d="M453,312.9c0.9-0.5,1.9-1,3.1-1.4l0,0l0,0C454.9,311.9,454,312.5,453,312.9z"/>
		<path class="st2" d="M447.7,311.2c0.2-1.3,1.3-2.1,2.4-2.4l0,0C448.9,309.1,447.9,309.8,447.7,311.2z"/>
		<path class="st2" d="M451.6,309.7c-1.3,1-2.2,2.4-3.9,1.6C449.5,312,450.3,310.8,451.6,309.7z"/>
		<path class="st2" d="M463.5,304.8c0,1.8-5.6,3.1-7.2,3.1C457.9,308,463.5,306.6,463.5,304.8z"/>
		<path class="st2" d="M448.9,307.3L448.9,307.3c0.1,0.2,0.1,0.4,0.2,0.5C449.1,307.7,449,307.5,448.9,307.3z"/>
		<path class="st2" d="M453,312.9c-0.9,0.5-1.9,0.9-2.9,1C451.2,313.8,452,313.4,453,312.9z"/>
		<path class="st2" d="M445.5,312.6c0.5,0.1,0.9,0.2,1.3,0.3C446.5,312.8,446,312.7,445.5,312.6L445.5,312.6z"/>
		<path class="st2" d="M295.3,158L295.3,158c0.8-2,3.7-2.5,5.4-3.2c-0.1,0-0.1,0-0.1-0.1C298.9,155.4,295.9,156.2,295.3,158z"/>
		<path class="st2" d="M305.1,157.4h0.1c0.4-0.3,0.7-0.9,1.2-1.2h-0.1C305.9,156.6,305.6,157.1,305.1,157.4z"/>
		<path class="st2" d="M275.5,160.1c0,0.4,0.3,0.8,1.3,1.4c0.2-0.2,0.9-0.7,1-0.7v-0.1c-0.2,0.1-0.7,0.5-1,0.7
			C275.9,160.9,275.6,160.5,275.5,160.1z"/>
		<path class="st2" d="M277.6,160c0,0,0,0.1,0.1,0.1c1.6-0.6,5.4-0.6,7-0.1c0-0.1-0.1-0.1-0.1-0.1
			C282.9,159.5,279.1,159.5,277.6,160z"/>
		<path class="st2" d="M284.2,159.1c0,0,0,0.1,0.1,0.1c2.6-0.4,5-0.1,7.2,1.4c0,0,0-0.1,0.1-0.1
			C289.2,159.1,286.9,158.8,284.2,159.1z"/>
		<path class="st2" d="M306.7,158c-0.3,0.8-0.7,1.6-1,2.5c-0.5,1-1.7,0.1-1.8,1.9l0,0c0.2-1.7,1.3-0.7,1.8-1.8
			C306.1,159.8,306.4,159,306.7,158L306.7,158z"/>
		<path class="st2" d="M296.5,164C296.6,164,296.6,164,296.5,164c2.8-2.5,7.8,1.3,9-1.6c0,0,0,0-0.1,0
			C304.1,165.2,299.1,161.2,296.5,164z"/>
		<path class="st2" d="M295.1,167.7c1.1-1,2.5-2,3.8-1.4c0,0,0-0.1-0.1-0.1C297.5,165.7,296.3,166.6,295.1,167.7z"/>
		<path class="st2" d="M285.5,161.4h-0.1c0.8,0.6,1.6,1.1,2.1,2c0,0,0,0,0.1,0C287.1,162.6,286.3,162,285.5,161.4z"/>
		<path class="st2" d="M290.7,169.3C290.6,169.3,290.6,169.3,290.7,169.3c0.8,0.9,1.8,0.5,2.8-0.2
			C292.4,169.7,291.5,170,290.7,169.3z"/>
		<path class="st2" d="M291.7,165.1c-1,0.7-2.8,3.8-3.9,3.3c-1.8-0.8-3.6,0-5.2-1.1h-0.1c1.7,1.3,3.6,0.3,5.4,1.2
			c1.2,0.6,2.9-2.5,3.9-3.3c1.3-0.8,3.4-0.6,3.4,0.2C295.3,164.4,293.1,164.1,291.7,165.1z"/>
		<path class="st2" d="M284.9,164.9C284.9,165,284.8,165,284.9,164.9c0.2,0.4,0.3,0.6,0.4,0.9C285.3,165.6,285.1,165.3,284.9,164.9z
			"/>
		<path class="st2" d="M384.2,247.9c0.1,0,0.1,0,0.2-0.1c-2-0.4-2.9-0.2-3-1.3C381.5,247.6,382.4,247.5,384.2,247.9z"/>
		<path class="st2" d="M385.2,242c0,0.6,0.3,1,1,1.6c0.2,0.1,0.3,0.2,0.4,0.2C385.7,243.2,385.3,242.6,385.2,242z"/>
		<path class="st2" d="M392.2,262.1c0.3,0.2,0.7,0.2,1,0.3v-0.1c-0.3-0.2-0.7-0.2-1-0.3C392.2,262,392.2,262,392.2,262.1z"/>
		<path class="st2" d="M393.1,261.2c0-0.6,0.2-1.2,0.2-1.8C393.2,259.9,393.1,260.5,393.1,261.2z"/>
		<path class="st2" d="M387,242.7c0-0.6,0.1-1,0.4-1.2h-0.1C387.1,241.7,387,242.2,387,242.7z"/>
		<path class="st2" d="M391.1,256.3c-0.8-0.4-1.6,0.3-1.9,1c0,0.1,0,0.1,0,0.2c0.3-0.7,1-1.6,1.9-1c0.1,0.1,0.2,0.2,0.2,0.4
			C391.3,256.6,391.2,256.4,391.1,256.3z"/>
		<path class="st2" d="M390.6,263.2c0-0.1-0.1-0.3-0.1-0.4c0,0.2,0.1,0.3,0.1,0.5c0.4,1.8,1.6-0.2,1.6-1.2
			C392.2,263.2,391.2,264.8,390.6,263.2z"/>
		<path class="st2" d="M388.5,253.9c0,0.2-0.1,0.3-0.1,0.3c0-0.1,0.1-0.1,0.1-0.2c0.5,0.2,0.7,0.5,0.8,0.9
			C389.3,254.5,389.1,254.1,388.5,253.9z"/>
		<path class="st2" d="M388,254.7c0.1-0.1,0.1-0.2,0.2-0.2c0,0-0.1,0.1-0.2,0.1C388,254.6,388,254.7,388,254.7z"/>
		<path class="st2" d="M387.2,254.7c-0.3-0.2-0.7-0.5-1.2-0.6c-0.6-1.1-2.7-3.4-2.8-4.9c0.1,1.6,2.3,3.8,2.8,5
			c0.3,0.2,0.7,0.5,1.2,0.6c0.2-1.7,0.1-0.9,1-1.4v-0.1C387.2,253.9,387.4,253.1,387.2,254.7z"/>
		<path class="st2" d="M390.5,259c0,0.1-0.1,0.1-0.1,0.2c0.4-0.3,0.8-0.4,1.1-0.6c0.1-0.1,0.3-0.2,0.4-0.3
			C391.6,258.5,391,258.5,390.5,259z"/>
		<path class="st2" d="M385.4,242L385.4,242c0.3-0.9,0.8-1.4,1.7-1.8c0,0-0.1,0-0.1-0.1C386.2,240.5,385.6,241.1,385.4,242z"/>
		<path class="st2" d="M423.8,275.2c0.1-0.3,0.2-0.6,0.4-0.8c-0.2,0-0.3,0.1-0.4,0.1c-0.2,0.4-0.3,0.9-0.5,1.1
			C423.5,275.5,423.6,275.4,423.8,275.2z"/>
		<path class="st2" d="M455,294.7c0.1,0.1,0.2,0.1,0.3,0.1v-0.1C455.3,294.7,455.1,294.7,455,294.7z"/>
		<path class="st2" d="M452.5,293.2c3,1.4,0.8,3.7,0.2,5.7c-0.3,0.9,0.2,2.9-0.3,3.4c-0.8,0.9-1.8,1.9-2.6,2.8c0,0.2,0,0.3,0.1,0.4
			c0.9-1,1.9-2.2,2.9-3.1c0.6-0.7,0.1-2.5,0.3-3.4c0.7-2.1,2.8-4.3-0.2-5.7c0.4-0.2,0.6-0.2,0.8-0.2
			C453.4,292.9,453.1,292.9,452.5,293.2z"/>
		<path class="st2" d="M443.8,301.6c0.7,0.6,3.4-1.8,4-1.8h0.1c-0.1-0.1-0.3-0.1-0.5-0.1C446.9,299.7,444.7,301.6,443.8,301.6z"/>
		<path class="st2" d="M440.9,281.5c0.2,0.7-0.8,1.2-0.3,1.9c0.5,0.6,0.9,1.2,0.5,1.9c-0.2,0.3,0.9,0.9,2.4,1.4
			c-1.2-0.4-2.2-0.9-2-1.3c0.5-0.7-0.1-1.3-0.5-1.9c-0.5-0.7,0.5-1.2,0.3-1.9c-0.6-1.9-2.3-0.8-1.2-3.7c-0.1,0-0.3,0-0.4,0.1
			C438.8,280.6,440.3,279.7,440.9,281.5z"/>
		<path class="st2" d="M425.5,274.6c0.2-0.4,0.3-0.9,0.3-1.6c-0.2,0.1-0.3,0.2-0.4,0.4c-0.1,0.6-0.3,1-0.6,1.7
			C425,274.9,425.3,274.7,425.5,274.6z"/>
		<path class="st2" d="M433.6,273.7c1.4,2.4,1.9,3.9,3.6,4.2c-1.4-0.5-1.9-2.1-3.2-4.1c-0.3-0.4-0.6-0.6-0.9-0.7
			C433.2,273.2,433.4,273.4,433.6,273.7z"/>
		<path class="st2" d="M431.2,286.1c-0.6-0.2-1-0.2-1.6-0.4C430.1,286,430.6,286,431.2,286.1z"/>
		<path class="st2" d="M460.7,295.7c0.1,0.1,0.3,0.1,0.5,0.2c-2-1.8-1.9-5.7-4.8-6.6C459,290.4,458.9,293.9,460.7,295.7z"/>
		<path class="st2" d="M455.8,296.4c0,0.1,0.1,0.1,0.1,0.2c0.4-0.4,1-0.4,1.8-0.2C457,296.2,456.3,296.1,455.8,296.4z"/>
		<path class="st2" d="M459.5,296.6c-0.2,0.1-0.5,0.1-0.8,0c0.4,0.1,0.8,0.2,1.1,0.1c0.1,0-0.3-1.2,0.5-1.1
			C459.1,295.2,459.6,296.6,459.5,296.6z"/>
		<path class="st2" d="M430.2,273.5c-0.8-0.4-1.7-0.8-2.5-1c0.7,0.3,1.4,0.7,2.3,1C430.1,273.5,430.2,273.5,430.2,273.5z"/>
		<path class="st2" d="M425.2,284.1c0,0.1-0.1,0.2-0.1,0.4c0.8-0.5,1.6-0.6,2.3-0.5C426.7,283.7,426,283.8,425.2,284.1z"/>
		<path class="st2" d="M439.3,292c-1.9,0.2-1.9,1.7-2.5,2.8c0,0.2,0,0.5-0.1,0.7c1-1.2,0.6-3.3,2.9-3.4c-1.2-1.7,0.1-2,1.4-1.7
			C439.6,290,438,290.2,439.3,292z"/>
		<path class="st2" d="M431.7,286.3c0.1,0,0.1,0.1,0.2,0.1c0.5,0.3,5.4-1.3,7-1.8c0-0.1,0-0.1,0-0.2
			C438.1,284.5,432.7,286.3,431.7,286.3z"/>
		<path class="st2" d="M441,286.2c-0.4-0.2-0.8-0.2-1.2-0.3C440,286,440.6,286.1,441,286.2z"/>
		<path class="st2" d="M411.5,284.7c1.1,0.4,2.4-0.4,3.7-0.8c0-0.1,0.1-0.2,0.1-0.3C414.1,284.1,412.7,284.8,411.5,284.7z"/>
		<path class="st2" d="M415.5,284.9c3.7,1.4,8.7-4.9,11.8-4.2C424.2,279.5,419.3,286,415.5,284.9z"/>
		<path class="st2" d="M432.3,290.8l0.1-0.1l-0.1-0.1c0.2-0.3,0.5-0.6,0.6-0.9c-0.2,0.1-0.4,0.2-0.7,0.3c-0.1,0.2-0.2,0.3-0.3,0.5
			L432.3,290.8z"/>
		<path class="st2" d="M431.3,290.2c0-0.2-0.1-0.5-0.1-0.7c-0.1,0.1-0.2,0.2-0.3,0.3c0,0.2,0.1,0.4,0.1,0.6
			C431,290.3,431.2,290.3,431.3,290.2z"/>
		<path class="st2" d="M433.2,300.5c0.7,3.7,1.3,6.1-0.5,9.8c-1,2.1-1.9,2.7-2.6,2.6c0.8,0.4,1.8-0.1,2.9-2.4
			c1.8-3.6,1.2-6.1,0.5-9.8c-0.6-3.6,1.7-4.6,2.9-6.5c0-0.3,0-0.6,0.1-0.8C435.4,295.7,432.4,296.3,433.2,300.5z"/>
		<path class="st2" d="M427,296.5v0.1c1.6,0.3,2.3-2.4,3.5-3.4c0-0.1,0-0.3,0-0.4C429.3,293.6,428.5,296.4,427,296.5z"/>
		<path class="st2" d="M439.8,289.5c0-0.1,0-0.1,0.1-0.2c-0.4-0.4-0.9-0.6-1.3-0.8C439,288.8,439.4,289.1,439.8,289.5z"/>
		<path class="st2" d="M335.7,185.9c0.9-0.2,1.9-0.4,2.7-0.6c-0.2,0-0.4,0-0.7,0c-0.8,0.2-1.6,0.4-2.3,0.5
			C335.5,185.9,335.6,185.9,335.7,185.9z"/>
		<path class="st2" d="M340.1,185.6c-0.5-3.6-8.8-1.7-9.6,1.4c0,0,0,0,0.1,0c1-3,9.1-4.8,9.6-1.2c0.6-0.3,0.9-1,1.4-1.6h-0.1
			C341.1,184.7,340.6,185.3,340.1,185.6z"/>
		<path class="st2" d="M335.9,184.5c0,0,0.1,0.1,0.2,0.1c0.6,0.1,1.2,0,2.1,0.1c-0.2-0.1-0.4-0.1-0.6-0.2c-0.4,0-0.9,0-1.3,0
			C336,184.5,335.9,184.5,335.9,184.5z"/>
		<path class="st2" d="M330.3,189.4h0.1c1.3-1.2,2.2-2.1,3.7-2.4c1.4-0.3,2.4,0.2,3.6-1c-0.1,0-0.2,0.1-0.2,0.1
			c-1.1,1-2,0.5-3.3,0.8C332.4,187.4,331.5,188.1,330.3,189.4z"/>
		<path class="st2" d="M314.9,197.8c-2.7-0.5-6.8-0.9-8.6-3.1h-0.1c1.7,2.4,6.1,2.9,8.7,3.2c1.6,0.2,7.4-0.6,7.2-2.5
			C322.1,197.1,316.4,198,314.9,197.8z"/>
		<path class="st2" d="M312.8,194C312.8,194,312.7,194,312.8,194c0,0.1,0.1,0.2,0.2,0.2C312.9,194.2,312.9,194.1,312.8,194z"/>
		<path class="st2" d="M315.8,187.1c-0.2,1.6,2.1,2.9,2.3,3.7C318.1,190,315.8,188.6,315.8,187.1z"/>
		<path class="st2" d="M327.5,192.6c-2.3,1-3.4,0.5-5.5,2.3v0.1c2-1.8,3.3-1.1,5.5-2.3c1.3-0.6,2.6-2.4,3.7-3.3h-0.1
			C330,190.4,328.6,192.1,327.5,192.6z"/>
		<path class="st2" d="M312.5,184.8c0.1,0.7,2.9,1.9,3.4,1.9v-0.1C315.4,186.7,312.9,185.5,312.5,184.8z"/>
		<path class="st2" d="M313.1,194.3c0.1,0.1,0.1,0.2,0.2,0.2c0,0,0,0,0.1,0C313.2,194.4,313.1,194.3,313.1,194.3z"/>
		<path class="st2" d="M309.8,194.6C309.8,194.6,309.7,194.6,309.8,194.6c0,0.2,0,0.3,0,0.5l0,0C309.8,195,309.8,194.9,309.8,194.6z
			"/>
		<path class="st2" d="M470.1,300.6c1.2,0.5,4.7-2,6.5-2.9c0.1-0.1,0.2-0.2,0.3-0.2c-1.8,0.7-5.5,3.6-6.8,3
			c-2.3-0.9-5.2,0.3-7.4,0.8c-1.1,1.4-1.6,2.3-1.6,2.7c0-0.4,0.4-1.2,1.6-2.6C465.1,301,468,299.5,470.1,300.6z"/>
		<path class="st2" d="M475.1,300.9c0-0.4-0.2-0.8-0.7-1.1c0,0-0.1,0-0.1,0.1C474.8,300.2,475.1,300.5,475.1,300.9z"/>
		<path class="st2" d="M466.6,428.7c1.7,1.2,2.8,1.9,4.7,2.5c0.9,0.2,2.1-1.3,3.8-0.7c-0.3-0.5-0.6-1-0.9-1.6
			C472,428.3,468.3,426.2,466.6,428.7z"/>
		<path class="st2" d="M524.7,283.2c-2.1,3.7,1.4,4.3,3.9,5.4c2.5,1.2,3.1-0.2,4.9-2.2c-2.5-0.2-5.2-0.3-7.7-0.6
			C525.4,284.9,525,284,524.7,283.2z"/>
		<path class="st2" d="M512.2,429.5c0.9,2.4,5,0.5,6-0.9c-0.2-0.2-0.5-0.5-0.6-0.7C515.8,427.8,510.9,426.2,512.2,429.5z"/>
		<path class="st2" d="M248.7,242.5c0.2-2.3-5.5-1.4-5.6-0.9c-0.2,3,6.2,14,8.4,11.4c-0.6-0.6-1.3-1.2-1.9-1.8
			C248.9,248,248.3,245.7,248.7,242.5z"/>
		<path class="st2" d="M158.2,219.4c-3.7-2.3-4.1,5.5-0.3,5.3c1-0.1,1.9-1.9,3.3-2.2c1.3-0.1,2.3-0.8,2.3-2.4
			c0.9,0.5,1.7,0.1,2.1-0.9c-0.3-0.1-0.7-0.1-1-0.2C165.1,216.5,157.8,216.2,158.2,219.4z"/>
		<path class="st2" d="M161.2,216.3c1.3,0.9,3.1-0.5,3.7-1.3c0.2,0.2,0.5,0.5,0.6,0.6c0.2-0.3,0.5-0.6,0.7-0.9
			c-0.8-0.3-1.8-0.7-2.6-1C162.5,214.1,161.5,214.9,161.2,216.3z"/>
		<path class="st2" d="M110.2,201.5c-2.8-1-4.1,0.9-7,0.6c1.2,1.9,3.1,2.3,5,2.9c0.3-1,1.4-0.7,2.5-0.8c0-0.2,0-0.5-0.1-0.7
			C110.4,202.5,109.6,202.6,110.2,201.5z"/>
		<path class="st2" d="M444.2,289.2c0.6,0.4,1.3,0.5,2,0.5c0-0.2,0-0.3,0-0.6c-0.5-0.1-0.7-0.3-1.2-0.6
			C444.7,288.8,444.4,289,444.2,289.2z"/>
		<path class="st2" d="M444.2,289.2c0.2-0.2,0.5-0.4,0.7-0.6c0.5,0.2,0.7,0.5,1.2,0.6c-0.3-0.2-0.7-0.3-1.2-0.7
			C444.7,288.7,444.3,288.9,444.2,289.2C444.1,289.2,444.2,289.2,444.2,289.2z"/>
		<path class="st2" d="M443.9,288.7c0.1-0.3,0.1-0.6,0.3-0.8c-0.3-0.2-0.5-0.3-0.7-0.3s-0.3,0.2-0.5,0.3
			C443.3,288,443.7,288.3,443.9,288.7z"/>
		<path class="st2" d="M443.5,287.5c0.2,0,0.4,0.1,0.7,0.3C443.9,287.6,443.7,287.5,443.5,287.5z"/>
		<path class="st2" d="M443.9,288.7c-0.2-0.3-0.6-0.6-0.8-0.8C443.3,288.2,443.7,288.5,443.9,288.7z"/>
		<path class="st2" d="M447.7,290c1,0.4,2.5,1.2,3.6,1.3c0.4,0,0.7-0.1,1-0.3c0,0,0,0-0.1,0.1c0.1,0,0.1,0,0.2-0.1
			c-0.2,0.2-0.3,0.3-0.6,0.6l0.3,0.2c0.6-0.7,1-1.1,0.7-2c-0.1,0.1-0.3,0.3-0.4,0.5v-0.1l-0.1,0.1c-0.3-0.8-0.8-1.1-1.4-1.2
			c-0.3,0-0.7,0.1-1,0.2c-0.4,0.1-0.6,0.2-0.9,0.1c-0.4,0-0.8-0.2-1.2-0.2c-0.3,0-0.7,0.1-1.2,0.4C447,289.8,447.3,289.8,447.7,290z
			"/>
		<path class="st2" d="M452.5,291c-0.1,0-0.1,0-0.2,0.1c-0.1,0.2-0.3,0.3-0.5,0.5l0.3,0.2l0,0l-0.3-0.2
			C452,291.4,452.3,291.3,452.5,291z"/>
		<path class="st2" d="M452.9,289.8C452.9,289.8,452.8,289.8,452.9,289.8c-0.1,0.1-0.3,0.2-0.4,0.4v0.1
			C452.6,290.1,452.7,289.9,452.9,289.8z"/>
		<path class="st2" d="M449.9,289.4c0.4-0.2,0.7-0.2,1-0.2c-0.4,0-0.8,0.1-1.2,0.2c-0.3,0.1-0.6,0.2-0.8,0.1
			C449.1,289.6,449.5,289.5,449.9,289.4z"/>
		<path class="st2" d="M451.3,291.4c-1.1-0.1-2.6-0.9-3.6-1.3c-0.3-0.1-0.7-0.1-1.2-0.2c0.5-0.4,0.8-0.4,1.2-0.4
			c-0.4,0-0.7,0-1.3,0.4c0.3,0.1,0.7,0.1,1.2,0.2C448.6,290.4,450.1,291.3,451.3,291.4z"/>
		<path class="st2" d="M281,271.4c-0.5-0.9-2.2-1.2-3-1.4c-1.3-0.3-1.4-1.3-2.2-2.6c-2.2-3.8-2.8-3-6.5-4.3c-3-1-4-2.4-7.1-1.4
			c5,6.2,10.3,9.6,17.1,13.3C283.7,276.5,283.1,274.9,281,271.4z"/>
		<path class="st2" d="M489.3,429.2c0.9,0.1,2.5-0.3,3.3,0c0.6,0.3,0.3,3.2,2.1,2.6c0.7-0.2,0.7-3,1.4-3.4c1.2-0.8,1.6,0.3,2.1,0.3
			c2.2-0.1,3.7-0.8,6.2-0.8c1.8,0,1.4,1.7,2.8-0.5c0.5-0.8-1.4-2.1-2.3-2.2c-2.1-0.5-2.2-0.5-3.2-2.4c-0.7-1.4-0.8-0.5-2.2-0.9
			c-0.9-0.3-2.6-1.4-3.6-0.8c-0.3,0.2-2.3,0.7-2.6,0.7c-3,0-3.8-0.9-6.7,0.3c3,1.4,2.6,2.4,4.6,5.2c-1.8,1.3-9.3-1.8-8.5,0.9
			C485,430.2,486.1,428.7,489.3,429.2z"/>
		<path class="st2" d="M275.1,113.9c2.5,1.2,4.6,2.1,6.4,4.3c3.1,3.4,2.6,3.4,6.5,1.2c0.6-0.3,1.2-0.7,1.8-1
			c0.6-0.3,0.3,0.9,0.8,0.8c1.3-0.3,2.6-1.2,3.8-1.7l1-5.6c1.8,1.2,3.7-0.3,4.1-2.3c0.5-1.7,1.3-1.7,2.8-2.3
			c3.2-1.4,8.5-2.5,11.2-4.9c1.8-1.6,1.6-2.4-0.3-3.8c-1.4-0.9-2.8-2.3-4.3-2.9c-3.2-1.3-6.5-2.6-9.3,0.5c0.2-0.5,0.1-1,0.3-1.6
			c-3.7,1-6.9-3.2-10.3-2.8c-4,0.6-8.3,1.2-12.3,1.8c0.7,1.3,3.7,5.4,3.1,6c-1.3,1.3-4.7,4.4-2.6,6.2c-3.6,0.3-0.9,1.7-2.3,3.4
			c-1.2,1.4-3,3-2.5,5.2C273.6,114.1,274.4,114.1,275.1,113.9z"/>
	</g>
</g>
</svg>
