<?xml version="1.0" encoding="utf-8"?>
<!-- Generator: Adobe Illustrator 20.0.0, SVG Export Plug-In . SVG Version: 6.00 Build 0)  -->
<svg version="1.1" id="Vrstva_1" xmlns="http://www.w3.org/2000/svg" xmlns:xlink="http://www.w3.org/1999/xlink" x="0px" y="0px"
	 viewBox="0 0 640 480" style="enable-background:new 0 0 640 480;" xml:space="preserve">
<style type="text/css">
	.st0{fill:#0061FF;}
	.st1{fill:#FFD600;}
</style>
<g id="Layer_1">
	<title>africa</title>
	<rect x="-0.6" class="st0" width="640" height="480"/>
</g>
<g id="Vrstva_3">
	<g id="KE2oDo_5_">
		<g>
			<path class="st1" d="M243.7,160c-0.2-0.5-0.6-0.9-1-1.2c-0.7-0.6-1.6-0.8-2.3-0.1c-1.1,0.9-2.3,0.4-3.4,0.3c-0.5,0-0.7-0.5-0.7-1
				c0-1.4-0.3-2.7-0.7-4.1c-0.1-0.4-0.1-0.9,0.1-1.4c0.4-1.2,0.5-2.5,1.1-3.7c0.7-1.5,0.8-2.9-0.1-4.4c-0.2-0.2-0.3-0.5-0.3-0.8
				c-0.2-1.4-0.8-2.6-1.6-3.7c-0.5-0.7-0.6-1.4-0.2-2.1c0.2-0.3,0.3-0.7,0.4-1.1c0.2-1,0.7-1.6,1.5-2.1c0.3-0.2,0.6-0.4,0.9-0.6
				c1.8-1.4,2.2-2.6,1.7-5c-0.1-0.4-0.2-0.7-0.3-1.1c-0.1-0.5-0.1-0.9,0.1-1.4l0,0c1,0.1,1.5,0.8,1.7,1.7c0.3,1.6,0.6,3.2,0.3,4.8
				c-0.1,0.8-0.3,1.5-0.4,2.3c-0.1,0.6-0.1,1.2,0.1,1.8c0.3,0.7,0.3,1.5,0.1,2.2c-0.2,0.5,0.1,0.9,0.5,1.1c0.6,0.3,1.2,0.5,1.8,0.7
				c0.5,0.2,1.1,0.3,1.6,0.4c0.9,0.2,1.9,0.2,2.7,1.8c0.1-1.5-0.2-2.1-1-2.4c-1.1-0.4-2-1.2-2.8-2c-1-0.9-1.2-2.2-1.3-3.5
				c0-0.2,0.2-0.4,0.3-0.5c0.2-0.1,0.4-0.1,0.6,0c0.3,0.2,0.5,0.5,0.7,0.8c0.8,1.3,1.1,0.9,2,0.3c0.2-0.1,0.5-0.3,0.7-0.5
				c0.4-0.4,0.4-1,0-1.4c-0.5-0.4-1-0.7-0.7-1.4c0.1-0.4-0.2-0.5-0.4-0.6c-0.8-0.4-0.9-0.8-0.5-1.5c0.2-0.3,0.4-0.7,0.6-0.9
				c0.8-0.9,1.9-0.9,2.4,0.3c0.3,0.9,0.8,1.2,1.5,1.1c1.2,0,2.1,0.5,3,1.3c1.1,1,2.2,1.9,3,3.2c0.7,1.2,1.7,1.7,3.1,1.3
				c0.4-0.1,0.8-0.1,1.2-0.1c0.6,0.1,1,0.7,0.8,1.4c-0.2,1-0.5,1.9-1.3,2.5c-0.7,0.5-0.9,1.1-0.9,2c0,1.1,0,2.3,0,3.5
				c0,0.5,0.1,0.9,0.4,1.3c0.3,0.4,0.4,1,0.6,1.5s-0.3,1.5,0.5,1.6c0.5,0.1,0.5-0.9,1-1.3c0.8-0.8,0.9-1.9,0.8-3
				c-0.1-0.9-0.3-1.9-0.7-2.7c-0.7-1.3-0.6-2.5-0.1-3.8c0.1-0.4,0.3-0.7,0.4-1.1c0.3-1,0.1-1.9-0.7-2.4c-1.3-0.8-2.2-1.8-2.6-3.4
				c-0.1-0.5-0.5-0.7-0.9-0.9s-0.8-0.3-1.2-0.4c-0.7-0.3-1.2-0.9-1.4-1.7c-0.2-0.9-0.4-1.8-0.2-2.7c0.2-1,0.1-2-0.5-2.8
				c-0.9-1.4-0.4-3,0.1-4.4c0.1-0.4,0.6-0.6,1-0.8c1.3-0.5,2.7-0.7,4.1-0.7c1.1,0.1,2.2-0.1,3.3-0.4c0.9-0.3,1.7-0.6,2.7-0.5
				c0.4,0.1,0.8-0.2,1.2-0.4c0.5-0.3,1-0.5,1.5-0.7c1-0.4,1.5-1.1,1.5-2.2c0-0.6-0.1-1.3-0.7-1.6c-0.7-0.4-1.2-0.9-1.6-1.7
				c-0.2-0.4-0.7-0.5-1-0.8c-0.4-0.3-0.4-1,0.1-1.1c0.7-0.2,0.8-0.6,0.9-1.3c0.2-1,0.5-1.1,1.5-0.8c0.7,0.3,1,0.2,1.4-0.5
				c0.5-0.9,1-1.7,0.3-2.8c-0.1-0.2,0.1-0.4,0.3-0.5c0.1-0.1,0.3-0.1,0.4-0.1c1.2,0.3,1.9-0.5,2.6-1.4c0.4-0.5,0.9-1,1.3-1.5
				c0.1-0.2,0.3-0.4,0.5-0.5c2-0.4,3.3-2.6,5.4-2.6c1.6-0.7,3.3-1.1,4.8-2c0.5-0.3,0.5-0.6,0.1-1c-0.1-0.1-0.3-0.1-0.4-0.2
				c-0.4-0.4-0.3-0.9,0.1-1c1.6-0.4,3.2-1.1,4.9-1c0.4,0,0.7-0.1,1-0.2c0.5-0.1,0.5-0.4,0.3-0.8c-0.2-0.5,0-0.7,0.4-0.9
				c0.7-0.3,1.5-0.1,2.3,0c0.4,0.1,0.5,0.8,0.3,1.2c-0.2,0.3-0.5,0.5-0.8,0.7c-0.5,0.5-0.3,1.2,0.2,1.5c0.9,0.4,1.8,0.2,2.6,0
				c0.3-0.1,0.4-0.4,0.6-0.6c0.5-0.7,1-1.3,1.6-1.8c0.7-0.7,1.3-0.7,2.1-0.1c0.3,0.2,0.5,0.5,0.8,0.8c0.2,0.2,0.5,0.4,0.7,0.1
				s0.3-0.7,0.1-1.1c-0.2-0.3-0.6-0.5-0.8-0.7c-0.4-0.3-0.7-0.7-0.9-1.2c-0.2-0.5,0-1,0.5-1s1,0.1,1.4,0.1c0.6,0,1.1,0,1.7-0.2
				c1.3-0.3,2-1.7,1.5-3c-0.4-1.1-0.2-1.9,0.1-2.9c0.4-1.1,0.8-2.1,1.4-3.1c0.8-1.2,1.7-2.5,2.4-3.8c0.8-1.5,2.2-2.1,3.6-2.6
				c0.7-0.3,1.4,0.1,1.9,0.6c0.7,0.7,1.3,1.3,2.3,1.4c0.5,0,0.6,0.6,0.8,1c0.4,0.9,0.1,1.6-0.6,2.2c-0.6,0.5-1.1,1.2-1.6,1.8
				c-0.3,0.3-0.6,0.7-0.5,1.2c0.1,0,0.3,0.1,0.4,0.1c1.7-1.1,3.2-0.3,4.8,0.4c1.4,0.6,1.8,1.8,0.9,3.1c-0.7,1.1-1.2,2.3-1.9,3.3
				c1.2,0.6,2.3,0.3,3-0.8c0.1-0.3,0.3-0.5,0.4-0.8c0.6-1.3,0.6-1.2,1.8-1.1c0.4,0,0.8,0,1.2-0.1c0.6-0.1,1.1-0.2,1.6,0.1
				c0.4,0.2,0.8,0.2,1.2,0.1c1.5-0.4,2.9-0.1,4,1.3c0.2,0.2,0.5,0.3,0.7,0.4l0,0c0.1,0.6,0.3,1.2,0.8,1.6c0.7,0.7,0.9,1.5,1,2.4
				c0.1,0.7,0.3,1,1,0.4c0.2-0.2,0.5,0,0.7,0.3c0.1,0.3,0.3,0.6,0.3,0.9c0.1,0.5,0.1,1.1,0.4,1.5c0.8,0.9,0.7,2,0.3,3.1
				c-0.3,0.8-0.4,1.6-0.1,2.5s0.1,1.8-0.3,2.7c-0.6,1.4-1.4,2.7-2.4,3.8c-0.7,0.7-1.4,1.2-1.9,2.1c-0.2,0.4-0.6,0.3-0.9,0.5
				c-1.6,1.1-3.2,2.2-4,4.3c-0.3,0.7-0.7,1.3-1.4,1.7c-0.9,0.6-1.6,1.5-2,2.6c-0.1,0.3-0.3,0.7-0.5,1c-0.3,0.8-0.9,1.2-1.6,1.2
				c-1,0-1.7,0.5-2.1,1.6c-0.2,0.7-0.6,1.3-1.2,1.5c-0.8,0.3-1.1,1.1-1.4,1.9c-0.3,0.9-0.4,1.4-0.1,1.3c0.5-0.1,0.5-0.7,0.6-1.1
				c0.1-0.7,0.5-1.1,1.2-1.1c1.7,0.1,3.3-0.5,4.8-1.4c0.6-0.3,1.2-0.5,1.5-1.1c0.1-0.2,0.3-0.3,0.5-0.3c0.3,0,0.7,0.1,1-0.1
				c0.8-0.7,1.5-1.3,2.2-2.2c-0.6,0.2-1.2,0.4-1.9,0.6c-0.5,0.1-0.8-0.1-0.9-0.6c-0.2-1,0.3-2.5,1.1-3c0.4-0.2,0.8-0.3,1.2-0.1
				c0.5,0.2,1.1,0.2,1.6,0c0.8-0.3,0.9-0.2,0.9,0.8c0,1.3,0.5,2.1,1.6,2.2s1.6-0.3,1.9-1.6c0.1-0.3,0-0.6,0.3-0.8
				c1.1,1.4,1.5,2.7,1.3,4.4c-0.1,0.5-0.3,1.1,0.1,1.6c0.1,0.1,0.2,0.2,0.3,0.2c0.1,0,0.2-0.1,0.3-0.3c0,0,0-0.1,0-0.2
				c0-1.6,0.2-1.9,1.5-2c0.9,0,1.8-0.2,2.6-0.7c0.7-0.5,1.5-0.5,2.2-0.2c0.6,0.2,1.2,0.4,1.8,0.6c1,0.3,2,0.6,3.1,0.6
				c0.5,0,1,0.1,1.4,0.2s0.5,0.5,0.3,0.9c-0.1,0.3-0.3,0.5-0.5,0.8c-0.3,0.8-0.2,1.5,0.5,2c0.4,0.3,0.8,0.6,1.3,0.8
				c2.7,1,5.4,1.3,8.2,0.7c0.3-0.1,0.5-0.2,0.8-0.3c0.8-0.4,1.1-0.8,1-1.8c0-0.2-0.1-0.5-0.1-0.7c-0.3-1.2-0.1-2.3,0.2-3.4
				c0.1-0.4,0.1-1,0.4-0.9c0.8,0.1,1-1,1.7-0.8c0.8,0.2,1.8,0.1,2.3,0.8c1.1,1.3,2.6,1.5,3.8,2.2c0.4,0.2,0.7,0.1,1,0
				c1.6-0.4,3,0,4.1,1.5c0.7,1,1.4,1.9,2.1,2.9c0.4,0.5,0.5,1.1,0.3,1.7c-0.3,1.5-0.3,3,0.1,4.6c0.4,1.1,0.1,2.3-0.6,3.2
				c-0.2,0.2-0.4,0.4-0.6,0.7c-0.7,0.9-0.8,1.8-0.1,2.7c0.6,0.8,0.9,1.7,1.2,2.6c0.5,1.3,1.3,2.4,2.1,3.4c0.4,0.5,1,0.5,1.5,0.7
				c0.4,0.2,0.4,1.2,1,0.8c0.5-0.3,0.4-0.9,0.7-1.4c0.7-1.3,1.1-2.6,1.1-4.2c0.1-1.5,0.7-2.8,1.3-4.1c0.1-0.3,0.6-0.2,0.7,0.1
				c0.4,1.1,0.9,2.1,1.5,3.1c0.5,0.9,1.2,1.2,2.1,1.1c0.5,0,1-0.1,1.3-0.6c0.8-1.4,1.9-1.4,3.1-0.8c0.7,0.4,1.4,0.6,2.2,0.2
				c0.5-0.3,1.1-0.2,1.6-0.2c0.6,0,1.3,0.1,1.9,0c0.9-0.2,1.6-0.3,2.1,0.8c0.3,0.7,0.9,0.1,1.3,0c0.7-0.2,0.8-0.3,0.7-1.1
				c-0.4-1.7-0.3-3.4,0.3-4.9c-0.1-0.1-0.3-0.3-0.4-0.3c-0.5-0.1-1.2,0.3-1.4-0.6c-0.2-1,0.6-2.1,1.5-2.2c0.5-0.1,1.1,0,1.6-0.1
				c0.9-0.1,1.1-0.5,1.1-1.6c0-0.2-0.1-0.5-0.1-0.7c0-0.5,0.5-0.9,0.9-0.8c0.2,0.1,0.4,0.1,0.6,0.2c1.1,0.9,2.4,1,3.8,1.1
				c0.3,0,0.7,0,1,0c2.7,0.1,5.2,0.8,7.6,2.1c1.1,0.6,2.2,1.1,3.6,0.9c1.4-0.2,2.9,0.2,4.2,1c1,0.6,1.5,1.6,1.7,2.8
				c0.1,0.8-0.2,1.2-1,1.3c-0.2,0-0.4,0-0.6,0.1s-0.3,0.3-0.3,0.5c0,0.1,0.1,0.3,0.2,0.3c0.1,0.1,0.3,0.1,0.4,0.1
				c1,0,1.7,0.5,2.4,1.3c0.6,0.7,1.3,1.2,2.2,1c0.5-0.1,0.9,0.2,1.3,0.6c0.2,0.3,0.5,0.6,0.7,0.8c0.6,0.7,0.8,1.4,0.2,2.3
				c-0.2,0.3-0.1,0.6,0.1,0.8c0.6,0.5,1.2,0.7,1.9,0.4c1.7-0.7,3.4-0.7,5.1-0.8c1.3-0.1,2.6-0.2,3.9-0.4s2.6,0,4,0.2
				s2.5,0.8,3.3,2.2c0.4,0.7,0.8,1.4,1.2,2.2c0.4,1,0.5,2.1,0.2,3.2c-0.2,0.4-0.3,0.9-0.4,1.3c-0.1,0.7,0,1.1,0.6,1.3
				c1.2,0.4,2.3,1.1,3.2,2.1c0.4,0.4,0.8,0.4,1.1,0c1.2-1.5,2.8-1.6,4.4-1.7c0.2,0,0.4,0,0.6-0.1c0.5-0.1,1,0,1.3,0.5
				c0.6,0.8,1.4,1,2.3,0.7c0.7-0.2,1.5-0.1,2.2,0.3c1.3,0.8,2.4,0.4,3.3-0.9c0.3-0.5,0.8-0.9,1.4-1c0.2,0.2,0.3,0.4,0.5,0.6
				c0.2,1,0.4,2.1,0.6,3.1c0.1,0.4,0.3,0.7,0.6,0.9c1.1,0.5,1.9,1.4,2.5,2.6c0.4,0.7,1.2,0.8,1.8,0.3c1.7-1.4,1.8-3,0.7-5.1
				c-1-0.7-1.3-1.5-0.4-2.6c0.1-0.2,0-0.6,0.1-0.9c0.1-0.7,0.5-1.1,1.1-1.1c0.5,0,1,0.1,1.4,0.2c0.5,0.1,0.9,0.3,1.4,0.4
				c2.6,0.8,5.3,1.1,8,0.8c1.2-0.1,2.3,0.2,3.3,0.9c1.5,1.1,3.2,1.9,4.8,2.8c1.2,0.7,2.3,1.4,3.2,2.5c0.8,0.9,1.7,1.6,2.7,2.2
				c0.8,0.4,1.4,0.9,1.9,1.8c0.6,1,1.6,1.7,2.5,2.4c0.9,0.6,1.7,1.3,2.2,2.4c0.2,0.4,0.6,0.7,1,0.8c0.5,0.1,0.6,0.5,0.7,1.1
				c0,0.4,0.2,0.6,0.5,0.3c0.5-0.5,0.9-0.2,1.3,0.2c0.5,0.6,0.9,1.2,1.3,1.8c0.3,0.4,0.3,0.9,0.3,1.3c0.1,1.3,0.4,2.6,0.9,3.8
				c0.1,0.2,0.3,0.4,0.5,0.2c0.1-0.1,0.2-0.2,0.2-0.4c0.2-0.7-0.1-1.2-0.4-1.7c-0.2-0.4,0-0.8,0.4-0.8c0.8,0,1.7-0.2,2.4,0.5
				c0.4,0.4,1,0.5,1.6,0.4c1.3-0.4,2.2,0.1,2.8,1.3c1,1.8,2.5,3.1,3.9,4.5c0.6,0.5,0.6,0.7-0.1,1.2c-0.6,0.4-1.1,0.9-1.3,1.7
				c-0.2,1.1-1.1,1.5-1.9,1.9c-0.2,0.1-0.5,0.1-0.8,0.1c-0.9,0.2-1.3,0.6-1.3,1.5c0,1.1-0.3,1.8-1,2.4c-0.5,0.4-0.4,0.9-0.1,1.4
				c0.2,0.4,0.6,0.9,0.3,1.3c-0.5,0.5-0.9,1.2-1.6,1.4c-0.2,0-0.4,0-0.6-0.1c-0.8-0.5-1.7-0.7-2.3-1.6c-0.4-0.7-1.1-0.9-1.8-1.2
				c-1.5-0.5-2.3-1.6-2.6-3.3c-0.2-1.3-0.8-2.1-2-2.4c-0.6-0.2-1.1-0.2-1.6,0.1c-0.6,0.4-1.2,0.4-1.8,0.2c-0.5-0.2-1-0.5-1.2-1.1
				c-0.4-1-1.3-1.9-0.9-3.2c0.1-0.2-0.7-0.6-0.9-0.5c-0.3,0.3-0.6,0.6-0.9,0.9c-0.4,0.3-0.4,0.8-0.2,1.2c0.1,0.1,0.1,0.3,0.2,0.4
				c0.4,0.6,0.8,1.1,0.7,1.9c-0.1,0.9-0.4,1.9-1,2.5c-1,1.1-1.9,2.4-3.3,3.2c-0.7,0.4-1.2,0.7-1.9,0.4c-0.4-0.1-0.8-0.2-1.2-0.3
				c-0.3,0-0.5,0.1-0.7,0.4c-0.1,0.3-0.1,0.6,0,0.9c0.3,0.7,0.9,1,1.5,1.1s0.8,0.4,1,1c0.3,1,0.5,2.1,0.8,3.1
				c0.2,0.8,0.4,1.7,0.8,2.4c0.3,0.5,0.6,1,0.3,1.7c-0.2,0.4,0.2,0.7,0.3,1c0.4,1.1-0.1,2.6-1.1,3.1c-0.2,0.1-0.6,0.1-0.8,0
				c-0.4-0.1-0.8-0.4-1.1-0.6c-1.3-0.8-2.6-0.7-3.8,0.1c-2.5,1.8-5.1,3.4-7.8,4.9c-1.1,0.6-2,1.8-2.7,2.8c-1,1.3-2.1,2.2-3.3,3.2
				c-1,0.8-1.8,1.6-2.2,3c-0.2,0.7-0.7,0.7-1.1,0.2c-0.3-0.4-0.5-0.9-0.8-1.4c-0.5-0.9-1.2-1.3-2-1.4c-1.8-0.3-3.3,0.3-4.6,1.6
				c-0.3,0.3-0.6,0.7-0.9,1c-0.4,0.4-0.7,1.2-1.3,0.9c-0.5-0.3,0-1-0.1-1.5s-0.4-0.7-0.9-0.5c-0.8,0.4-1.4,0.9-1.8,1.8
				c-0.2,0.4-0.5,0.6-0.9,0.4c-0.5-0.3-1.1-0.1-1.6,0c-1.1,0-1.8,0.7-1.9,1.8c-0.2,2-1.2,3.5-2.1,5c-0.6,1-1.2,2.1-1.4,3.3
				c-0.1,0.6,0.2,0.9,0.9,0.8c0.3-0.1,0.5-0.2,0.8-0.2c1.1,0.1,1.6,1,1.1,2.1c-0.1,0.3-0.3,0.5-0.4,0.8c-0.6,1.1-0.6,2.2,0.2,3.2
				c0.7,0.9,0.8,2,0.5,3.1c-0.1,0.3-0.3,0.5-0.6,0.6c-0.3,0-0.5-0.1-0.7-0.4c-0.2-0.3-0.3-0.7-0.4-1.1c-0.4,0.6-0.8,1.1-1.2,1.6
				c-0.9,1.4-1.3,2.9-0.5,4.6c0.1,0.1,0.1,0.3,0.2,0.4c0.6,1.5,0.1,2.5-1.4,2.5c-1,0-1.7,0.2-2.4,1c-1.1,1.1-1.8,2.3-1.4,4.1
				c0.1,0.6-0.1,1-0.7,1.3c-0.4,0.2-0.9,0.4-1.3,0.7c-0.8,0.6-1.4,1.5-1.5,2.6c-0.2,2.8-1.9,4.5-3.6,6.3c-0.4,0.4-0.9,0.2-1.2-0.4
				c-0.3-0.9-0.4-1.8-0.4-2.7c0-1.2-0.1-2.3-0.5-3.4c-0.2-0.5-0.2-1-0.3-1.6c-0.1-0.9-0.2-1.9-0.4-2.8c-0.7-2.8-0.8-5.7-1.2-8.5
				c-0.3-2.4,0.1-4.8,0.7-7.1c0.2-0.8,0.6-1.4,1.2-1.8c1.1-0.9,1.7-2,1.5-3.6c-0.1-0.5,0.1-0.9,0.6-1c2.5-0.6,4-2.6,5.6-4.6
				c0.4-0.5,0.8-1.1,1-1.7c0.4-1.3,1.2-2.3,2.1-3.1c1.2-1.2,2.2-2.6,3-4.1c0.3-0.7,0.7-1.1,1.3-1.4c0.4-0.2,0.9-0.5,1.3-0.7
				c1.8-1.1,1.8-1.1,2.3-3.2c0.3-1.6,0.6-3.2,0.9-4.7c0.2-1.1,0.6-1.9,1.4-2.4c0.2-0.1,0.3-0.3,0.3-0.6c-0.1-0.3-0.3-0.5-0.6-0.5
				c-1.3,0.1-2.3,0.6-2.9,1.9c-0.5,1.1-0.7,2.2-0.4,3.4c0.1,0.8,0,1-0.7,1c-0.8,0-1.3,0.3-1.8,0.9c-0.9,1.1-1.9,2.1-2.8,3.2
				c-0.4,0.5-0.9,1-1.4,1.3c-0.5,0.2-0.8,0.1-0.9-0.5c0-0.2,0.1-0.5,0-0.7c-1.1-1.4-0.6-2.9-0.2-4.3c0-0.1,0-0.2-0.1-0.2
				c-0.2-0.3-0.5-0.3-0.7-0.3c-0.7-0.1-1-1.1-1.8-1c-0.7,0.1-1.3,0.4-2,0.5c-0.3,0.1-0.7,0.1-1,0.1c-1.2,0.2-2.1,0.8-2.6,2
				c-0.5,1.3-1.4,2.3-2,3.5c-0.4,0.9-1.1,1.6-1.8,2.2c-1.2,0.9-1.5,2.4-2.2,3.6c-0.2,0.3,0,0.8,0.3,1c0.4,0.3,0.8,0.6,1.2,0.9
				c0.4,0.4,0.3,1.2-0.2,1.4c-0.8,0.4-1.5,0.8-2.4,0.5c-0.7-0.2-1.3-0.1-1.8,0.3c-1.1,0.9-2.4,0.6-3.6,1.1c-0.5,0.2-1.1-0.1-1.5-0.6
				c-0.3-0.4-0.2-0.9,0.2-1.1c0.4-0.2,1.2,0.1,1.2-0.6c0-0.8-1.2-1.6-1.8-1.4c-0.6,0.2-1.1,0.2-1.6-0.2c-0.2-0.2-0.5-0.2-0.8-0.3
				c-0.2-0.1-0.4-0.2-0.6-0.3c-1.1-0.6-1.8-0.4-2.3,1c-0.1,0.2-0.2,0.4-0.3,0.6c-0.3,0.5-0.6,0.7-1.1,0.4c-0.6-0.3-1.2-0.5-1.8-0.1
				c-0.6,0.4-1.2,0.1-1.8-0.1c-0.7-0.3-1.3-0.3-1.9,0.4c-0.4,0.5-0.9,0.4-1.3-0.1c-0.6-0.7-1.3-0.8-2.1-0.8
				c-1.5-0.1-2.9,0.2-4.3,0.5c-1.3,0.2-2.3,1.1-3.1,2.2c-0.8,1.1-1.6,2.1-2.5,3.1c-0.3,0.3-0.6,0.7-0.8,1.1c-0.6,1.7-1.9,2.8-3,4.1
				c-1.3,1.5-2.6,3-3.6,4.8c-0.8,1.4-1.7,2.6-2.9,3.6c-1.3,1.1-2.4,2.3-3.6,3.5c-0.5,0.5-0.4,1.1,0.1,1.5c0.3,0.3,0.7,0.5,1.2,0.4
				c0.3-0.1,0.7-0.1,1-0.2c0.5,0,0.8,0.3,0.9,0.8c0,0.4,0,0.8,0,1.2s-0.3,1.1,0.3,1.1c0.4,0.1,0.3-0.6,0.5-0.9
				c0.1-0.2,0.3-0.3,0.4-0.5c0.2-0.2,0.6,0,0.7,0.2c0.2,0.9,0.2,1.8,0.1,2.8c1.1-0.2,1.7-1.2,2.5-1.6c0.1,0,0.1-0.1,0.1-0.2
				c-0.1-1.6,0.9-1.2,1.7-1.2c1.2,0,2.2,0.5,2.7,1.8c0.3,0.7,0.7,1.3,1.3,1.7c0.8,0.6,1.3,1.3,0.9,2.5c-0.3,0.8-0.1,1.7,0.1,2.5
				c0,0.1,0.2,0.2,0.3,0.3c0.1,0,0.3-0.1,0.4-0.1c0.4-0.6,0.4-1.3,0.5-2c0.1-0.5,0.1-1.1,0.1-1.6c0-0.9,0.3-1.5,1.1-1.7
				c0.6-0.1,0.7-0.7,0.6-1.2s-0.2-1.1-0.3-1.6c-0.1-0.3,0.1-0.6,0.4-0.8s0.7,0,0.9,0.4c0.1,0.4,0.3,0.7,0.3,1.1
				c0.1,1.2,0.3,2.5,0.6,3.6c0.3,1.2,0.4,2.5,0.2,3.7c-0.3,1.4,0,2.7,0.3,4.1c0.8,3.3,1.6,6.6,2.4,9.9c0,0.1,0,0.3,0,0.5
				c-0.6,0.3-1-0.2-1.6-0.3c-0.8-0.1-1.4,0.2-1.6,1.1c-0.4,1.4-0.7,2.8-1,4.3c-0.1,0.7,0,1.4,0.4,2c0.5,0.9,0.8,2,1.5,2.8
				c0.4,0.4,0.5,0.9,0.5,1.5c0,0.2,0,0.5-0.2,0.6c-0.3,0.2-0.5-0.1-0.6-0.3c-0.1-0.2-0.2-0.4-0.4-0.5c-0.7-0.7-1.2-0.5-1.7,0.3
				c0,0.1-0.1,0.1-0.1,0.2c-0.2,0.5-0.3,1.1-0.9,1.1c-0.4,0-0.7-0.6-0.7-1.5c0-0.3,0-0.6,0-0.9c0.1-1.5,0.3-2.9,0.5-4.4
				c0.2-1.1,0.2-2.1-0.1-3.2c-0.4-1-0.3-2-0.1-3c0.4-1.7,0.5-3.5,0.3-5.3c0-0.5-0.1-0.9,0-1.4c0.2-1.5,0.1-2.9-0.8-4.2
				c-0.3-0.4-0.4-1.1-0.6-1.7c-1.1,1.6-2,3.1-2.3,5c-0.2,1-0.3,2-0.1,3c0.3,1.5,0.2,3.1-0.3,4.6c-0.1,0.4-0.2,0.7-0.3,1.1
				c0,1.7-0.8,2.9-1.7,4.1c-1.3,1.8-2.6,3.6-3.3,5.9c-0.5,1.6-1.4,2.8-2.4,4.1c-1.3,1.8-2.7,3.6-4,5.4c-0.2,0.2-0.3,0.5-0.5,0.8
				c-0.7,1.7-1.9,2.8-3.3,3.8c-1.7,1.4-3.5,1.7-5.4,0.4c-1-0.7-1.1-0.6-2,0.3c-0.8,0.8-1.6,1.5-2.4,2.2c-0.4,0.4-0.8,0.9-1.2,1.3
				c-0.6,0.7-1,1.5-0.9,2.5c0.1,0.9-0.3,1.6-1,2.2c-1.2,1-2.2,2.3-3.7,3c-1.2,0.5-1.4,1.8-0.4,2.8c1.3,1.3,2.1,3.1,3.1,4.6
				c0.8,1.1,1.2,2.4,1.2,3.9c0,0.8,0.1,1.5,0.1,2.3c0.1,1.7-0.5,2.4-1.9,3.2c-1.2,0.7-2.6,1-3.8,1.9c-0.5,0.4-1.3,0.4-2,0.6
				c-0.5,0.1-0.8-0.3-0.8-0.8c0-1,0.1-2,0.6-2.9c0.5-1.2,0.3-2.2-0.4-3.2c-0.1-0.2-0.3-0.3-0.4-0.5c-0.1-0.3-0.1-0.6,0.1-0.8
				c0.2-0.2,0.5-0.3,0.7-0.5c0.4-0.3,0.4-0.8,0.3-1.2c-0.4-1.3-0.9-1.6-2-1.6c-0.3,0-0.5,0.2-0.8,0.2c-1,0-1.8-1.3-1.4-2.3
				c0.5-1.1,0.8-2.1,0.9-3.3c0.1-0.5-0.1-0.9-0.6-1.1c-2.8-1-5.2-0.4-7.3,1.7c-0.5,0.5-1.1,1-1.8,1.1c-0.1,0-0.3-0.1-0.4-0.1
				c-0.1-0.1-0.1-0.3-0.1-0.4c0.4-0.6,0.7-1.1,0.3-1.9c-0.2-0.4,0.1-0.9,0.3-1.3c0.4-0.6,0.8-1.1,1.1-1.7c0.4-0.7,0.2-1.4-0.3-1.9
				c-0.4-0.4-1.1-0.5-1.5,0c-1.3,1.5-2.7,2.9-4.2,4c-0.1,0.1-0.2,0.2-0.2,0.4c-0.6,1.4-1.6,1.9-2.9,1.9c-0.5,0-1,0.1-1.2,0.7
				c-0.3,0.7-0.3,1.3,0.2,1.9c0.1,0.1,0.2,0.3,0.3,0.3c1.2,0.7,2.1,1.8,2.7,3.1c0.3,0.6,1.1,0.7,1.7,0.2c0.4-0.3,0.8-0.8,1.3-1.2
				c0.6-0.5,1.2-0.7,1.9-0.3c0.9,0.5,1.8,0.8,2.8,0.7c0.6,0,1,0.4,1,0.9c0.1,0.6-0.3,1.3-0.8,1.4c-0.7,0.1-1.3,0.5-2,0.7
				c-0.6,0.2-1.2,0.5-1.5,1.1c-0.4,0.9-1.4,1-1.9,1.8c-0.3,0.5-0.7,0.8-1,1.2c-1,1.6-1.4,2.2,0.5,3.2c0.8,0.4,1.2,1.2,1.6,2.1
				c0.2,0.5,0.4,1,0.5,1.5c0.3,1.4,0.8,2.6,1.7,3.7c0.3,0.4,0.6,0.8,0.9,1.3c0.2,0.3,0.1,0.6-0.2,0.7c-0.4,0.2-0.6,0.4-0.3,0.9
				c0.2,0.3,0.5,0.6,0.6,0.9c0.2,0.4,0.2,0.8-0.1,1c-0.5,0.4-1,0.8-1.5,1.2c0,0.7,0.5,0.8,0.8,1c1,0.9,1.2,1.6,0.8,2.8
				c-0.3,0.9-0.6,1.7-0.9,2.6c-0.1,0.3-0.2,0.6-0.4,0.8c-1.9,2.2-3.1,4.9-4.3,7.6c-0.7,1.6-1.7,3-3,4c-0.1,0.1-0.1,0.1-0.2,0.1
				c-1.1,1.5-2.6,2.5-3.9,3.7c-0.9,0.9-1.9,1.5-3.1,1.7c-0.8,0.1-1.5,0.3-2.3,0.5c-0.5,0.1-0.9,0.4-1.2,0.8
				c-0.5,0.5-0.5,0.5-0.9-0.4c-0.1-0.2-0.3-0.5-0.4-0.3c-0.4,0.8-1.5,0.4-1.8,1.4c-0.2,0.6-0.7,0.7-1.2,0.8
				c-1.1,0.3-2.1,0.6-3.2,0.9c-0.4,0.1-0.8,0.3-1.2,0.4c-0.7,0.3-1.1,0.7-1,1.5c0.1,0.5,0.2,1.1-0.4,1.4c-0.5,0.2-1.1-0.2-1.4-1.1
				c-0.1-0.2-0.1-0.4-0.2-0.6c-0.1-0.5,0.2-1.2-0.5-1.4c-0.8-0.2-1.4-0.8-2.4-0.5c-2,0.7-3.7,1.7-4.8,3.7c-0.2,0.3-0.5,0.6-0.7,0.8
				c-0.8,0.7-1,1.8-1.2,2.9c-0.1,0.5,0,0.9,0.3,1.3c1.4,1.9,2.5,4.3,4.4,5.8c1.1,0.9,2,1.9,2.7,3.1c0.2,0.4,0.5,0.8,0.6,1.2
				c0.6,2.5,1.3,4.9,0.8,7.5c0,0.1,0,0.2-0.1,0.2c-0.1,3.4-0.6,3.1-2.5,4.6c-0.8,0.6-1.6,1.2-2.6,1.4c-0.6,0.2-1.1,0.4-1.4,1
				c-0.5,1.1-1.3,1.8-2.2,2.4c-0.2,0.2-0.4,0.4-0.7,0.6c-0.4,0.3-0.8,1.1-1.4,0.7c-0.5-0.4-0.4-1.1-0.4-1.7c0-0.4,0-0.8,0.1-1.2
				c0-0.9-0.7-1.8-1.5-1.9c-0.1,0-0.2,0.1-0.3,0.3c-0.2,0.3-0.4,0.3-0.7,0c-0.5-0.7-0.9-1.5-1.8-1.9c-0.3-0.1-0.5-0.6-0.6-0.9
				c-0.4-1.4-1.4-2.2-2.4-3.1c-0.5-0.4-1-0.6-1.5-0.6c-0.8,0-1.3-0.4-1.5-1.3c0-0.2-0.2-0.4-0.3-0.6c-0.3-0.5-1.2-0.4-1.4,0.1
				c-0.1,0.1-0.1,0.3-0.1,0.4c0,2.4-1.2,4.4-1.7,6.6c-0.1,0.6-0.4,1.2-0.4,1.8c-0.1,1,0,1.9,1,2.2c0.6,0.2,0.9,0.7,1,1.3
				c0.3,1,0.8,2,1.1,3c0.3,1.1,0.9,1.9,1.9,2.3c1.9,0.8,3.3,2.5,4.8,4c0.7,0.7,1,1.7,1,2.7c0,0.5,0,1.1,0,1.6
				c-0.1,1.4,0.1,2.8,1.1,3.8c0.1,0.1,0.1,0.3,0.2,0.4c0.6,1.1,0.9,2.2,0.2,3.5c-0.1,0.3-0.1,0.6-0.4,0.7c-1.2-1.3-2.7-2-4.1-3
				c-1.2-0.9-2.1-1.9-2.9-3.2c-1.3-2.1-1.9-4.3-2.1-6.7c-0.1-0.8-0.2-1.5-0.7-2.2c-0.9-1.4-1.8-2.7-2.8-4.1c-0.2-0.4-0.6-0.7-1-0.8
				c-0.3-0.1-0.7,0-0.8-0.2c-0.2-0.3-0.2-0.7-0.2-1.1c0.1-0.7,0.2-1.4,0.3-2.1c0.1-1,0.4-2,0.3-3c-0.1-0.9,0.3-1.7,0.5-2.5
				c0.1-0.5,0-0.7-0.5-0.8c-0.4-0.1-0.7-0.4-0.4-0.8c1-1.5,0.7-2.9,0.1-4.4c-1.1-2.5-1.8-5.2-2-8c-0.1-0.9-0.5-1.4-1.1-1.9
				c-0.5-0.3-0.9-0.4-1.3,0c-0.8,0.7-1.6,1.4-2.5,2.2c-0.9,0.8-2.3,0.8-3.3-0.1c-0.3-0.3-0.5-0.6-0.4-1c0.1-0.6,0.2-1.2,0.3-1.8
				c0.5-2.2,0.1-4.1-1.4-5.7c-0.3-0.3-0.6-0.5-0.6-0.9c0.1-1.3-0.8-1.8-1.5-2.5c-1.5-1.3-2.6-3-2.8-5.2c-0.1-0.9-0.3-1.7-0.8-2.3
				c-0.4-0.5-1.1-0.6-1.4,0c-1.1,1.8-2.7,2.3-4.4,2.6c-1,0.2-1.9,0.4-2.9,0.1c-1.2-0.4-2.6,0.7-2.8,2c-0.3,1.9-1.2,3.1-2.8,3.7
				c-1.3,0.5-2.3,1.4-3.1,2.6c-1.1,1.7-2.7,2.7-4,4.1c-0.1,0.2-0.3,0.3-0.5,0.4c-1,0.5-1.3,1.8-2.2,2.5c-0.8,0.6-2,0.7-2.6,1.8
				c-0.2,0.4-0.7,0.4-1.1,0.6c-1,0.5-1.3,1.1-1.2,2.4c0.1,1.2,0.2,2.5,0.4,3.7c0.2,1,0.2,2-0.2,3c-0.7,1.6-0.9,3.2-0.9,5
				c0,0.7-0.1,1.4-0.8,1.7c-0.1,0.1-0.3,0.1-0.3,0.3c-0.7,1.7-2.3,2.7-3.1,4.2c-0.2,0.3-0.4,0.6-0.6,0.9c-0.7,0.7-1.4,0.7-2,0
				c-0.8-0.8-1.3-1.7-1.7-2.9c-0.6-1.9-1.2-3.8-1.9-5.6c-0.1-0.4-0.3-0.9-0.6-1.2c-0.9-1-1.3-2.2-1.6-3.5c-0.6-2.8-1.9-5.3-3.1-7.8
				c-0.6-1.3-1.2-2.6-1.2-4.1c0-0.5-0.2-1.1-0.3-1.6c-0.4-2.1-0.7-4.1-1.1-6.2c0-0.2-0.1-0.5,0-0.7c0.5-1.5,0.1-2.9-0.2-4.3
				c-0.2-0.7-0.2-1.5-0.4-2.4c-0.6,0.6-0.5,1.2-0.7,1.7c-0.6,2-2.8,3.1-4.4,2.1c-1.4-0.9-2.4-2.4-3.3-3.8c-0.2-0.3,0.1-0.8,0.4-0.9
				c0.5-0.1,1.1-0.2,1.6-0.4c0.2-0.1,0.3-0.3,0.4-0.5c0-0.3-0.2-0.4-0.4-0.4c-0.1,0-0.3,0-0.4,0c-1.5,0.3-2.6-0.3-3.4-1.6
				c-0.1-0.1-0.2-0.2-0.3-0.3c-0.6-0.9-1.8-1-2.2-2.1c-0.4-1-1.1-1.8-1.6-2.7c-0.5-0.8-1.1-1.1-1.9-1c-0.7,0.1-1.4,0.2-2.1,0.3
				c-0.8,0.1-1.6,0.2-2.5,0.1c-1.4-0.1-2.8-0.1-4.1,0.3c-1.4,0.4-2.7,0.2-4.1,0c-0.8-0.1-1.5-0.3-2.3-0.4c-1.8-0.4-3.7-0.7-5.5-1.1
				c-0.9-0.2-1.5-0.8-1.8-1.7c-0.2-0.6-0.4-1.2-0.6-1.7c-0.4-0.9-1.1-1.1-1.7-0.4c-1.3,1.5-3,1.2-4.5,1.1c-1.7-0.2-3.2-1-4.5-2.3
				c-0.7-0.7-1.4-1.3-2.3-1.6c-0.7-0.2-1.2-0.8-1.5-1.6c-0.7-1.7-1.8-3.1-2.6-4.8c-0.3-0.6-0.6-1-1.3-0.9c-0.8,0.1-1.2-0.7-1.7-1.2
				c-0.6,0-0.6,0.6-0.8,0.9c-1.7,2.2-1.7,1.9-0.6,4.7c0.8,1.9,1.9,3.5,3.2,4.8c0.9,0.9,1.4,1.9,1.4,3.2c0,0.5,0.1,0.9,0.4,1.3
				c0.3,0.4,0.8,0.4,1.1,0s0.4-0.8,0.7-1.2c0.2-0.4,0.8-0.2,1.1,0.2c0.2,0.3,0.3,0.7,0.3,1.1c0,0.9,0,1.8-0.1,2.8s0.7,2,1.5,1.8
				c1.2-0.3,2.5-0.2,3.7-0.3c1.1-0.1,1.9-0.7,2.6-1.6c1.1-1.5,2.3-2.9,3.5-4.3c0.1-0.1,0.3-0.2,0.4-0.1c0.2,0.1,0.4,0.3,0.4,0.5
				c0.1,0.7,0.1,1.4,0.1,2.1c-0.1,1.7,0.6,2.8,1.8,3.7c0.7,0.6,1.6,1,2.5,1.2c1.1,0.3,2.1,0.8,2.7,2c0.2,0.4,0.5,0.7,0.8,1.1
				c1,1.1,1,1.5,0.5,2.8c-0.2,0.5-0.5,1-0.8,1.4c-0.6,0.7-1.1,1.4-1,2.4c0,0.5-0.4,0.7-0.9,0.8c-1.5,0.1-1.9,0.5-2,2
				c0,0.3,0,0.6,0.1,0.9c0.1,0.6-0.2,1.1-0.7,1.2c-1.1,0.3-2,1-2.4,2.3c-0.1,0.5-0.6,0.7-1,0.8c-1,0.2-1.8,0.8-2.2,1.9
				c-0.3,0.6-0.8,0.9-1.4,0.9c-1.4-0.1-2.7,0.6-4,1.1c-0.8,0.3-1.6,0.8-1.9,1.7c-0.5,1.2-1.4,1.7-2.3,2.2c-1.3,0.6-2.6,1.1-3.9,1.5
				c-0.8,0.3-1.6,0.5-2.1,1.3c-0.6,0.7-1.3,1.1-2.2,1.2c-0.4,0-0.9,0.2-1.2,0.4c-0.9,0.8-2,1-3.1,1.2c-1.1,0.1-2.1,0.4-3.1,1.2
				c-0.9,0.8-2.1,0.9-3.2,0.8c-1.3,0-1.9-0.6-2.2-2c-0.3-1.1-0.5-2.2-0.8-3.4c-0.1-0.6-0.3-1.2-0.6-1.7c-0.3-0.6-0.4-1.1-0.2-1.8
				c0.6-2.3-0.4-4.1-1.6-5.7c-1-1.2-1.8-2.5-2.3-4.1s-1.4-3-2.9-3.8c-1.3-0.6-1.9-1.7-2.1-3.2c0-0.5-0.2-1.1-0.2-1.6
				c0.2-1.6-0.5-3-1.1-4.4c-0.4-1.1-1-2-2-2.5s-1.6-1.5-1.8-2.7c-0.2-0.9-0.6-1.7-1.1-2.5c-1.1-1.9-2.2-3.8-3.3-5.6
				c-0.3-0.5-0.5-1-0.9-1.3c-0.7-0.5-0.8-1.2-0.6-2c0.2-1.2,0-2.3-0.3-3.4c-0.4-1.2-0.7-2.5-1.1-3.7c-0.3-0.9-0.3-1.7,0.3-2.4
				c0.6-0.8,0.9-1.7,1.1-2.7c0.3-1.9,1-3.7,1.9-5.3c0.9-1.6,1.5-3.3,1.1-5.3c-0.2-1.2,0.3-2.4,0.1-3.7c-0.5-0.4-1,0.1-1.4-0.1
				c-1.2-0.6-2.1-0.1-3,0.8s-2.2,1-3.4,1.1c-0.6,0-1.1-0.4-1.5-0.8c-0.7-0.8-1.6-1.3-2.5-1.7c-0.6-0.3-1.1-0.2-1.4,0.6
				c-0.5,1-1.2,1.5-2.1,1.5c-0.5,0-1,0-1.4-0.5c-1-1.2-2.2-1.4-3.6-1.3c-0.5,0.1-0.8-0.2-0.4-0.8c-1.1-0.8-1.6-2.1-1.8-3.4
				c-0.1-0.5-0.6-0.6-0.9-0.9c-1-0.7-1.1-1-0.4-2c0.9-1.3,0.8-2.1-0.4-3.3c-0.6-0.5-0.7-0.9-0.4-1.6c0.3-0.6,0.6-1.2,0.9-1.8
				c0.2-0.4,0.6-0.5,0.9-0.3c1.3,0.8,2.6,0,3.9,0.3c0.6,0.1,1-0.4,1.5-0.8c0.2-0.1,0.2-0.3,0.3-0.6c0.1-1.3,0.1-1.3,1-1.3
				c0.8,0,1.7-0.1,2.5,0.2c1,0.3,1.9,0.2,2.7-0.7c0.4-0.5,1-0.8,1.5-1.2c1.1-0.9,2.3-1.3,3.7-1.4c0.7-0.1,1.4-0.1,2.1-0.1
				c1-0.1,1.9,0,2.7,0.8c0.9,0.7,1.9,1.2,2.9,1.8c1.6,1.1,3.4,1.6,5.4,1.2c0.9-0.2,1.8-0.1,2.7-0.1c1.9,0.1,3.1-1.2,4.2-2.6
				c0.1-0.1,0.3-0.4,0.2-0.6c-0.3-1.5-0.4-3.1-1.8-4c-0.7-0.4-1.5-0.7-2.1-1.4c-0.2-0.2-0.4-0.5-0.2-0.8c0.1-0.2,0.3-0.3,0.5-0.3
				c0.7-0.1,1.4,0.1,2,0.3c1.2,0.5,2.5,1,3.8,0.9c1-0.1,1.7,0.6,2.5,1.1c0.8,0.6,1.6,1,2.7,0.8c1.4-0.2,2.8,0.1,3.4,1.9
				c0.2,0.4,0.6,0.7,1,0.9c1.1,0.5,1.9,1.2,2.7,2.2c0.5,0.7,1.1,0.6,1.6,0c0.1-0.2,0.3-0.3,0.4-0.5c0.9-1.7,1.2-1,2,0.1
				c0.2,0.3,0.4,0.6,0.5,1c0.5,1.2,1.2,2.3,2.5,2.7c0.2,0.1,0.3,0.3,0.4,0.5c0.1,0.3-0.1,0.4-0.3,0.4c-0.7,0.1-1.1,0.7-1.3,1.4
				c-0.2,0.6-0.3,1.2-0.4,1.8c-0.1,0.5-0.2,1.1-0.7,1.3c-0.7,0.3-0.8,1-0.7,1.7s0.1,1.4,0.3,2.1c0.2,1,0.7,1.8,1.6,1.9
				c1,0.2,1.7,0.7,2.5,1.5c1.1,1.3,2.6,1.7,4.2,1.3c0.9-0.2,1.8-0.5,2.6-0.7c0.5-0.2,1.2,0.3,1.5-0.4c0.3-0.6-0.1-1.2-0.2-1.8
				c-0.2-1.1-0.4-2.1-0.3-3.2c0.1-1,0.3-2-0.4-2.8c-0.4-0.5,0.1-1.2-0.2-1.8c-0.3-0.5-0.3-0.9-1-0.9c-0.6,0-0.8-0.4-0.9-1
				c-0.1-0.9,0.1-1.7,0.5-2.6c0.6,0.2,1.3,0.4,1.9,0.6c0.4,0.1,0.8,0.2,1.2,0c0.7-0.3,0.9-1,0.5-1.7s-0.9-1.4-1.3-2.1
				c-0.5-1-1.4-0.7-1.9-0.1c-0.3,0.3-0.4,0.8-0.5,1.3c0,0.2-0.2,0.5-0.3,0.5c-0.3,0.1-0.5-0.3-0.6-0.5c-0.4-0.8-0.5-1.7-0.3-2.5
				c0.4-1.4,0.1-2.3-1.3-2.9c-1-0.4-1.7-1.2-1.9-2.6c-0.1-0.9-0.8-1.6-1.4-2.3c-0.3-0.3-0.6-0.6-0.9-1c-0.2-0.3-0.1-0.9,0.3-0.9
				c0.2,0,0.4-0.1,0.6-0.1c0.5,0,0.9,0.4,1.4,0c0.3-0.3,0.1-0.9,0.2-1.3c0.1-0.4,0.3-0.7,0.7-0.8c0.6-0.1,1-0.4,1.5-0.7
				c0.2-0.1,0.6-0.3,0.8-0.2c1.5,0.6,3.1-0.1,4.5,0.8c0.1,0,0.1,0,0.2,0c0.4,0.1,0.8-0.5,0.7-0.9c-0.1-0.3-0.2-0.6-0.4-0.8
				c-1-1-1.8-2.1-2.4-3.5c-0.2-0.4-0.5-0.8-0.7-1.1c-0.6-0.9-1.4-1.5-2.5-1.3c-0.7,0.1-1.4,0-2-0.3s-1.1-0.2-1.5,0.3
				c-0.8,0.9-1.7,1.2-2.8,1.4c-0.8,0.2-1.7,0.2-2,1.4c-0.1,0.4-0.5,0.5-0.9,0.3c-0.3-0.1-0.6-0.3-0.9-0.5c-0.4-0.3-0.5-0.8-0.1-1.2
				c0.1-0.1,0.3-0.2,0.5-0.4c0.1-0.1,0.3-0.3,0.4-0.5c0.3-1-0.7-3.1-1.7-3.3c-0.3-0.1-0.6,0-0.8,0c-0.6,0-0.9-0.3-1.1-0.9
				c-0.2-0.4-0.3-1-0.6-1.2c-1.1-0.8-0.9-1.8-0.4-2.9c0.3-0.7,0.5-1.4,0.3-2.2c-0.1-0.8,0.1-1.5,0.5-2.2c0.2-0.4,0.4-0.8,0.6-1.2
				c0.6-1.5,1-1.6,1.9-0.2c0.2,0.3,0.4,0.7,0.6,1c0.2,0.3,0.4,0.4,0.7,0.3s0.5-0.4,0.4-0.7c0-0.5-0.1-0.9-0.2-1.4
				c-0.1-0.5,0.1-0.9,0.5-1.2c0.5-0.4,1-0.8,1.4-1.4c0.2-0.4,0.6-0.7,1-0.8c0.8-0.4,1.5-0.9,2-1.6s1.2-0.8,1.9-0.6
				c0.4,0.1,0.8,0.3,1,0.1c1.6-1,3,0.4,4.4,0.5c0.3,0,0.6,0.4,0.8,0.6c0.5,0.5,0.9,1,1.4,1.4c0.1,0.1,0.3,0.4,0.5,0.4
				c1.1-0.3,1.7,0.7,2.6,1.2c0.5,0.3,1.1,0.3,1.6-0.2c1-1.1,2.2-1.5,3.6-1.2c0.3,0.1,0.7-0.1,1-0.2c0.9-0.2,1.7-0.1,2.1,0.9
				c0.3,0.7,1,0.7,1.6,0.9c0.6,0.2,1.1,0.1,1.5-0.4s0.9-0.1,1.4,0c1.3,0.4,2.3-0.4,2.5-2c0.1-0.3-0.1-0.6-0.3-0.8
				c-0.6-0.4-1.2-0.7-1.9-1c-0.8-0.4-1.4-1-1.7-1.9c-0.4-1-1-1.4-1.9-1.4c-1-0.1-1.1-0.2-1.4-1.4c-0.1-0.5-0.1-1.1-0.3-1.6
				c-0.6-1.6-0.1-3,0.8-4.3c0.5-0.7,1.1-1.4,1.3-2.3c0-0.1,0.1-0.3,0.1-0.5c0.1-0.3,0.1-0.6-0.1-0.9c-0.2-0.2-0.5-0.1-0.8,0.1
				c-0.3,0.2-0.5,0.5-0.8,0.7c-1,0.8-2.4,0.8-3.2-0.1c-0.8-0.9-1.3-2-1.4-3.3c-0.1-0.7,0.6-1.4,1.2-1.2c0.4,0.1,0.8,0.3,1.2,0.5
				c1.3,0.5,2.2-0.1,2.4-1.6c0-0.3,0-0.6,0-0.9c0-0.6-0.4-1-0.9-1.1c-0.4-0.1-0.8,0-1.3-0.1c-1.1-0.2-1.7-0.8-2-2
				c-0.2-1.2-0.2-2.3,0.2-3.4c0.6-1.9,1.2-3.8,2.7-5.1c0.1,0,0.1-0.1,0.1-0.2c1.7-2.2,1.8-3.7,0.1-5.9c-0.7-0.9-1.1-1.7-1-2.9
				c0.1-0.7,0.1-1.3,0.7-1.8c0.3-0.3,0.6-0.7,0.8-1c0.9-1.3,1.1-2.6,0.3-4.1c-0.2-0.3-0.3-0.7-0.5-1.1c-0.2-0.6-0.2-1.2,0.4-1.6
				c0.5-0.3,0.6-0.8,0.5-1.4c-0.1-0.6-0.2-1.2-0.3-1.8c-0.2-1-0.3-2-0.1-3c0.1-0.5,0.1-1.1-0.1-1.6c-0.5-0.8-0.3-1.5,0-2.2
				c0.6-1.3,0.8-2.6,0.4-4c-0.2-0.6,0.1-1.2,0.3-1.8c0.6-1.7,1.2-3.4,1.1-5.4c-0.1-0.9,0.4-1.5,1.3-1.5c1.5,0,2.3-0.9,2.9-2.2
				c0.4-0.8,1-1.5,1.6-2.1c0.6-0.5,1.2-1.1,1.8-1.6c0.9-0.9,1.6-1.9,2-3.2c0.4-1.4,1.2-2.4,2.4-3c1.1-0.6,2-1.3,2.4-2.7
				c0.1-0.3,0.4-0.7,0.6-0.9c0.8-0.7,1-1.6,0.9-2.7c0-0.6-0.3-0.9-0.8-1.2c-1.7-0.9-2-1.5-1.3-3.4c0.4-1.1,0.4-2-0.2-3.1
				c-0.8-1.3-0.6-2.8-0.5-4.3c0.1-0.4,0.5-0.6,0.8-0.4c0.6,0.4,1.2,0.8,1.8,1.2c0.2,0.1,0.3,0.3,0.5,0.5c2.1,1.5,4.1,3.1,5.8,5.2
				c0.7,0.9,1.1,0.7,1.5-0.5c0.2-0.7,0.4-1.3,0.5-2c0.1-0.3,0-0.7-0.2-0.9c-1.1-1-1.4-2.4-1.9-3.8c-0.4-1.2-1.2-1.9-2.4-1.7
				c-0.5,0.1-0.7-0.2-0.7-0.6c0.1-1.2-0.3-2.5,0.7-3.5c0.2-0.2,0.2-0.6,0.2-0.9c-0.1-1.3,0.1-2.5,0.3-3.7c0.1-0.9,0.1-0.9-0.8-1.1
				c-0.8-0.2-1.1-0.4-0.8-1.2c0.2-0.6,0.4-1.1,0.2-1.8c-0.2-0.8,0.2-1.5,0.8-2c0.4-0.4,0.9-0.8,1.3-1.2c1.2-1.2,1.9-2.7,2.2-4.4
				c0.3-1.8,0.7-3.6,1-5.5c0.2-1.1,0.6-2,1-3c0.3-0.6,0.7-1,1.4-0.8c1.2,0.3,2.3,0.3,3.5,0.3c0.7,0,1.4,0.2,2,0.5
				c1.2,0.6,1.7,1.4,1.9,3c0.3,3-0.4,5.7-1.6,8.2c-0.4,0.9-0.4,1.6,0.1,2.3c2.1,2.8,2.2,5.9,1.3,9.1c-0.1,0.5-0.1,0.9-0.1,1.4
				c0.3,2,0.4,4,0.2,6c-0.1,0.6,0,1.2-0.1,1.9c-0.1,1.1,0.2,2.1,0.9,2.9c0.1,0.2,0.3,0.4,0.4,0.5c0.8,0.9,1,1.9,0.5,3
				c-0.5,1.2-0.6,2.3-0.6,3.6c0,0.8-0.2,1.5-0.6,2.1c-0.8,1.2-1.6,2.5-2.1,3.9c-0.1,0.4-0.3,0.7-0.7,0.9c-0.3,0.2-0.6,0.5-0.5,0.9
				c0.1,0.9-0.5,1.2-1,1.6c-0.7,0.5-1.4,0.9-2.1,0.1c-0.2-0.2-0.4-0.2-0.5,0.1s-0.1,0.6,0.1,0.9c0.2,0.3,0.6,0.5,0.9,0.4
				c1.1-0.2,2.1-0.1,3.1,0.3c0.7,0.3,1,0.1,1.2-0.7s0.6-1.3,1.2-1.8c0.4-0.3,0.8-0.7,1.2-1c0.8-0.6,1.3-1.4,1.4-2.5
				c0.1-1.1,0.5-1.9,1.2-2.6c1.3-1.4,1.4-3,0.7-4.7c-0.3-0.9-0.6-1.7-0.5-2.7s0.4-1.7,1.3-2.2C240.2,160.5,241.9,159.9,243.7,160
				c0.1,0.5,0,1.2,0.2,1.5c1,1.3,1.5,2.7,1.5,4.4c0,0.2,0.2,0.4,0.5,0.3c0.6-0.3,1-0.8,0.9-1.4c-0.2-1-0.5-2.1-0.8-3.1
				c-0.1-0.3-0.4-0.7-0.6-0.9C244.9,160.4,244.3,160.1,243.7,160z M245.7,169.8c-0.1-0.4-0.2-0.9-0.3-1.3c-0.1-0.2-0.2-0.2-0.3-0.1
				c-0.1,0.1-0.1,0.3-0.1,0.4C245.1,169.3,245.4,169.6,245.7,169.8c0.3,0.4,0.5,0.9,0.9,1.1c0.3,0.1,0.8,0.2,0.9-0.1
				c0.3-0.5-0.3-0.5-0.5-0.6C246.7,170,246.2,169.9,245.7,169.8z M138.1,338.1c0.5-0.8,0.5-1.6,0.6-2.3c0-0.2-0.1-0.4-0.4-0.5
				c-0.2,0-0.4,0.1-0.4,0.4c0,0.1-0.1,0.3-0.1,0.4C137.9,336.7,138,337.3,138.1,338.1z M399.5,140.9c-0.1-0.1-0.1-0.3-0.2-0.3
				c-0.3-0.3-0.7-0.5-1-0.7c-0.2-0.1-0.4-0.1-0.5,0.1c0,0.1,0,0.3,0.1,0.4c0.3,0.5,0.6,1,1.3,0.9
				C399.3,141.2,399.5,141.1,399.5,140.9z"/>
			<path class="st1" d="M344.2,442.3c-1.1-0.4-2-0.2-2.9,0.3c-0.8,0.5-1,0.4-1.5-0.5c-0.4-0.6-0.8-1-1.5-1.1c-0.4,0-0.8-0.2-1.2-0.4
				c-0.6-0.2-1.1-0.2-1.6,0c-0.6,0.2-1.2,0.3-1.8,0.5c-0.3,0.1-0.7,0-0.9-0.3c-0.5-0.8-1.3-0.9-2.1-0.8c-0.3,0-0.5,0-0.8-0.1
				c-0.5-0.1-0.9-0.4-1.1-0.9c-0.3-0.8-0.6-1.6-0.7-2.4c-0.2-1.4-0.6-2.5-1.5-3.5c-1.2-1.4-1.4-4.7-0.5-6.3c0.5-0.9,0.9-1.1,1.9-0.8
				c0.4,0.1,0.8,0.3,1.2,0.4c1.2,0.2,1.6,0.6,2.2-1.3c0.4-1.4,1.3-2.1,2.6-2.3c1-0.1,1.8-0.7,2.4-1.6c0.3-0.5,0.8-0.9,1.1-1.4
				c0.8-1.4,2-2.1,3.3-2.5c0.4-0.1,0.7-0.3,1-0.7c0.7-0.9,1.5-1.8,2.1-2.9c0.2-0.5,0.6-0.9,1-1.2c0.4-0.5,1-0.5,1.5-0.2
				c0.3,0.2,0.7,0.4,0.8,0.7c0.9,1.6,2.3,2.4,3.8,3.2c0.1,0.1,0.2,0.2,0.3,0.3c0.2,0.3,0.2,0.6,0,0.8c-0.7,0.6-1.6,0.8-1.9,1.9
				c-0.1,0.2-0.5,0.3-0.7,0.4c-0.5,0.2-0.7,0.5-0.7,1c0.1,0.7-0.8,0.9-0.7,1.6c0.1,0.6,0.5,1.1,0.8,1.6c0.1,0.2,0.3,0.4,0.3,0.6
				c0.1,1.5,1,2.5,2,3.4c0.2,0.1,0.3,0.4,0.3,0.6s0,0.5-0.1,0.6c-0.1,0.2-0.4,0.3-0.5,0.3c-1.6,0-2.2,1.1-2.5,2.6
				c-0.3,1.6-0.9,2.9-2.1,3.8c-0.5,0.4-0.7,0.9-0.5,1.6c0.1,0.4,0.2,0.8,0.1,1.1C344.3,439.5,344.2,440.7,344.2,442.3z"/>
			<path class="st1" d="M317.5,438.2c-0.1-0.9-0.9-0.9-1.3-1.4c-0.1-0.2-0.2-0.4-0.1-0.6c0.4-0.7,1.6-0.9,2-0.1
				c0.5,0.9,0.7,1.8,1.4,2.5c0.4,0.4,0.2,1-0.4,1.1c-0.6,0.2-0.8,0.5-1,1.1c-0.3,1.3-0.3,2.6-0.3,3.9c0,3.2-0.1,2.7-2.7,2.9
				c-0.6,0-1.1-0.1-1.5-0.6c-1.2-1.4-2.6-2.5-4-3.7c-0.2-0.2-0.5-0.4-0.6-0.6c-0.8-1.4-2-2.6-3-3.8c-0.5-0.6-0.9-1.3-1.2-2.2
				c-0.6-1.9-1.4-3.7-2.8-5.1c-0.9-0.9-1.4-2.1-1.8-3.3c-0.5-1.5-1.2-2.6-2.5-3.3c-0.5-0.2-0.8-0.7-1-1.1c-0.8-1.3-1.6-2.5-2.8-3.3
				c-0.9-0.6-1.7-1.6-2.4-2.5c-0.4-0.4-0.6-0.9-0.6-1.4c-0.1-0.6,0.4-1.2,0.8-1c1.5,0.8,3.1,0.9,4.7,1.1c0.7,0.1,1.1,0.6,1.5,1.2
				c0.9,1.6,2.1,2.8,3.6,3.8c0.5,0.3,1,0.8,1.4,1.4c0.8,1.4,2.1,2,3.4,2.5c0.5,0.2,1.1,0.2,1.3,0.9c0.1,0.3,0.4,0.3,0.7,0.5
				c1,0.6,2,1.2,2.5,2.5c0.1,0.3,0.3,0.5,0.6,0.6c0.8,0.2,1.1,0.9,0.9,1.8c0,0.1,0,0.2-0.1,0.2c-0.4,1.5,0,2,1.2,2.4
				c0.5,0.2,0.8,0.5,1,1.1c0.1,0.1,0.1,0.3,0.2,0.4C315.1,437.1,316,438.1,317.5,438.2z"/>
			<path class="st1" d="M298.1,39.6c0.5-0.5,0.4-0.9,0.5-1.2c0.3-0.9,1.2-1.2,1.9-0.6c0.4,0.3,0.7,0.7,1,1.2
				c0.9,1.5,1.3,3.1,1.3,4.8c0,0.3-0.1,0.6-0.2,0.9c-0.5,1.2-0.7,2.5-0.6,3.8c0,0.9-0.1,1.7-1.1,1.9c-0.2,0-0.3,0.3-0.2,0.6
				c0.1,0.3,0.3,0.5,0.4,0.8c0.2,0.5,0.5,0.9,0.6,1.5c0.8,2.5-1,4.9-3.4,4.5c-0.5-0.1-1.2-0.2-1.6-0.5c-1.3-1.1-2.9-1.9-4.3-2.9
				c-0.2-0.2-0.5-0.3-0.7-0.5c-0.4-0.6-0.7-0.6-1.2-0.2c-0.4,0.3-0.8,0.2-1.1-0.2c-0.9-1.3-1.8-2.5-1.8-4.3c0-1.5-0.4-1.9-1.7-2.2
				c-0.3-0.1-0.6,0-0.8-0.1c-0.4-0.1-0.6-0.9-0.4-1.1c1.1-1,1.6-2.5,2.7-3.5c0.4-0.3,0.5-0.7,0.4-1.2c-0.3-1.1,0.2-2,0.9-2.6
				c1.1-1,2.2-1.9,3.7-1.6c0.8,0.2,1.5-0.2,2.2-0.6c1.5-0.7,2.5-0.2,2.9,1.6C298,38.2,298,38.8,298.1,39.6z"/>
			<path class="st1" d="M387.7,437.8c-0.5-0.3-1,0.1-1.6,0.1c-1.1,0-2.1-0.1-2.7-1.3c-0.3-0.6-0.8-0.9-1.4-0.9
				c-0.5,0-0.9-0.2-1.3-0.7c-0.3-0.4-0.2-0.9,0.2-1.1c1-0.5,2-1,3.1-1.4c0.5-0.2,1-0.3,1.4-0.2c1.2,0.2,2.2,0.9,3.3,1.4
				c0.5,0.3,0.7,1,0.7,1.6c0,0.5-0.1,0.9-0.1,1.4s0.1,1,0.4,1.3c0.7,0.5,1.2,1.3,1.7,2c0.5,0.6,1.1,0.7,1.6,0.1
				c0.4-0.4,0.7-0.8,1-1.2c0.5-0.7,1.1-1.4,2-1.6c0.4-0.1,0.7-0.4,1-0.8c0.9-1.3,1.9-1.4,3.1-0.6c0.5,0.3,1,0.4,1.5,0.7
				c1.1,0.7,2.2,1.2,3.5,1.2c0.3,0,0.5,0.1,0.8,0.2c0.5,0.2,0.8,0.5,0.9,1.2c0,0.3,0.1,0.6,0.1,0.9c0.1,4.3,0.1,8.7,0.2,13
				c0,0.9,0.1,1.9,0.1,2.8c0,0.3,0,0.6-0.3,0.8c-0.3,0.1-0.5,0-0.8-0.2c-0.5-0.4-1-0.9-1.4-1.4c-0.5-0.6-1.1-0.8-1.9-0.6
				c-0.9,0.2-1.8,0.4-2.7,0.6c-0.3,0.1-0.7,0-1,0c-0.4,0-0.7-0.5-0.6-1c0.2-0.9,0.7-1.5,1.4-1.9c0.6-0.3,0.6-0.7,0.5-1.3
				c-0.4-2.7-1.5-4.6-4-5.3c-1.5-0.4-3-1.2-4.6-1.5c-1.1-0.2-2.1-1.1-3.1-1.7c-0.5-0.3-0.9-0.3-1.3,0.2c-0.2,0.2-0.5,0.4-0.7,0.5
				c-0.4,0.1-0.8,0-0.9-0.4c-0.4-1.1-0.9-2.1-1.8-2.8c-0.2-0.2-0.1-0.7,0.1-0.7c0.9-0.2,1.9-0.5,2.8-0.7
				C387.5,438.2,387.7,438.2,387.7,437.8z"/>
			<path class="st1" d="M403.1,105.9c-0.1,0.1-0.1,0.1-0.2,0.1c-0.4,0.7-0.4,1.9-1.4,1.7c-1.2-0.1-2.4-0.4-2.9-1.8
				c-0.3-0.9-0.8-1.6-1.5-2.1s-1.1-1.4-1.3-2.3c-0.1-0.3-0.1-0.7,0.1-0.9c0.6-0.5,0.6-1.1,0.4-1.9c-0.3-1-0.1-2,0.4-2.8
				c0.3-0.5,0.3-0.8,0.2-1.3c-0.1-0.5-0.1-1,0.3-1.2c0.9-0.5,1.6-1.3,2.3-2c0.2-0.2,0.5-0.3,0.7-0.5c0.4-0.2,0.7-0.1,0.9,0.2
				c1,1.6,2.2,2.9,3.5,4.2c0.3,0.3,0.3,0.8,0.4,1.3c0.1,0.2,0.3,0.4,0.5,0.3s0.4-0.3,0.4-0.5c0-0.7-0.1-1.4-0.1-2.1
				c0-1.6,0.3-2,1.7-2.4c0.4-0.1,0.7,0,0.9,0.3c0.4,0.5,0.9,1,1.3,1.5c0.5,0.7,1.2,1.1,2,0.8c1.1-0.4,1.8-0.1,2.6,0.9
				c0.5,0.7,1.3,1.2,1.9,1.7c0.3,0.3,0.7,0.6,1,0.9s0.4,0.7-0.1,1c-0.9,0.5-1.2,1.1-1.1,2.2c0.1,1-0.6,1.7-1.2,2.3
				c-0.6,0.6-1.3,0.6-2,0.3c-0.6-0.2-0.7,0.1-0.6,0.7c0.1,0.5-0.2,0.7-0.6,0.8c-0.6,0-1.2,0-1.8,0.3c-0.4,0.2-0.7-0.1-0.9-0.3
				c-0.7-0.9-1.5-0.6-2.3-0.2c-0.5,0.2-0.9,0.6-1.5,0.9C404.2,106.8,404.1,106.8,403.1,105.9z M409.3,94.6c-0.2,0-0.2,0.1-0.2,0.3
				c0.1,0.5,0.3,1,0.8,1.2c0.1,0,0.1,0,0.2,0c0,0,0.1-0.1,0.1-0.2C410.1,95.5,409.7,94.7,409.3,94.6z M409.6,100.1
				c-0.1,0.8,0.1,1.5,0.4,2c0,0,0.1,0.1,0.2,0.1s0.1-0.1,0.1-0.1C410.3,101.4,410.1,100.7,409.6,100.1z"/>
			<path class="st1" d="M390.5,329.2c0-0.1,0.1-0.1,0.1-0.2c0.1-0.3,0.3-0.5,0.2-0.9c-0.1-0.3-0.4-0.3-0.7-0.2
				c-0.9,0.2-1.7,0.4-2.6,0.7c-1,0.4-2.2,0.4-3,1.3c-0.3,0.3-0.6,0.2-1,0.2c-0.7,0-1.4,0-2.1,0c-0.1,0-0.1-0.1-0.2-0.1
				c-0.2-0.6-0.2-1.1,0.3-1.4c1.4-0.9,2.7-2,3.8-3.3c0.5-0.6,1.1-0.9,1.9-0.8c1.1,0,2.2-0.1,3.3-0.4c0.7-0.2,1.4-0.2,2,0.1
				c0.9,0.3,1.3,0,1.6-1c0.2-0.9,0.5-1.6,1.1-2.2c0.4-0.5,0.6-1.2,0.8-1.9c0.1-0.4,0.3-0.7,0.5-1c0.1-0.1,0.4-0.2,0.5-0.2
				c0.2,0,0.3,0.3,0.2,0.5c0,0.1-0.1,0.3-0.2,0.4c-0.1,0.3-0.2,0.6,0,0.9c0.3,0.4,0.6,0,0.9-0.1c1.4-0.7,2.3-1.9,3.3-3
				c1.3-1.5,2-3.3,2.6-5.2c0.2-0.5,0.3-1.1,0.1-1.6c-0.5-1.6,0.1-3,0.6-4.4c0.2-0.7,0.4-0.7,1.3-0.5c0.5,0.1,0.5,0.1,0.5-0.7
				c0-0.2-0.1-0.5,0.1-0.6c0.2-0.2,0.5-0.1,0.8,0c0.4,0.2,0.6,0.6,0.6,1.1c0,1.1,0.4,2.1,0.8,3.1c0.2,0.4,0.3,0.9,0.4,1.3
				c0.4,1.1,0.4,2.3-0.2,3.3s-0.7,2.3-1.8,3.1c-0.4,0.3-0.5,0.8-0.4,1.3c0.4,1.6,0.1,3-0.6,4.5c-0.3,0.6-0.3,1.2-0.2,1.8
				c0.3,1.1-0.2,1.9-0.8,2.8c-0.6,0.8-0.8,0.8-1.8,0.4c-0.8-0.4-0.8-0.3-1.3,0.5c-0.2,0.3-0.4,1-0.6,0.7c-0.9-0.9-1.4,0.1-2,0.3
				c-0.8,0.3-1.6,0.2-2.5,0c-0.3-0.1-0.7-0.5-0.9-0.1c-0.1,0.2,0,0.6-0.1,0.9c0,0.2-0.2,0.5-0.3,0.6c-0.6,0.4-0.9,1.1-1.4,1.7
				c-0.7,0.9-1.6,0.9-2.3-0.1c-0.2-0.3-0.3-0.5-0.4-0.8C391.6,329.1,391,329.1,390.5,329.2L390.5,329.2z"/>
			<path class="st1" d="M291.3,16c0.6,0,1,0.4,1.4,0.9c0.7,1.1,1.1,2.3,1.4,3.6c0.4,1.4,1,2.5,2.1,3.3c0.2,0.1,0.3,0.2,0.5,0.4
				c0.2,0.2,0.4,0.4,0.6,0.7c0.5,0.9,0.5,1.9-0.5,2.3c-0.2,0.1-0.4,0.2-0.5,0.3c-0.6,0.3-0.8,0.8-0.8,1.5c0,0.6,0.1,1.2,0.2,1.8
				c0.1,0.5,0.3,1,0.4,1.6c0.3,1.4-0.3,2.2-1.5,2.5c-0.1,0-0.3,0.1-0.4,0c-1.7-0.1-3.1,0.7-4.5,1.7c-0.6,0.5-1.3,0.9-1.9,1.4
				c-0.7,0.5-1.3,0.5-1.9,0c-0.9-0.6-1.7-1.3-2.6-1.9c-0.3-0.2-0.6-0.5-0.7-0.8c-0.2-0.6-0.6-1-1-1.4c-0.6-0.5-0.6-0.9-0.3-1.6
				c0.5-1,1-2,2-2.3c1.5-0.5,1.5-1.9,1.7-3.1c0-0.3-0.1-0.7-0.2-0.8c-1.1-0.8-0.7-1.8-0.4-2.9c0.6-1.6,1.5-2.8,3.1-3.1
				c0.8-0.2,1.6-0.6,2.3-1.2c0.6-0.5,1-0.9,0.8-1.9C290.2,16.4,290.7,16,291.3,16z"/>
			<path class="st1" d="M310.1,52.4c0.2-0.1,0.3-0.1,0.3-0.1c0.3-0.3,0.2-1,0.7-1.1c0.4,0,0.9,0.2,1.4,0.3c0.2,0.1,0.4,0.3,0.4,0.5
				c0.1,1.3,1.4,1.9,1.5,3.1c0.1,0.6,0.6,1,1.1,1.4c0.8,0.6,1.1,1.5,1.1,2.6c0,1.4,0.1,2.8-0.7,4c-0.3,0.4-0.6,0.9-1.1,1
				c-1.6,0.5-3.2,1-4.8,1.5c-0.3,0.1-0.6,0.1-0.8,0c-0.8-0.3-1.6,0.1-2.5,0c-0.8,0-1.3,0.3-1.8,1c-0.6,0.9-1.5,1.4-2.3,2
				c-0.7,0.6-1.5,0.2-1.8-0.7c-0.2-0.8-0.1-1.6,0.2-2.3c1-2.3,1.4-4.8,2.2-7.2c0.5-1.5,0.9-3,1.3-4.5c0.4-1.6,1.2-3.1,1.9-4.6
				c0.2-0.4,0.4-0.4,0.7-0.1c0.2,0.3,0.4,0.4,0.6-0.1c0-0.1,0-0.1,0-0.2c0.3-1.1,0.6-1.4,1.2-1.3c0.8,0.2,1.6,1.1,1.5,1.9
				c0,0.5-0.2,0.9-0.2,1.4C310.3,51.4,310.2,51.9,310.1,52.4z"/>
			<path class="st1" d="M360.3,434.8c-0.3,0.5-0.7,0.9-1.2,1.2c-0.5,0.3-1.1,0.3-1.5,0.9c0,0.7,0.6,1,0.9,1.5c0.5,0.7,1,1.5,0.9,2.5
				c0,0.9,0.6,1.5,1.2,2.1c0.9,0.9,0.8,2.1,0.7,3.2c-0.1,0.4-0.3,0.7-0.7,0.8c-0.4,0.1-0.7-0.1-0.9-0.4c-0.2-0.2-0.4-0.5-0.5-0.7
				c-0.2-0.7-0.6-1-1.2-1c-0.5,0-0.8-0.3-0.9-0.8c-0.1-0.9-0.5-1.6-1-2.3c-0.4-0.6-0.3-1.3-0.5-2c0-0.2-0.1-0.5-0.4-0.5
				c-0.3-0.1-0.5,0.1-0.7,0.4c-0.3,0.4-0.1,0.9-0.1,1.4c0.1,1.6,0.1,3.2-0.1,4.9c-0.1,1-0.5,1.4-1.3,1.3c-0.9,0-1.4-0.6-1.3-1.7
				c0.1-0.8,0.2-1.5,0.2-2.3c0.1-0.9-0.1-1.6-0.9-2.2c-0.9-0.7-1-1.6-0.5-2.7c0.5-1,0.7-2.2,1-3.2c0.5-1.7,1.1-3.3,1.3-5.1
				c0-0.3,0.2-0.7,0.4-0.8c1.2-0.8,2.2-2,3.8-1.5c1.5,0.4,3,0.7,4.5,0.8c1.2,0.1,2.2-0.2,3-1.2c0.3-0.3,0.6-0.6,1-0.8
				c0.1-0.1,0.4,0,0.6,0.1c0.1,0.1,0.3,0.4,0.2,0.6c-0.2,1.4-1.7,3-3,3.2c-0.5,0.1-1.1,0.1-1.6,0c-2.1-0.6-4.3-0.2-6.4-0.1
				c-1.2,0.1-2,1.6-1.5,2.9c0.3,0.7,0.9,1.2,1.5,1.6c0.3,0.2,0.6,0.1,0.8-0.1c1.4-1.3,3.3-1.1,4.9-1.8c0.1,0,0.1,0,0.2,0
				c0.3,0.1,0.6,0.2,0.6,0.5c0,0.2-0.1,0.5-0.3,0.6c-0.3,0.2-0.7,0.4-1.1,0.6C360.5,434.6,360.4,434.7,360.3,434.8z"/>
			<path class="st1" d="M417.5,292.9c0.1,0.1,0.2,0.3,0.2,0.4c-0.1,1.1-0.1,2,0.9,2.6c0.3,0.2,0.2,0.6,0,0.8
				c-0.6,0.7-1.4,1.1-2.3,1.1c-1.8,0-2.7,1-3.2,2.7c-0.1,0.2-0.2,0.4-0.3,0.6c-0.2,0.3-0.5,0.4-0.8,0.2c-0.7-0.4-1.5-0.8-2.2-1.2
				c-0.7-0.4-1.4-0.6-2.2-0.3c-0.1,0.1-0.3,0.1-0.4,0.1c-0.5,0.2-1.2-0.5-1.4,0.3c-0.2,0.6,0.6,0.8,0.9,1.2c0.3,0.4,0.2,0.7-0.1,1
				c-0.3,0.3-0.7,0.5-1,0.7c-0.7,0.4-1,0.3-1.2-0.5c0-0.2,0-0.3,0-0.5c0-0.9-0.5-1.6-0.3-2.5c0.2-1.1,1.2-1.7,1.4-2.8
				c0.1-0.3,0.4-0.4,0.7-0.3c1.1,0.3,1.5-0.3,1.6-1.4c0-0.4,0.2-0.7,0.3-1.1c0.4-1.3,0.7-2.7,0.4-4.1c-0.1-0.3-0.1-0.6-0.1-0.9
				c0-0.7,0.7-1.1,1.2-0.7c0.2,0.2,0.4,0.4,0.6,0.6c0.3,0.3,0.5,0.7,0.8,1.1c1.1,1.5,2.3,2.6,3.9,3.3c0.8,0.3,1.4,0.5,2.1-0.1
				C417.1,292.8,417.3,292.7,417.5,292.9z"/>
			<path class="st1" d="M316.6,450.3c0.6-0.8,0.9-1.3,1.3-1.9c0.3-0.4,0.6-0.6,1.1-0.6c2-0.1,4,0.3,5.6,1.9c0.5,0.5,1.1,0.7,1.7,0.7
				s1.2,0,1.9,0c0.4,0,0.9,0,1.2-0.4c0.6-0.8,1.3-0.8,2.1-0.4c0.5,0.3,1.1,0.3,1.6,0.5c0.9,0.3,1.9,0.5,2.9,0.3
				c0.6-0.1,1.3-0.1,1.8,0.2c0.1,0.1,0.2,0.2,0.2,0.4c0,0.1-0.1,0.3-0.2,0.4c-0.5,0.5-1.2,0.3-1.8,0.5c-0.1,0-0.2,0.2-0.2,0.3
				c0,0.1,0.1,0.3,0.2,0.3c0.2,0.1,0.4,0.2,0.6,0.2c1.8-0.3,3.3,1.1,5,1.3c0.3,0,0.6,0.4,0.6,0.8c0,0.3-0.2,0.6-0.4,0.8
				c-0.2,0.2-0.5,0.3-0.8,0.1c-0.5-0.3-1-0.4-1.6-0.1s-1.2,0-1.8-0.2c-0.8-0.3-1.6-0.3-2.5-0.3c-1.5,0-2.9-0.2-4.3-0.4
				c-0.8-0.1-1.6-0.5-2.3-1c-0.9-0.7-1.9-0.9-3-0.6c-1,0.2-1.9,0.1-2.9-0.2c-0.6-0.2-1.2-0.3-1.8-0.4c-0.5-0.1-1-0.1-1.3-0.5
				C318.8,451,317.9,450.7,316.6,450.3z"/>
			<path class="st1" d="M355.9,392.8c-1.3-1.9-2.4-3.9-2.9-6.3c-0.1-0.5-0.1-1,0.4-1.2c0.6-0.3,0.7-0.9,0.8-1.5
				c0.1-0.8,0.1-1.7,0.2-2.5c0-0.5,0-0.9,0.1-1.4c0.3-1.3,0.8-1.7,1.9-1.5c0.7,0.1,1.3,0.4,2,0.3c0.6-0.1,0.8,0.2,0.7,0.8
				c-0.1,0.9-0.2,1.7,0.2,2.5c0.6,1.3,0.1,2.4-0.5,3.4c-0.1,0.3-0.4,0.4-0.6,0.6c-0.8,1-1.1,2.1-0.7,3.4c0.2,0.5,0.3,1,0.5,1.5
				c0.1,0.3,0.4,0.5,0.7,0.3c0.8-0.8,1.6-0.7,2.4,0c0.8,0.6,1.7,0.5,2.6,0.3c0.3-0.1,0.5,0.1,0.6,0.5c0.1,0.3-0.1,0.6-0.4,0.7
				c-0.1,0.1-0.3,0.1-0.4,0.1c-0.4,0.1-0.5,0.4-0.4,0.8c0.2,0.4,0.5,0.8,0.6,1.2c0.1,0.6-0.1,0.9-0.7,0.7l-0.1-0.1
				c-0.2-0.2-0.4-0.5-0.6-0.6c-0.7-0.1-1.5,0.1-1.1-1.2c-0.4-0.4-0.5-1.6-1.4-0.6c-0.1,0.1-0.4,0-0.5-0.1c-0.8-0.9-1.6-1-2.6-0.4
				C356.4,392.9,356.1,392.8,355.9,392.8L355.9,392.8z"/>
			<path class="st1" d="M363.5,411.3c0-0.2,0-0.5,0-0.7c0-0.5-0.5-0.9-0.9-0.8c-0.8,0.4-1.7,0.6-2.6,0.6c-0.5,0-0.6,0.8-1,1.1
				c-0.2,0.1-0.4,0.2-0.6,0c-0.1-0.1-0.2-0.3-0.2-0.4c0-0.8,0.1-1.6,0.7-2.1c0.8-0.8,1.8-1.4,2.8-2c0.4-0.3,0.8-0.1,1.1,0.3
				c0.4,0.6,0.8,0.3,1.3,0c0.8-0.5,1.4-1.3,2.3-1.5c0.6-0.2,0.5-0.8,0.7-1.3c0.1-0.4,0.5-0.5,0.8-0.3c0.8,0.7,1.6,1.5,1.6,2.8
				c0,0.8,0.3,1.7,0.4,2.5s0.2,1.6-0.2,2.3c-0.2,0.3-0.4,0.8-0.6,0.9c-0.4,0.1-0.4-0.5-0.6-0.8c-0.1-0.3-0.4-0.5-0.6-0.3
				s-0.4,0.5-0.4,0.8c0,0.6,0.3,1.2,0.3,1.8c0.1,0.7-0.5,1.2-1.1,1c-0.3-0.1-0.7-0.2-1-0.3C363.9,414.2,363.4,413.4,363.5,411.3z"/>
			<path class="st1" d="M428.4,107.5c-1.6-0.1-2.9-1-4.2-1.8c-0.4-0.2-0.7-0.6-1-0.8c-0.8-0.4-1.3-1-1.5-2.1s-0.7-2-1.3-2.9
				c-0.2-0.3-0.4-0.7-0.3-1.1c0-0.3,0.3-0.5,0.4-0.3c1.2,1.3,2.7,1.3,4.2,1.5c0.4,0,0.8,0.3,1,0.7c0.2,0.4,0.6,0.7,1,0.7
				c1.8-0.1,3.2,1,4.6,1.8c0.3,0.2,0.5,0.5,0.5,0.9c0.1,1.9-1.1,2.9-2.6,3.3C428.9,107.6,428.6,107.5,428.4,107.5z"/>
			<path class="st1" d="M506.8,138.4c1.9-0.2,3,0.6,4,1.8c1.2,1.3,1.2,2.3-0.5,3c-1.4,0.5-2.7,1.3-4.2,0.7c-0.5-0.2-1,0-1.4,0.3
				s-0.9,0.5-1.4,0.5c-1.2,0-2.1-1.4-1.4-2.6C503.1,139.9,504.5,138.1,506.8,138.4z"/>
			<path class="st1" d="M256.6,410.8c0,2.1-1.3,3.6-2.9,3.9c-0.9,0.1-1.6-0.3-2-1.3c-0.6-1.6-0.7-3.3-0.4-5c0.2-1.2,0.4-2.4,0.6-3.6
				c0.2-1,0.6-1.3,1.2-0.6c1.5,1.7,2.8,3.6,3.4,6C256.6,410.4,256.6,410.7,256.6,410.8z"/>
			<path class="st1" d="M405.4,121.2c-0.5,0-1,0.1-1.5,0.1c-0.2,0-0.3-0.2-0.5-0.4c-0.1-0.2,0-0.5,0.2-0.6c1.1-0.4,1.6-1.3,2-2.5
				c0.3-0.8,0.6-1.6,1.5-1.8c1-0.3,2-0.4,2.8,0.2c1.6,1.2,2.9,2.7,3.1,5c0.1,1.1-0.4,1.7-1.3,1.5c-1.5-0.2-3-0.7-4.4-1.2
				C406.6,121.3,406,121,405.4,121.2z"/>
			<path class="st1" d="M381.4,330.2c0.2,0.2,0.4,0.6,0.6,0.6c1,0.1,1.2,1.1,1.6,1.9s0.2,1.5-0.1,2.2c-0.3,0.7-0.5,1.4-0.7,2.2
				c-0.2,0.9-0.7,1.5-1.2,2.1c-0.6,0.8-2,0.2-2.1-0.8c-0.1-0.7-0.1-1.4,0.1-2.1c0.4-1.4,0.4-1.5-0.9-2.1c-0.5-0.3-0.7-0.7-0.7-1.3
				c-0.1-0.4,0-0.8,0.3-1.1c1-0.7,1.7-1.8,3-1.9C381.3,330.1,381.3,330.1,381.4,330.2z"/>
			<path class="st1" d="M282,44c-0.2,0-0.4-0.1-0.6-0.2c-0.3-0.1-0.5-0.3-0.5-0.7c0-0.3,0.3-0.3,0.4-0.4c0.8-0.4,0.9-0.6,0.3-1
				c-0.7-0.5-0.9-1.3-1.3-2c-0.3-0.5-0.2-1-0.2-1.6c0.1-0.7,0.3-0.9,0.9-1c0.3,0,0.6,0,0.8,0.1c1.2,0.5,2.5,0.9,3.6,1.6
				c1,0.5,1.1,1.4,0.5,2.5C285.2,43.2,283.8,44.1,282,44z"/>
			<path class="st1" d="M358,359.8c-0.2,1.4-0.6,3.1-1.2,4.8c-0.3,0.9-0.7,1.8-1.1,2.7c-0.2,0.5-0.6,0.5-1,0.1
				c-1.2-1.5-2-3.8-0.6-6.1c0.4-0.6,0.7-1.3,1.1-1.9c0.3-0.4,0.6-0.8,1.1-1.1C357.2,357.8,358,358.3,358,359.8z"/>
			<path class="st1" d="M363.6,404.3c-0.9-0.6-1.4,0-2,0.8c-0.4,0.7-0.8,0.6-1.4,0.1c-0.8-0.7-0.8-1.5-0.3-2.5
				c0.3-0.4,0-0.7-0.4-0.9c-0.2-0.1-0.4-0.1-0.6-0.1c-0.5-0.1-0.7-0.4-0.7-0.9c0-0.8,0-1.5,0-2.3c0-0.6,0.4-0.8,0.9-0.6
				c0.9,0.4,2,0.7,2.4,2c0.1,0.5,0.6,0.9,1.2,0.6c0.3-0.1,0.4-0.5,0.7-0.3c0.4,0.2,0.4,0.6,0.3,1c-0.1,0.7,0.1,1.2,0.7,1.5
				c0.3,0.2,0.5,0.6,0.3,1C364.6,404.3,364.2,404.3,363.6,404.3z"/>
			<path class="st1" d="M324.5,376.7c0-0.5,0.2-0.9,0.5-1.2c1.2-1.7,2.9-1.9,4.7-1.8c0.7,0.1,1,0.9,0.7,1.6
				c-0.4,0.9-0.9,1.8-1.4,2.6c-0.9,1.3-1.9,1.6-3.3,1C324.8,378.5,324.4,377.9,324.5,376.7z"/>
			<path class="st1" d="M370.9,454.8c0.2,0.1,0.4,0.2,0.5,0.4c0.1,0.2,0,0.5-0.1,0.6c-0.7,0.6-1.5,1.1-2.4,1.4
				c-1.2,0.4-2.3,1-3.1,2.1c-0.6,0.7-1.3,1.1-2.2,1.2c-0.5,0.1-0.9-0.3-1-0.9c0-0.7,0.1-1.5,0.7-1.8c1.3-0.8,2.5-1.9,4-2.3
				C368.4,455.1,369.7,455,370.9,454.8z"/>
			<path class="st1" d="M390.5,329.2c0.3,0.7,0.5,1.3,0,2c-0.4,0.7-0.9,1.1-1.7,0.9c-0.7-0.1-1.2,0.2-1.6,0.9
				c-0.1,0.3-0.3,0.5-0.5,0.7c-0.3,0.4-0.7,0.4-1.1,0.1c-0.5-0.5-0.7-1.1-1-1.8c-0.1-0.2,0-0.5,0.1-0.6c0.4-0.7,0.9-1.4,1.7-1.5
				c0.5-0.1,1.1-0.1,1.5-0.6C388.8,328.5,389.6,328.7,390.5,329.2L390.5,329.2z"/>
			<path class="st1" d="M334.1,109.6c0.4,0.1,1,0.1,1.5,0.3c0.7,0.2,1.1,0.9,1,1.8s-0.5,1.6-1.2,2.1c-0.6,0.4-1.2,0.4-1.8,0.1
				c-0.6-0.4-1.1-0.9-1.6-1.4c-0.2-0.2-0.2-0.6,0-0.8c0.4-0.5,0.8-0.8,1-1.5C333.1,109.6,333.5,109.5,334.1,109.6z"/>
			<path class="st1" d="M372.9,432.8c0-1.4-0.3-2.8-0.7-4.1c-0.2-1-0.2-1.8,0.3-2.7c0.2-0.3,0.4-0.7,0.8-0.6
				c0.3,0.1,0.3,0.5,0.3,0.8c0.1,0.5,0.4,0.7,0.8,0.9c1,0.3,1,0.4,0.8,1.4c0,0.3-0.2,0.6-0.1,0.9c0.1,0.8-0.3,1.1-0.9,1.2
				c-0.7,0.1-0.7,0.7-0.6,1.2c0.1,0.4,0.2,0.7,0.4,1.1c0.1,0.2,0.1,0.5-0.1,0.6s-0.4-0.1-0.6-0.1
				C373.2,433.1,373.1,432.9,372.9,432.8z"/>
			<path class="st1" d="M346.6,457c-1-0.2-1.9-0.7-3-0.6c-0.1,0-0.3-0.3-0.3-0.5c-0.1-1,0.8-1.7,1.6-1.2c0.4,0.2,0.7,0.5,1.1,0.3
				s1.1,0,1.4-0.2c1.1-0.9,2.1,0,3.1,0.1c0.1,0,0.3,0.3,0.3,0.5s-0.1,0.5-0.2,0.5C349.3,456.3,347.9,456.6,346.6,457z"/>
			<path class="st1" d="M376.1,439.3c1.3-0.2,2.3,0.3,3.4,0.5c0.6,0.1,1,0.6,1.2,1.2c0.1,0.2,0,0.5,0,0.6c-0.1,0.3-0.3,0.3-0.5,0.2
				c-0.2,0-0.4-0.1-0.6-0.2c-1.6-0.9-3.2-0.7-4.8-0.2c-0.4,0.1-0.8,0.4-1.1-0.2c-0.3-0.7-0.1-1.5,0.5-1.7c0.3-0.1,0.5-0.2,0.8-0.2
				C375.4,439.3,375.8,439.3,376.1,439.3z"/>
			<path class="st1" d="M278.7,16.9c0.8,0,1.4,0.1,1.9,0.5c0.5,0.3,0.7,1,0.6,1.6s-0.6,1.1-1.1,1.2c-0.8,0.1-1.7-0.1-2.4-0.5
				c-0.4-0.2-0.6-0.6-0.7-1.1c0-0.6,0.2-1.1,0.6-1.3C278.1,17.1,278.5,17,278.7,16.9z"/>
			<path class="st1" d="M352.4,400.5c0,1-0.1,1.6-0.5,1.9c-1.1,0.9-1.7,2.2-2.7,3.2c-0.7,0.7-1.3,1.3-2.1,1.8
				c-0.2,0.1-0.4,0.1-0.5-0.1s-0.1-0.5-0.1-0.6c0.1-0.3,0.4-0.7,0.6-0.9c1.2-0.9,2-2,3-3.1c0.5-0.6,1-1.2,1.3-2.1
				c0.1-0.3,0.2-0.8,0.7-0.6C352.4,400.2,352.4,400.6,352.4,400.5z"/>
			<path class="st1" d="M132.6,327.8c-0.1-0.1-0.4-0.1-0.7-0.2c-0.7-0.3-0.8-1.3-0.2-1.7c0.5-0.3,1-0.7,1.5-0.8c1-0.3,2-0.5,3-0.9
				c0.1,0,0.3,0,0.4,0.1c0.1,0.1,0.1,0.3,0.1,0.4C135.9,326.6,134.6,327.6,132.6,327.8z"/>
			<path class="st1" d="M475.2,154c-0.2-0.2-0.4-0.4-0.5-0.6c-0.1-0.6-0.2-1.2,0.3-1.6c0.6-0.4,1.1-0.5,1.7-0.1
				c0.4,0.3,0.8,0.5,1.2,0.9c0.5,0.4,0.6,1,0.5,1.6c-0.1,0.9-0.8,1.3-1.5,1C476.2,155,475.8,154.4,475.2,154z"/>
			<path class="st1" d="M228.5,120.5c0.4,0,0.8,0.1,1.1,0.6c0.3,0.6,0.6,1.2,0.8,1.8c0.1,0.3-0.1,0.6-0.3,0.8
				c-0.7,0.7-1.6,0.7-2.5,0.9c-0.1,0-0.5-0.2-0.5-0.3c-0.2-1.2-0.1-2.3,0.5-3.3C227.8,120.7,228.1,120.5,228.5,120.5z"/>
			<path class="st1" d="M356.2,456.5c-0.9-0.2-1.8-0.4-2.7-0.6c-0.2-0.1-0.3-0.6-0.1-0.8c0.4-0.6,1-0.8,1.6-0.7
				c0.4,0,0.8,0.2,1.2,0.3c1.5,0.5,2.9,0.8,4.3-0.3c0.1-0.1,0.3,0,0.4,0.1c0.1,0.2,0.1,0.5,0.1,0.6c-0.3,0.6-0.8,0.8-1.3,0.9
				C358.5,456.2,357.4,456.3,356.2,456.5z"/>
			<path class="st1" d="M365.8,399.2c0-0.5-0.2-1-0.6-1.4c-0.3-0.3-0.5-0.5-0.7-0.9s0-1,0.4-1.1c1.2-0.4,2.2,0.2,2.4,1.6
				c0.1,0.7,0.2,1.4,0.3,2.1c0.1,0.5-0.2,0.7-0.8,0.6c-0.1,0-0.3-0.1-0.4-0.2C366.2,399.7,366,399.4,365.8,399.2z"/>
			<path class="st1" d="M404.2,114.1c0.1-0.4,0.1-0.8,0.2-1.3c0.2-0.5,0.7-0.8,1.2-0.8c0.5,0.1,0.7,0.4,0.9,0.8
				c0.3,1.2,0,2.1-0.8,2.9c-0.5,0.4-1.2,0.2-1.3-0.5C404.3,114.9,404.3,114.5,404.2,114.1z"/>
			<path class="st1" d="M352.3,457.4c1.2-0.1,2.1,0.6,2.8,1.5c0.2,0.2,0.3,0.6,0.1,0.9c-0.2,0.4-0.5,0.5-0.9,0.4
				c-0.3-0.1-0.7-0.3-1-0.4c-0.6-0.3-1.1-0.6-1.7-0.9c-0.3-0.1-0.5-0.3-0.5-0.7c0-0.3,0.3-0.5,0.5-0.6
				C352,457.5,352.2,457.5,352.3,457.4z"/>
			<path class="st1" d="M355.8,392.8c1,0.7,1.5,1.6,1.4,2.8c0,0.4-0.2,0.8-0.5,0.9c-0.4,0.1-0.7,0-0.9-0.4c-0.4-0.8-0.8-1.6-1.1-2.4
				c-0.2-0.5-0.1-0.7,0.6-0.9C355.4,392.8,355.6,392.9,355.8,392.8L355.8,392.8z"/>
			<path class="st1" d="M463.6,227.4c-0.1-0.1-0.2-0.2-0.2-0.3c0.2-0.7,0.3-1.3,0.6-1.9c0.4-0.8,1.1-1.1,1.9-1.2
				c0.3,0,0.7,0.4,0.6,0.8c-0.1,0.3-0.1,0.6-0.3,0.8c-0.7,0.7-1.5,1.3-2.3,1.9C463.8,227.5,463.7,227.4,463.6,227.4z"/>
			<path class="st1" d="M291.7,82.7c-0.2-0.1-0.4-0.2-0.7-0.3c-0.3-0.2-0.5-0.7-0.2-0.9c0.7-0.6,1.3-1.2,2.1-1.8
				c0.3-0.2,0.5,0.1,0.6,0.4C293.8,81.2,292.8,82.7,291.7,82.7z"/>
			<path class="st1" d="M426.5,287.9c0,0.1,0,0.3-0.1,0.4c-0.2,0.2-0.4,0.5-0.6,0.6c-1,0.7-2,1.4-2.8,2.3c-0.1,0.1-0.4,0.2-0.5,0.1
				c-0.2-0.1-0.2-0.4-0.1-0.6c0.6-1.2,1.3-2.4,2.7-2.7c0.4-0.1,0.8-0.3,1.1-0.5C426.2,287.7,426.4,287.8,426.5,287.9z"/>
			<path class="st1" d="M369.7,439.8c0.6,0,1.1,0.1,1.5,0.6s0.3,1.2-0.2,1.5c-0.7,0.4-1.3,0.2-1.9-0.3c-0.3-0.3-0.5-0.7-0.4-1.2
				C368.9,439.9,369.4,439.9,369.7,439.8z"/>
			<path class="st1" d="M250.8,127c0,0.9-0.6,1.2-1.2,0.9c-1-0.6-1-2,0-2.8c0.3-0.2,0.5,0,0.7,0.2
				C250.6,125.7,250.8,126.3,250.8,127z"/>
			<path class="st1" d="M390.8,448c0.1,0.7-0.1,1.3-0.4,1.8c-0.2,0.4-0.4,0.8-0.9,0.8c-0.3,0-0.5-0.6-0.3-1.4
				c0.1-0.7,0.4-1.3,0.6-1.9c0.1-0.2,0.3-0.3,0.5-0.3s0.3,0.2,0.4,0.4C390.8,447.6,390.8,447.9,390.8,448z"/>
			<path class="st1" d="M365.8,399.2c0.2,0.2,0.4,0.5,0.6,0.7c0,0.8,0.1,1.5,0.1,2.3c0,0.2-0.2,0.4-0.3,0.5
				c-0.2,0.1-0.4,0.1-0.5-0.2c-0.4-0.9-0.8-1.8-1.1-2.7c-0.1-0.3-0.1-0.6,0.2-0.8c0.1-0.1,0.4,0,0.6,0
				C365.4,399.1,365.6,399.1,365.8,399.2z"/>
			<path class="st1" d="M392.6,95.5c1.4,1.6,1.1,3.2,0.7,4.7c0,0.1-0.2,0.3-0.3,0.3c-0.2,0-0.4-0.2-0.5-0.3
				c-0.1-0.2-0.2-0.4-0.1-0.7C392.4,98.3,392.5,97,392.6,95.5z"/>
			<path class="st1" d="M257.3,101.9c-0.3-0.2-0.5-0.3-0.7-0.4c-0.3-0.2-0.7-0.1-0.8-0.6s0-0.9,0.3-1.3c0.3-0.3,0.6-1,1.2-0.7
				c0.5,0.2,0.6,0.8,0.5,1.4C257.7,100.8,257.5,101.3,257.3,101.9z"/>
			<path class="st1" d="M398.3,247.3c-0.4,0-0.7-0.1-0.9-0.5c-0.3-0.7,0.4-1.8,1-2c0.4-0.1,0.7,0.1,0.8,0.5
				C399.5,246,399,247.2,398.3,247.3z"/>
			<path class="st1" d="M445.6,265.6c-0.4,1.3-1,2.3-2.2,2.8c-0.1,0.1-0.3,0-0.4-0.1s-0.2-0.3-0.1-0.4c0.7-0.9,1.1-2.1,2.3-2.5
				C445.2,265.5,445.4,265.6,445.6,265.6z"/>
			<path class="st1" d="M321,65.7c0.5,0,1,0,1.2,0.6c0.1,0.2,0,0.5-0.1,0.7c-0.3,0.5-0.8,0.5-1.3,0.3c-0.4-0.2-1-0.2-1.2-0.8
				C319.6,66.1,320.2,65.7,321,65.7z"/>
			<path class="st1" d="M363,395.7c0,0.7,0.4,1.1,0.5,1.7c0,0.1,0,0.3-0.1,0.4s-0.3,0.2-0.4,0.1c-0.5-0.2-1-0.5-1.5-0.8
				c-0.4-0.3-0.3-1.1,0.2-1.3c0.3-0.1,0.7-0.2,1-0.3L363,395.7z"/>
			<path class="st1" d="M285,394.7c-0.1,0.6-0.3,1.5-0.5,2.4c-0.1,0.4-0.1,1.1-0.6,0.9c-0.3-0.1,0-0.7,0-1c0.1-1,0.3-1.9,0.4-2.9
				c0-0.2,0.2-0.5,0.4-0.4c0.1,0.1,0.2,0.4,0.2,0.6C285,394.3,285,394.4,285,394.7z"/>
			<path class="st1" d="M292.1,84.9c0.3,0,0.7,0,1,0c0.2,0,0.4,0.2,0.3,0.5c0,0.2-0.2,0.4-0.3,0.5c-0.5,0.3-0.9,0-1.4-0.1
				s-0.9-0.1-1.4-0.2c-0.1,0-0.2-0.2-0.2-0.3c0-0.1,0.1-0.3,0.2-0.3C290.8,84.8,291.4,84.7,292.1,84.9z"/>
			<path class="st1" d="M259.2,113.5c0.6,0,1.1-0.1,1.5,0.3c0.1,0.1,0.1,0.3,0.1,0.4s-0.1,0.3-0.2,0.3c-0.8,0.2-1.6,0-2.4-0.2
				c-0.1,0-0.2-0.3-0.1-0.4c0-0.1,0.1-0.3,0.2-0.3C258.6,113.5,258.9,113.5,259.2,113.5z"/>
			<path class="st1" d="M332.9,86.6c0.4-0.8,0.8-1.1,1.1-0.9c0.6,0.3,0.9,1.3,0.7,1.9c-0.1,0.2-0.3,0.3-0.5,0.2
				C333.8,87.4,333.3,87,332.9,86.6L332.9,86.6z"/>
			<path class="st1" d="M297.6,429c-0.1,0.1-0.2,0.2-0.3,0.3c-0.1,0-0.3,0-0.4-0.1c-0.8-0.7-1.2-1.3-0.9-1.8c0-0.1,0.2-0.2,0.3-0.2
				c0.7,0.2,1.1,0.8,1.3,1.6C297.7,428.8,297.7,428.9,297.6,429z"/>
			<path class="st1" d="M394.5,115.6c0,0.1-0.1,0.2-0.1,0.2c-0.1,0.1-0.3,0.1-0.4,0.1c-0.8-0.7-1.2-1.6-1.6-2.6c0,0,0-0.1,0.1-0.2
				c0,0,0.1-0.1,0.2-0.1c0.8,0.6,1.4,1.4,1.8,2.4C394.5,115.5,394.5,115.6,394.5,115.6z"/>
			<path class="st1" d="M240.4,121c-0.3-0.1-0.4-0.3-0.3-0.5c0.3-0.9,0.9-1.2,1.8-1c0.1,0,0.3,0.1,0.3,0.2c0.1,0.3,0,0.4-0.2,0.5
				C241.5,120.5,241,121,240.4,121z"/>
			<path class="st1" d="M323.6,439.3c0,0.5-0.3,0.7-0.6,0.8c-0.5,0-0.8-0.4-0.8-0.8s0.3-0.7,0.6-0.7
				C323.3,438.5,323.6,438.9,323.6,439.3z"/>
			<path class="st1" d="M430.6,285.2c0,0.1,0,0.2,0,0.2c-0.3,0.7-0.8,1.2-1.5,1.6c-0.1,0.1-0.3,0-0.4-0.1s-0.1-0.3-0.1-0.4
				c0.3-0.7,0.8-1.2,1.4-1.6c0.1,0,0.2-0.1,0.2,0C430.5,285,430.5,285.1,430.6,285.2z"/>
			<path class="st1" d="M469.8,244.1c0.1,0,0.3,0,0.4,0.1c0.5,0.6,0.8,1.2,0.9,2c0,0.1-0.1,0.3-0.2,0.3s-0.3,0-0.4-0.1
				c-0.5-0.5-0.9-1.2-0.9-2C469.6,244.4,469.8,244.2,469.8,244.1z"/>
			<path class="st1" d="M368.8,453.9c-0.2,0-0.5-0.1-0.5-0.4c0-0.2,0.2-0.5,0.3-0.5c0.4-0.2,0.9-0.3,1.4-0.4c0.2,0,0.4,0.2,0.4,0.4
				c0,0.2-0.1,0.4-0.2,0.5C369.8,453.9,369.3,453.8,368.8,453.9z"/>
			<path class="st1" d="M238.7,126.5c-0.6-0.2-1.1-0.5-1.2-1.3c0-0.4,0.1-0.8,0.5-0.8c0.4-0.1,0.7,0.2,0.7,0.6
				C238.7,125.5,238.7,126,238.7,126.5L238.7,126.5z"/>
			<path class="st1" d="M301,435.7c-0.1,0.2-0.2,0.4-0.3,0.4c-0.1,0-0.3,0-0.4,0c-0.3-0.3-0.5-0.5-0.7-0.9c-0.3-0.5-0.1-1.1,0.2-1.2
				c0.4-0.1,0.6,0.3,0.8,0.6C300.7,435,300.9,435.4,301,435.7z"/>
			<path class="st1" d="M283.3,48.3c-0.1,0-0.3,0-0.4,0c-0.5,0-0.8-0.3-0.7-0.6c0.1-0.3,0.4-0.5,0.7-0.4c0.5,0.1,0.9,0.2,1.4,0.3
				c0.1,0,0.2,0.3,0.2,0.4c0,0.1-0.2,0.3-0.3,0.3C283.9,48.3,283.6,48.2,283.3,48.3L283.3,48.3z"/>
			<path class="st1" d="M420.1,292.1c0,0.1,0.1,0.2,0,0.2c-0.3,0.9-0.8,1.5-1.6,2c0,0-0.1,0-0.2-0.1c-0.1,0-0.1-0.1-0.1-0.2
				c0.3-0.9,0.7-1.7,1.5-2.1C419.8,291.9,420,292,420.1,292.1z"/>
			<path class="st1" d="M318.4,65.3c-0.2-0.1-0.4-0.2-0.3-0.5c0.1-0.6,0.5-0.9,0.9-1.2c0.1-0.1,0.4,0,0.5,0.1
				c0.2,0.1,0.2,0.4,0.1,0.6C319.3,64.8,319,65.3,318.4,65.3z"/>
			<path class="st1" d="M276.2,78.5c0,0.4-0.1,0.8-0.5,0.8c-0.3,0-0.6-0.4-0.5-0.8c0-0.4,0.2-0.8,0.6-0.8
				C276,77.7,276.1,78.1,276.2,78.5z"/>
			<path class="st1" d="M314.3,430.9c0.6,0.2,0.7,1.2,0.2,1.7c-0.1,0.1-0.3,0.1-0.4,0c-0.4-0.3-0.5-1.1-0.2-1.6
				C314,431,314.2,431,314.3,430.9z"/>
			<path class="st1" d="M382.2,453.6c-0.2,0-0.4-0.2-0.4-0.4c-0.1-0.6,0.1-1.1,0.5-1.3c0.2-0.1,0.4-0.1,0.5,0.2c0.2,0.6,0,1-0.3,1.4
				C382.5,453.6,382.3,453.6,382.2,453.6z"/>
			<path class="st1" d="M395.2,436.7c-0.4,0-0.7-0.1-1-0.1c-0.4-0.1-0.8-0.4-0.6-0.6c0.2-0.3,0.5-0.2,0.7-0.1c0.3,0.1,0.7,0.1,1,0.2
				c0.2,0.1,0.5,0.2,0.5,0.3C395.7,436.8,395.4,436.6,395.2,436.7z"/>
			<path class="st1" d="M296.5,85.7c-0.1,0.2-0.2,0.3-0.3,0.4c-0.1,0-0.3-0.1-0.3-0.2c-0.1-0.6-0.3-1.1-0.4-1.7
				c0-0.1,0.2-0.2,0.3-0.2c0.1,0,0.3,0,0.3,0.1C296.3,84.6,296.4,85.2,296.5,85.7z"/>
			<path class="st1" d="M322.2,77.3c0,0.5-0.3,0.7-0.6,0.7c-0.3,0-0.5-0.2-0.5-0.5c0-0.4,0.2-0.7,0.6-0.8
				C321.9,76.7,322.1,76.9,322.2,77.3z"/>
			<path class="st1" d="M519.8,258c0.1,0.1,0.3,0.1,0.3,0.2c0.2,0.4,0,0.7-0.2,1c-0.2,0.2-0.5,0.3-0.7,0.2c-0.1,0-0.1-0.1-0.1-0.2
				C518.9,258.7,519.3,258.1,519.8,258z"/>
			<path class="st1" d="M258.8,93.3c0.4,0.1,0.8,0.1,1,0.5c0,0,0,0.1,0,0.2s-0.1,0.1-0.1,0.2c-0.5,0.2-1-0.1-1.5-0.3
				c-0.1,0-0.1-0.3-0.1-0.3c0-0.1,0.2-0.2,0.3-0.3C258.5,93.3,258.7,93.3,258.8,93.3z"/>
			<path class="st1" d="M374,353.7c-0.1,0.6-0.4,0.9-0.8,1.1c-0.1,0-0.3-0.1-0.3-0.2c-0.1-0.6,0.3-0.9,0.7-1.2c0.1,0,0.3,0,0.4,0.1
				C374,353.5,374,353.6,374,353.7z"/>
			<path class="st1" d="M368.8,436.7c-0.1,0.3-0.1,0.6-0.5,0.5c-0.2,0-0.4-0.2-0.6-0.3c-0.1-0.1-0.2-0.2-0.3-0.3
				c0-0.3,0.2-0.3,0.4-0.4C368.5,436.1,368.8,436.3,368.8,436.7z"/>
			<path class="st1" d="M394.3,434.3c-0.1,0.1-0.1,0.1-0.1,0.2c-0.4,0.2-1-0.2-1.1-0.7c0-0.1,0.1-0.3,0.2-0.3c0.5-0.1,0.8,0.2,1,0.6
				C394.3,434.1,394.3,434.2,394.3,434.3z"/>
			<path class="st1" d="M380.3,431.5c0.3-0.1,0.7,0.1,0.9,0.3c0.1,0.1,0.1,0.3,0.1,0.4c-0.1,0.1-0.2,0.2-0.3,0.2
				c-0.3,0.1-0.6,0-0.9-0.3c-0.1-0.1-0.1-0.3-0.1-0.4C380,431.7,380.2,431.6,380.3,431.5z"/>
			<path class="st1" d="M510.1,260.1c0.2,0.1,0.4,0.1,0.5,0.2c0.3,0.2,0.6,0.4,0.6,0.8c0,0.1-0.2,0.2-0.3,0.2c-0.6,0-0.9-0.3-1-0.8
				C509.8,260.3,510,260.2,510.1,260.1z"/>
			<path class="st1" d="M369.9,332.6c-0.3-0.1-0.4-0.2-0.4-0.5c0.1-0.4,0.4-0.6,0.8-0.5c0.2,0,0.4,0.2,0.3,0.5
				C370.5,332.5,370.2,332.7,369.9,332.6z"/>
			<path class="st1" d="M487.6,255.7c0,0.1-0.1,0.3-0.1,0.4c-0.4,0.2-1,0.1-1.2-0.4c0-0.1,0-0.2,0-0.2c0.2-0.1,0.4-0.2,0.5-0.2
				C487.1,255.2,487.5,255.2,487.6,255.7z"/>
			<path class="st1" d="M303,438.8c0.5,0.2,0.7,0.7,0.7,1.2c0,0.1-0.1,0.2-0.2,0.3h-0.2c-0.2-0.4-0.5-0.7-0.7-1.1
				c0-0.1,0.1-0.3,0.1-0.4C302.9,438.8,303,438.8,303,438.8z"/>
			<path class="st1" d="M242.6,122.9c0.3,0,0.6,0.1,0.6,0.5s-0.3,0.4-0.6,0.4c-0.3-0.1-0.5-0.2-0.5-0.6
				C242.2,122.9,242.4,122.9,242.6,122.9z"/>
			<path class="st1" d="M262.5,114.6c0.1,0,0.2,0,0.4,0.1c0.2,0.1,0.3,0.3,0.2,0.5c-0.1,0.1-0.2,0.2-0.3,0.2c-0.1,0-0.3,0-0.4-0.1
				s-0.3-0.2-0.3-0.3C262,114.8,262.2,114.6,262.5,114.6z"/>
			<path class="st1" d="M323.3,419.8c0.3,0,0.5,0.2,0.5,0.6c0,0.3-0.1,0.6-0.4,0.5s-0.4-0.3-0.4-0.7
				C323,420,323.1,419.8,323.3,419.8z"/>
			<path class="st1" d="M374.9,424.2c0.2,0.1,0.4,0.2,0.3,0.5c0,0.3-0.2,0.5-0.5,0.5c-0.2,0-0.4-0.2-0.3-0.4
				C374.4,424.4,374.6,424.2,374.9,424.2z"/>
			<path class="st1" d="M360.5,434.5c0.3,0.1,0.7,0.1,1,0.2s0.5,0.3,0.4,0.6c-0.1,0.3-0.4,0.3-0.7,0.2c-0.5,0-0.7-0.4-0.9-0.8
				C360.4,434.7,360.5,434.6,360.5,434.5z"/>
			<path class="st1" d="M373.7,435.6c0,0.3-0.1,0.4-0.4,0.5c-0.3,0-0.7,0-0.8-0.4c-0.1-0.3,0.1-0.4,0.4-0.5S373.5,435.2,373.7,435.6
				z"/>
			<path class="st1" d="M365.5,436c0.2,0.1,0.4,0.1,0.5,0.1s0.1,0.1,0.1,0.1c0,0.1-0.1,0.3-0.1,0.4c-0.3,0.3-0.7,0.4-1.1,0.1
				c-0.1,0-0.1-0.1-0.1-0.2s0-0.3,0.1-0.4C365.1,436.1,365.3,436,365.5,436z"/>
			<path class="st1" d="M379.6,436.6c0,0.4-0.2,0.5-0.5,0.5c-0.4,0.1-0.8-0.2-0.7-0.5c0.1-0.3,0.3-0.5,0.6-0.5
				C379.3,436.1,379.5,436.2,379.6,436.6z"/>
			<path class="st1" d="M274.4,79.9c0,0.2,0,0.5-0.2,0.6c-0.3,0.1-0.4-0.1-0.4-0.3c0-0.2,0-0.5,0.2-0.6S274.3,79.7,274.4,79.9z"/>
			<path class="st1" d="M513.7,260c0.3,0.1,0.4,0.3,0.3,0.7c0,0.3-0.2,0.4-0.4,0.4c-0.4,0-0.4-0.3-0.4-0.7
				C513.2,260.2,513.4,260,513.7,260z"/>
			<path class="st1" d="M365.9,454.7c-0.1,0.3-0.4,0.4-0.7,0.3c-0.2-0.1-0.3-0.3-0.2-0.5c0.1-0.2,0.3-0.2,0.5-0.2
				C365.8,454.3,365.9,454.4,365.9,454.7z"/>
			<path class="st1" d="M372.9,432.8c0.1,0.2,0.3,0.4,0.5,0.5c-0.3,0.2-0.6,0.4-0.9,0.2c-0.4-0.2-0.5-0.7-0.3-0.9
				C372.4,432.4,372.7,432.7,372.9,432.8z"/>
			<path class="st1" d="M293.3,424c-0.2,0.1-0.3,0.2-0.4,0.2c-0.3-0.1-0.6-0.2-0.6-0.7c0-0.1,0.2-0.2,0.3-0.2
				C293,423.4,293.2,423.6,293.3,424z"/>
			<path class="st1" d="M250.2,109.5c-0.2-0.1-0.4-0.2-0.3-0.5c0.1-0.3,0.3-0.4,0.5-0.3c0.1,0.1,0.2,0.2,0.2,0.3
				C250.6,109.4,250.5,109.5,250.2,109.5z"/>
			<path class="st1" d="M356.7,414.8c-0.1,0.2-0.3,0.3-0.5,0.2c-0.2-0.1-0.3-0.3-0.1-0.5c0.1-0.1,0.3-0.1,0.5,0
				C356.6,414.4,356.6,414.6,356.7,414.8z"/>
			<path class="st1" d="M396.4,245.2c0.2,0.1,0.3,0.3,0.2,0.5c-0.2,0.3-0.4,0.4-0.7,0.3c-0.2-0.1-0.2-0.2-0.1-0.4
				C395.9,245.3,396.1,245.1,396.4,245.2z"/>
			<path class="st1" d="M435.1,281.4c0,0.3-0.1,0.5-0.4,0.7c-0.1,0-0.3,0-0.3-0.1c-0.1-0.2-0.1-0.4,0.1-0.6c0.1-0.1,0.3-0.2,0.5-0.2
				C435,281.2,435,281.3,435.1,281.4z"/>
			<path class="st1" d="M362.7,454.9c-0.1,0.2-0.2,0.4-0.5,0.4c-0.2,0-0.3-0.2-0.2-0.5c0.1-0.2,0.3-0.3,0.5-0.2
				C362.6,454.6,362.7,454.8,362.7,454.9z"/>
			<path class="st1" d="M400.2,315.3c0.2,0.1,0.2,0.3,0.2,0.5c-0.1,0.2-0.2,0.4-0.4,0.3c-0.2-0.1-0.3-0.3-0.2-0.5
				C399.9,315.5,400,315.3,400.2,315.3z"/>
			<path class="st1" d="M364.6,115.8c0.1,0.1,0.3,0.1,0.3,0.2c0,0.3-0.1,0.4-0.3,0.4c-0.1,0-0.2-0.2-0.2-0.3
				C364.4,116,364.5,115.9,364.6,115.8z"/>
			<path class="st1" d="M456.1,144.7c-0.2-0.1-0.3-0.3-0.2-0.5c0-0.1,0.2-0.2,0.3-0.2c0.2,0,0.3,0.3,0.2,0.5
				C456.3,144.6,456.2,144.7,456.1,144.7z"/>
			<path class="st1" d="M361.8,461.4c0,0.3-0.4,0.7-0.7,0.6c-0.2-0.1-0.2-0.2-0.1-0.4c0.1-0.2,0.3-0.3,0.5-0.4
				C361.7,461.1,361.8,461.2,361.8,461.4z"/>
			<path class="st1" d="M502.9,262.4c-0.3,0-0.5-0.2-0.6-0.5c0-0.1-0.1-0.2,0-0.2c0.1-0.1,0.3-0.2,0.4-0.1c0.2,0.1,0.3,0.3,0.5,0.4
				C503.2,262.2,503.1,262.4,502.9,262.4z"/>
			<path class="st1" d="M319.9,75.8c-0.1,0.2-0.2,0.4-0.4,0.4c-0.3,0-0.3-0.3-0.2-0.5c0.1-0.2,0.3-0.3,0.5-0.3
				C319.8,75.5,319.8,75.7,319.9,75.8z"/>
			<path class="st1" d="M314.2,428c0.2,0,0.4,0.1,0.4,0.4c0,0.1-0.1,0.3-0.2,0.3c-0.2,0-0.4-0.1-0.3-0.4
				C314,428.2,314.2,428.1,314.2,428z"/>
			<path class="st1" d="M358.5,413.1c-0.1-0.1-0.2-0.2-0.2-0.3c0-0.3,0.2-0.4,0.4-0.3c0.1,0,0.2,0.3,0.1,0.4
				C358.8,413,358.6,413.1,358.5,413.1z"/>
		</g>
	</g>
</g>
</svg>
