<?xml version="1.0" encoding="utf-8"?>
<!-- Generator: Adobe Illustrator 20.0.0, SVG Export Plug-In . SVG Version: 6.00 Build 0)  -->
<svg version="1.1" id="Vrstva_1" xmlns="http://www.w3.org/2000/svg" xmlns:xlink="http://www.w3.org/1999/xlink" x="0px" y="0px"
	 viewBox="0 0 640 480" style="enable-background:new 0 0 640 480;" xml:space="preserve">
<style type="text/css">
	.st0{fill:#0061FF;}
	.st1{fill:#FFD600;}
</style>
<g id="Layer_1">
	<title>africa</title>
	<rect x="-0.2" class="st0" width="640" height="480"/>
</g>
<g id="Vrstva_2">
	<g>
		<path class="st1" d="M170.9,130.9c-0.7-5.9-0.6-6.7,2.3-10.8c1.3-1.9,2.3-3.7,3.2-6c1.6-4.3,5.5-5.7,9.4-6.4
			c1.2-0.2,2.6,0.1,3.8,0.1c1.3,0,2.5-0.4,3.6-1.3c1.2-0.9,1.4-2.7,0.2-3.6c-1-0.8-2.2-1.5-3.2-2.3c-0.2-0.2-0.3-0.9-0.2-1.3
			s0.5-0.8,0.8-0.9c2.3-0.6,4.3,0.6,6.1,1.8c4.3,2.9,9.2,3.6,14,5.1c2.3,0.7,4.6,1.2,7,0.4c1.3-0.4,2.6-0.4,3.6,0.7
			c1.1,1.2,1.8,0.5,2.8-0.2c1.3-1,2.5-0.2,3.5,0.8c1.1,1,1.4,2.4,0.8,3.9c-0.8,2.4-1.5,5-3.7,6.6c-1.1,0.8-2,1.8-2.1,3.4
			c-0.1,2.9-1.2,5.6-2.1,8.2c-0.5,1.5-0.1,2.9,0.9,3.9c1.7,1.5,3.4,2.9,4.7,4.9c0.5,0.7,1.3,1.4,2.1,1.6c4,0.8,7,3.4,10.2,6
			c0.7,0.6,1.4,1.1,2.2,1.4c3.3,1.1,6.3,2.8,8.6,6c1.4,1.9,3.5,2.7,5.8,2.7c2.6,0.1,4.4-1,5.6-3.8c2.3-5.7,3.5-11.8,4.9-17.8
			c0.3-1.5,0.1-3.3-0.2-5c-0.7-3.8-0.7-7.6,0.1-11.4c0.1-0.7,0.3-1.4,0.3-2.1c-0.9-7.3,3.1-12.7,5.7-18.6c0.2-0.4,0.5-0.8,0.8-1.1
			c0.6-0.7,1.5-1.2,2.3-0.8c0.5,0.2,1.2,0.9,1.3,1.5c0.3,6.2,3.4,11.2,5.2,16.8c0.8,2.7,1.3,5.5,1.9,8.3c0.7,3.3,1,3.6,4.3,4.2
			c4.2,0.7,7.6,4.1,8.5,8.4c0.5,2.3,0.8,4.7,1.2,7.1c0.4,2.6,1,5.1,2.6,7.2c1.9,2.7,2.6,6,2.8,9.4c0.5,6.4,2.8,11.2,8.7,13.7
			c3.7,1.6,7.1,4.4,10.5,6.8c0.7,0.5,1.5,1.2,1.7,2c1.5,5.7,6.2,9.8,6.3,16.2c0,1.3,1,2.1,2.3,1.7c1.6-0.6,2.9,0.6,4.3,1
			c1.6,0.5,2.8,1.7,2.8,3.5c0.1,6.2,3,10,7.5,13.3c2.6,1.9,4.3,5.2,6.5,7.9c1,1.3,2,1.2,3.3,0.2c1.1-0.9,2.2-0.2,2.2,1
			s0,2.4-0.3,3.5c-1,4.5-0.6,9-0.5,13.6c0,0.9-0.1,2.2,0.4,2.8c3.8,4.5,1.2,10.4,2.8,15.5c0.3,1,0,2.4-0.3,3.5
			c-1.6,5-1.4,10.4-3.3,15.3c-0.3,0.6-0.4,1.4-0.4,2.1c0.8,6.4-2.4,11.5-4.5,16.9c-0.6,1.5-1.7,2.8-2.8,3.8
			c-2.7,2.6-4.3,5.9-5.6,9.5c-1,2.7-2,5.3-2.8,8c-1.3,4.1-2.4,8.2-4.8,11.7c-1.2,1.7-1.5,3.9-1.8,6.1c-0.4,4-1.1,8-1.4,12.1
			c-0.3,3-1.8,4.8-4.2,5.7c-1.8,0.7-3.7,1.4-5.7,1.2c-3.7-0.4-6.7,1.3-9.4,3.8c-2.7,2.4-5.3,4.8-7.8,7.4c-1.1,1.2-2.1,1.5-3.4,0.6
			c-1.6-1.2-3.5-2.1-4.7-3.7c-1.4-1.9-3.3-1.9-5.1-2.5c-2.5-0.8-4.6-0.4-6.5,1.7c-3.1,3.6-6.4,3.4-9.9,0.8c-2-1.5-4.3-2.3-6.6-2.7
			c-3.2-0.5-6.1-2.1-9.1-3.3c-5.7-2.4-8.5-7.1-8.9-13.6c-0.2-3.2-1-6-2.4-8.8c-1.6-3.3-3.3-5.4-7.1-4.1c-1.5,0.5-2.4-0.9-1.9-2.7
			c0.7-2.8,1.6-5.5,0.4-8.4c-0.2-0.5-0.9-0.9-1.4-1.1c-0.3-0.1-0.9,0.4-1,0.7c-0.4,1.1-0.6,2.3-1,3.4c-1.2,3-3,4.1-6.2,3.8
			c-0.8-0.1-1.5-1.4-1.1-2.2c0.4-0.8,0.9-1.6,1.6-2.2c1-1.1,1.7-2.2,1.8-3.7c0.1-4,1.5-7.4,3.3-10.7c0.4-0.7,0.3-1.8,0.3-2.8
			c0-0.2-0.3-0.4-0.4-0.5c-0.2-0.1-0.6-0.1-0.6,0c-2.3,5.4-7.5,7.8-10.6,12.2c-0.8,1.1-1.5,2.3-2.1,3.6c-0.6,1.2-0.3,3.1-2.1,3.2
			c-2.1,0.1-4.7-2.5-4.8-4.9c-0.1-1.9,0-3.9-0.8-5.6c-1.1-2.6-2.3-5.2-4.3-7c-1.5-1.3-3-2.7-3.5-5c-0.4-2.1-1.9-3.1-3.5-4
			c-1.1-0.7-2.3-1.2-3.5-1.8c-4.4-2.3-9.5-2.4-13.5-6.1c-1.3-1.2-3.3-1-5-0.8c-4.1,0.4-8.1,0.7-12.2,1.3c-1.7,0.2-3.4,0.8-4.9,1.7
			c-4.8,3-10.1,4-15.5,4.1c-3.1,0-5.9,0.5-8.6,2.4c-1.6,1.1-3.5,1.9-5.2,2.8c-3.4,1.7-6.5,3.6-8.1,7.7c-1.1,2.9-3.5,4.1-6.3,4.1
			c-4.5,0-9,0-13.5,0c-2.6,0-5.1,0.2-7.7,0.2c-2.2,0.1-4.3,0.7-5.7,2.8c-0.8,1.1-1.8,2.2-3,2.6c-2.6,0.7-4.6,2.4-6.6,4.3
			c-2.2,2.2-4.8,3.1-7.8,2.3c-1.7-0.4-3.4-0.5-5.1-0.7c-5.5-0.8-9.1-5.1-12.8-9c-1.3-1.3-1.2-4.2,0.2-6c1.5-2,3.4-3.8,3.3-6.7
			c-0.1-5.2,1.5-10.5-0.9-15.6c-0.9-1.9-1.5-4-2.4-5.9c-1.8-3.9-3.1-7.9-2.9-12.3c0.1-2.5-0.9-4.6-1.8-6.8c-2-4.5-4.1-9-5-14
			c-0.4-2.1-1.3-4-2.7-5.6c-0.7-0.9-1.4-1.8-2.1-2.8c-1.4-2.1-2.2-4.1,0-6.2c0.4-0.4,0.5-1.3,0.8-1.9c1.7-0.5,1.9,1.8,3.2,1.9
			c0.3,0,1-0.4,1-0.6c0-0.7-0.1-1.4-0.4-2c-1.3-3.3-2.7-6.5-4.1-9.7c-1.4-3.2-1.8-6.4-0.1-9.6c1.3-2.4,1.5-5,1.4-7.6
			c-0.1-2.2-0.2-4.4,0.6-6.4c0.6-1.7,1.3-3.9,3.6-1.9c0.6,0.5,1.2,0,1.7-0.5c4.3-4,9.5-6.4,13.7-10.6c1.4-1.5,3.3-2.5,5.3-2.3
			c5.4,0.5,10-2.4,14.8-4.1c2.3-0.8,4.4-1.6,6.8-2c2.7-0.5,5.4-1.6,8.1-2.5c2.3-0.8,4.1-2.5,5.6-4.6c2-2.8,3.8-5.7,5.7-8.6
			c1-1.5,0.9-3.2,0.6-4.8c-0.6-3.5,0.8-6,3-8.2c2.2-2.3,3.2-2.2,5,0.6c0.4,0.6,0.6,1.3,1,1.8c0.4,0.6,1.1,0.9,1.7,0.4
			c0.3-0.3,0.6-0.8,0.6-1.2c-0.1-1.2-0.4-2.4-0.4-3.5c-0.2-2.4,0.5-3.9,2.7-3.6c0.4,0.1,0.9,0.1,1.3,0.2c1.6,0.2,2.7-0.8,2.9-2.2
			c0.7-4.3,3.6-7.1,5.9-10.1c3.5-4.5,8.3-7.3,13.5-8.7c2.3-0.6,4.6,0.8,6.4,2.8c0.9,1,1.6,2.2,2.5,3.3c1.2,1.5,2.6,2.6,4.5,2.2
			C166.3,129.4,168.5,130.4,170.9,130.9z"/>
		<path class="st1" d="M340.8,89.3c-0.7,0.9-1.3,1.9-2,2.7c-1.2,1.3-2.7,1.8-4.2,1.1c-4.8-2.4-9.9-2.9-15-3.8
			c-2.2-0.4-4.1-1.4-5.6-3.2c-3.5-4.2-7.9-7.4-10.6-12.4c-0.5-1-1.5-1.9-2.4-2.3c-2.9-1.4-6-2.6-9-3.9c-1.3-0.5-2.6-0.6-3.7,0.1
			c-3.2,2.1-7,3.6-7.3,9c-0.2,3-2.6,4.8-5.5,4.7c-2.6-0.1-5.1-0.3-7.7-0.7c-2.6-0.4-3.8-1.7-4.1-4.7c-0.3-2.9-0.1-5.7-0.4-8.6
			c-0.5-5.7-0.6-11.4-0.2-17.1c0.2-3.3-0.1-6.7-0.5-10c-0.5-4.8-0.6-9.5-0.3-14.3c0.1-2.5,1.4-3.3,3.5-2.6c1.4,0.5,2.8,1.1,4.2,1.7
			c5,2,10.1,4.1,15.1,6c4.7,1.8,8.4,5.6,12.6,8.4c1,0.7,2,2,2.5,3.2c1.8,5,5.8,6.8,9.8,8.5c1.4,0.6,2.9,0.9,4.3,1.6
			c3.2,1.7,3.3,4.6,0.3,7c-0.3,0.3-0.8,0.4-1.1,0.7c-1.3,1.1-1.5,2.4-0.7,3.7c0.2,0.4,0.5,0.8,0.8,1.1c3.1,2.9,6.2,5.9,7.8,10.2
			c0.2,0.6,0.7,1.4,1.3,1.6c3.5,1,5.4,4.4,8.2,6.3c0.7,0.5,1.8,0.7,2.1,1.5C334.9,88.2,338,88.4,340.8,89.3L340.8,89.3z"/>
		<path class="st1" d="M512.1,424.6c-1.8,1.4-4.1,0.8-6.1,1.7c-3.2,1.5-5.7,3.5-6.2,7.5c-0.5,3.9-2.2,7.2-3,10.9
			c-1.7,7.6-7.2,10.9-12.7,14.2c-1.1,0.7-2.5,0.6-3.8,0.3c-2.3-0.5-4.6-1.1-6.7-2.4c-2.3-1.4-4.5-2.7-7.2-2.7
			c-0.8,0-1.7-0.4-2.5-0.7c-1.7-0.8-2.5-2.9-1.8-4.7c1.9-5,3.1-10.5,7.5-13.9c0.2-0.1,0.3-0.3,0.4-0.5c2.7-4.7,5.8-8.9,11.1-10
			c4.7-4.2,9.4-8.3,14-12.6c1.7-1.6,2.5-3.9,3-6.3c0.5-2.6,1.5-5,3.5-6.7c1.6-1.4,2.6-3.2,3-5.4c0.3-1.2,0.6-2.3,1-3.4
			c1.6-3.7,3.1-4.1,5.8-1.3c0.5,0.5,1,1,1.3,1.6c1.1,2.1,2.5,2.3,4.3,1c0.5-0.4,1.2-0.6,1.8-0.7c1.5-0.3,3.2,1,3.3,2.7
			c0.3,4.5,0.5,9-2.6,12.8c-2.1,2.7-3.7,5.9-5.9,8.5s-2.9,5.2-1.4,8.4C512.3,423.5,512.1,424.1,512.1,424.6z"/>
		<path class="st1" d="M511.6,320.1c2.3,1.9,4.7,3.7,7.4,4.9c3.2,1.5,4.6,4.9,5.7,8.3c0.8,2.5,1.2,5.1,1.8,7.6
			c0.3,1.1,0.6,2.3,1.2,3.2c0.6,0.9,1.7,1.8,2.7,1.4c1-0.3,0.4-1.6,0.6-2.5c0.1-0.4,0.5-0.9,0.8-0.9c0.4-0.1,0.9,0.2,1.2,0.5
			c1,1,1.2,2.5,1.4,3.9c0.7,5.3,4.1,7.6,8.3,8.8c1.3,0.4,2.5,0.3,3.7-0.4c1.1-0.7,2.2-1.5,3.4-2.1c2.8-1.3,4.8,0.1,5,3.3
			c0.1,3.1,0,6.2-1.9,8.9c-0.6,0.9-1.1,2.1-1.4,3.1c-0.4,1.3-1.1,1.6-2.4,1.8c-4.2,0.4-4.9,1.1-5.1,5.5c-0.1,2.2-0.5,4.3-1.3,6.2
			c-2.2,4.9-4.8,9.6-8.1,13.8c-2.2,2.7-6.6,1.8-8.3-1.3c-0.3-0.5-0.3-1.4-0.1-2c0.3-1.1,0.9-2.1,1.4-3.2c2.2-5.2,1.7-7.2-2.4-10.2
			c-1.6-1.2-3.3-2.3-4.8-3.7c-2-1.8-2.3-4.6-0.2-6.1c4.5-3.1,4.5-8.4,5.8-13.1c0.6-2.1-0.1-4.2-1-6.2c-2-4.2-3.8-8.5-6.4-12.4
			c-3.2-4.6-5.7-9.6-7.5-15C510.9,321.7,510.7,321,511.6,320.1z"/>
		<path class="st1" d="M320.3,399c0.3,6-2.3,10.4-5.8,14.5c-1.5,1.7-3,3.4-4.4,5.3c-0.9,1.3-1.5,3.1-3.3,3c-2.4-0.1-4.7-0.5-6.3-2.9
			c-2.5-4-4.8-7.9-5.8-12.7c-0.7-3.2-1.7-6.4-2.6-9.6c-0.3-1.1-0.6-2.3-0.7-3.4c-0.4-4.2,1.5-5.9,5-4.7c0.8,0.3,1.7,0.6,2.3,1.2
			c3.6,3.3,7.6,2.7,11.6,1.1c1.4-0.6,2.8-1.3,4.2-1.8c2.4-0.8,4.3,0.3,4.9,3C320,394.2,320,396.6,320.3,399z"/>
		<path class="st1" d="M332.9,55.7c-4-0.5-7.9-1.7-11.1-4.7c-0.5-0.5-0.7-1.2-0.3-1.9c0.2-0.4,0.6-0.9,0.9-0.9
			c1.3-0.2,2.5-0.3,3.8-0.4c1.5-0.2,3.2,0.1,4.4-0.7c2.3-1.5,4.2-3.2,6.6-0.3c0.3,0.4,1.8,0.2,2.4-0.3c2.5-2.1,5.6-3.6,6.5-7.5
			c0.1-0.6,0.6-1.2,1.1-1.7c0.9-0.8,2-0.9,3-0.6c1.1,0.4,1.8,1.3,1.9,2.6c0.3,3.3-0.5,6.4-2.6,8.6C345,52.8,339.6,56.1,332.9,55.7z"
			/>
		<path class="st1" d="M443,179.5c0.6,0.1,1.3,0.1,1.8,0.3c2.5,1.4,4.9,3,6.6,5.5c2.1,3.1,4.5,5.7,7.7,7.4c0.4,0.2,0.8,0.5,1.1,0.7
			c2.8,2.2,4.2,4.8,3.1,5.4c-2,1.1-3.7-0.4-5.3-1.4c-5.7-3.4-11-7.3-14.7-13.5c-0.6-1-1.2-2-1.1-3.2
			C442.2,180.3,442.7,179.9,443,179.5z"/>
		<path class="st1" d="M550.4,161.4c-1.2-0.3-2.2-0.4-3.2-0.8c-1-0.4-1.8-1.2-2-2.5s0.3-2.4,1.1-3.1c1.5-1.4,3.4-1.9,5.3-1.8
			c2,0.1,3.8,2.5,3.6,4.9c0,1-0.6,1.9-1.3,2.2C552.7,160.8,551.5,161.1,550.4,161.4z"/>
		<path class="st1" d="M182.2,99c0.7-0.1,1.3-0.2,2-0.3c0.9-0.1,1.7,0.3,2.1,1.2c0.6,1.2,0.1,2.3-0.6,3.2c-0.9,1.1-2.1,1.6-3.4,1.4
			c-1.7-0.3-3.4-0.6-5-0.9c-0.9-0.2-1.4-1-1.3-2.1c0.1-1,0.6-1.7,1.4-2.2C178.9,98.3,180.6,99.3,182.2,99z"/>
		<path class="st1" d="M377.5,59.8c-0.3-0.1-1.3-0.2-1.8-0.9c-1.9-2.8-3.6-5.8-5.2-8.7c-0.2-0.4,0.2-1.3,0.5-1.8
			c0.1-0.2,0.9-0.3,1.2-0.1c3.1,2.1,5.6,5,7.5,8.4C380.4,57.8,379.4,59.7,377.5,59.8z"/>
		<path class="st1" d="M414,79c1.4,2,2.8,3.7,4,5.5c0.5,0.7-0.1,2.1-0.9,2.1c-2.3,0.1-4.6-0.1-6.8-1.2c-1-0.5-1.7-1.4-1.7-2.7
			c0-1.1,0.7-1.6,1.5-2C411.5,80.2,412.8,79.6,414,79z"/>
		<path class="st1" d="M557.3,149.6c-0.7-0.7-1.3-1-1.6-1.6c-0.5-1,0-1.9,0.7-2.4c1.9-1.6,4.2-2.2,6.5-2.8c1.1-0.3,2.1,0,2.5,1.4
			c0.3,1.2,0.1,2.7-0.9,3.1C562.1,148.3,559.6,148.9,557.3,149.6z"/>
		<path class="st1" d="M231.5,336.4c-0.5-0.1-1.7-0.2-2.9-0.6c-0.5-0.1-1-1-1-1.6s0.4-1.3,0.8-1.7c1.2-1.1,2.6-1.5,4.1-1.5
			c2,0,3.8,0.6,4.8,2.7c0.6,1.3-1.6,2.6-4.4,2.8C232.7,336.4,232.5,336.4,231.5,336.4z"/>
		<path class="st1" d="M351.3,30.2c2.1,0.7,3.8,2.3,5.4,3.9c1.1,1.1,1.9,2.6,1.7,4.4c-0.1,1-0.5,1.9-1.4,2.2c-0.9,0.4-1.7-0.1-2.1-1
			c-0.8-1.9-1.5-3.9-2.3-5.9c-0.5-1.1-1.1-2-1.6-3.1L351.3,30.2z"/>
		<path class="st1" d="M385.5,66.7c0.2,0,0.4-0.2,0.6-0.1c2.7,1.3,5.5,2.6,7.9,4.6c1.7,1.5,2.7,3.7,1.8,4c-1.5,0.4-2.3-1-3.3-1.7
			c-2.3-1.7-4.7-3.3-7-5c-0.3-0.2-0.3-0.8-0.4-1.3C385.2,67.1,385.4,66.8,385.5,66.7z"/>
		<path class="st1" d="M409.4,72c-0.3,0.2-0.7,0.7-1,0.6c-2.7-0.7-5.2-2.2-7.1-4.5c-0.2-0.3-0.3-0.9-0.2-1.3c0.3-0.8,1-0.9,1.6-0.6
			c2.2,1.3,4.6,2.4,6.5,4.5C409.4,71,409.3,71.6,409.4,72z"/>
		<path class="st1" d="M631.9,122.6c-0.3,0.3-0.6,0.8-0.9,0.8c-2.4,0.2-4.6-0.9-6.7-2.2c-0.4-0.3-0.9-1.2-0.8-1.7
			c0.2-1.2,1.3-1.3,2-1c2,0.8,3.9,1.9,5.9,2.9C631.6,121.5,631.7,122.2,631.9,122.6z"/>
		<path class="st1" d="M423.4,82.1c-0.6,0.4-0.9,0.8-1.3,0.8s-0.9-0.2-1.1-0.5c-2-2-3.1-4.5-3.6-7.3c-0.1-0.3,0.3-0.8,0.6-1.1
			c0.1-0.1,0.5-0.1,0.6,0C420.6,76.4,422.1,79.2,423.4,82.1z"/>
		<path class="st1" d="M466.3,134.7c-0.1,1.1-0.5,1.9-1.4,2.1c-0.6,0.1-1.4,0.1-1.8-0.2c-1.4-1.3-1.7-3.1-1.6-5.1
			c0-0.3,0.6-0.7,0.9-0.7C464.7,131.1,466.3,132.8,466.3,134.7z"/>
		<path class="st1" d="M350.9,30.7c-4-0.6-6.9-3.4-10-5.8c-0.2-0.2-0.3-0.9-0.2-1.2c0.2-0.3,0.8-0.5,1.1-0.4
			c3.2,2.2,6.9,3.7,9.5,6.9L350.9,30.7z"/>
		<path class="st1" d="M474.2,462.6c0.2,2.3-1.7,4.5-3.5,4.2c-0.3-0.1-0.7-0.6-0.8-0.9c-0.3-1.8,0.4-3.2,1.4-4.4
			c0.5-0.5,1.2-0.7,1.7-0.2C473.6,461.6,473.9,462.2,474.2,462.6z"/>
		<path class="st1" d="M424.6,89.7c1.8,0.1,3.3,0.9,4.1,2.8c0.1,0.4,0.1,1-0.1,1.3s-0.7,0.7-1,0.6c-1.8-0.2-3.2-1.3-3.9-3.2
			c-0.1-0.2-0.1-0.6,0-0.7C423.9,90.2,424.2,90,424.6,89.7z"/>
		<path class="st1" d="M317.1,377.6c2.1,0.9,3.5,4,2.8,6.4c-0.1,0.3-0.9,0.6-1,0.4c-1.8-1.5-2.6-3.6-2.8-6.1
			C316.1,378.1,316.8,377.9,317.1,377.6z"/>
		<path class="st1" d="M390.9,61.9c-0.4,0.6-0.6,1.2-0.9,1.2c-2.5,0.2-5.4-2.2-5.4-4.6c0-0.3,0.6-0.8,0.8-0.8
			C387.8,58.4,389.3,60.2,390.9,61.9z"/>
		<path class="st1" d="M227,121.3c1.2-0.2,2.4,1.1,2.4,2.7c0,1-0.5,1.8-1.5,2c-1.2,0.2-2-0.7-2.3-1.9
			C225.3,122.8,226.1,121.4,227,121.3z"/>
		<path class="st1" d="M340.8,89.4c-1.1-2-2.2-4.1-3.2-6.1c-0.1-0.2,0.3-0.9,0.6-1.1c0.3-0.2,0.9-0.2,1.2,0c1.8,1.2,2.3,3.4,3,5.3
			C342.6,88.4,341.5,88.9,340.8,89.4L340.8,89.4z"/>
		<path class="st1" d="M474.1,132.4c0.4,0.3,1,0.4,1.1,0.8c0.2,0.6,0.2,1.4,0.1,2c-0.2,0.9-0.7,1.7-1.2,2.4
			c-0.1,0.1-1.1-0.4-1.6-0.8c-1-1-0.8-2.1,0.1-3.1C473.1,133.2,473.6,132.9,474.1,132.4z"/>
		<path class="st1" d="M596.5,425.3c0,1-0.3,1.8-1.3,2.1c-1,0.3-1.9-1.1-1.9-2.9c0-1.1,0.6-1.7,1.6-1.7
			C596.2,422.9,596.4,424,596.5,425.3z"/>
		<path class="st1" d="M470,143.8c-0.2,0.3-0.5,0.8-0.8,0.8c-1.4,0.2-2.8-1.7-2.4-3.3c0.1-0.3,0.7-0.7,1-0.6
			C469.2,141,470,142.4,470,143.8z"/>
		<path class="st1" d="M286.5,377.6c0,0.4,0,1.6-1,1.7c-1.1,0.1-1.2-1-1.2-1.9c0-1,0.2-2,1.3-1.8
			C286.2,375.6,286.4,376.4,286.5,377.6z"/>
		<path class="st1" d="M357.6,98.2c1.5,0.1,2.6,1.1,3.4,2.5c0.1,0.2-0.3,1-0.4,1c-1.6,0.2-2.7-0.8-3.4-2.3
			C357.1,99.1,357.4,98.6,357.6,98.2z"/>
		<path class="st1" d="M606.5,188.9c-0.2,0.3-0.3,0.9-0.6,1c-0.8,0.2-1.7,0-2.1-0.9c-0.4-0.7,0-1.3,0.8-1.4
			C605.4,187.4,606.1,187.9,606.5,188.9z"/>
		<path class="st1" d="M249.7,147.4c-0.3-0.3-0.8-0.6-0.8-0.9c-0.1-1.2,0.6-1.7,1.5-1.8c0.7-0.1,1.3,0.5,1.2,1.3
			C251.5,147.1,250.6,147.4,249.7,147.4z"/>
		<path class="st1" d="M457.2,513.5c0.2-0.4,0.4-1.1,0.8-1.4c0.7-0.4,1.2,0.3,1.1,1c0,0.6-0.3,1.4-0.7,1.6
			C457.9,515.1,457.4,514.5,457.2,513.5z"/>
		<path class="st1" d="M309.5,19.1c-0.4,0.7-1,0.9-1.7,0.7c-0.7-0.3-0.9-1-0.4-1.6s1.1-0.6,1.8-0.2
			C309.6,18.2,309.7,18.6,309.5,19.1z"/>
		<path class="st1" d="M334.9,23.3c-0.7-0.2-1.1-0.7-0.9-1.4c0.2-0.7,0.8-1,1.4-0.8c0.3,0.1,0.7,0.6,0.7,1
			C336.1,23,335.6,23.3,334.9,23.3z"/>
		<path class="st1" d="M554.1,167.3c0.2,0.3,0.6,0.7,0.5,0.9c-0.3,1-1,1.3-1.8,1c-0.2,0-0.4-0.3-0.3-0.5
			C552.6,167.7,553.2,167.3,554.1,167.3z"/>
	</g>
</g>
</svg>
