<?xml version="1.0" encoding="utf-8"?>
<!-- Generator: Adobe Illustrator 20.0.0, SVG Export Plug-In . SVG Version: 6.00 Build 0)  -->
<svg version="1.1" id="Vrstva_1" xmlns="http://www.w3.org/2000/svg" xmlns:xlink="http://www.w3.org/1999/xlink" x="0px" y="0px"
	 viewBox="0 0 640 480" style="enable-background:new 0 0 640 480;" xml:space="preserve">
<style type="text/css">
	.st0{fill:#2153A0;}
	.st1{fill:#FFFFFF;}
	.st2{fill:#FDC535;}
</style>
<g id="Vrstva_2_1_">
	<g>
		<rect id="rect4132" y="-0.2" class="st0" width="639.8" height="479.5"/>
		<path id="path3340" class="st1" d="M416.9,101.5l-7,21.4l-22.2-0.2l18.2,13.2l-7.1,21l18.2-13.2l17.8,13.2l-7-21.4l18.1-12.9
			h-22.5L416.9,101.5z"/>
		<path id="path3342" class="st1" d="M353.1,91.9l-7,21.4l-22.2-0.2l18.2,13.2l-7.1,21l18.2-13.2l17.8,13.2l-7-21.4l18.1-12.9h-22.5
			L353.1,91.9z"/>
		<path id="path782" class="st2" d="M315.2,194.2c0.7,0,2.1,0,2.8-0.1c1.6,1.7,3.3,3.3,5,5c0,1.3,0.5,2.2,1.8,2.6
			c-1.1,0.3-2.3,0.4-3.5,0.5c-0.5,0.7-1.1,1.2-1.8,1.5c0.2,1.9,1.9,3,3.1,4.2c1.2,0.1,2.6,0.1,3.6,1c0.9,0,1.8,0,2.7,0.1
			c0,1.2,0,2.4,0,3.5c1.1-0.1,2.5,0.1,2.9-1.3c2,0,4,0,5.9,0c0.5,1.1,1.7,1.2,2.7,1.6c0.1,0.6,0.4,1.8,0.5,2.5c1-1.3,1.9-2.9,3.8-3
			c0.6,0.8,1.2,1.6,1.8,2.3c1,0.1,2.1,0.2,2.6,1.3c0.5,0,1.4,0.1,1.8,0.1c0,2.2-0.1,4.4,0.1,6.6c0.3,0.2,0.8,0.5,1.1,0.7
			c0,1.8,0,3.5,0,5.3c1.1,0.9,2.9,1.8,3.9,0.1c0.5,0,1,0,1.6,0c0.7,1,1.5,1.8,2.5,2.5c0,1.7,0,3.4,0,5.2c2.3,0.8,0.8,3.9,1.3,5.8
			c1.2,0.8,2.1,1.8,2.6,3.1c0.3-0.6,0.7-1.2,1-1.7c1.3,0,2.6,0,4,0.1c0.6,0.7,1.2,1.4,1.8,2.1c0.3,0.3,0.8,0.9,1.1,1.2
			c0.9,0.2,1.8,0.5,2.6,1.2c0.8,0,1.6,0.1,2.3,0.1c0.6,1.4,2.2,1.2,3.5,1.5c-0.4,0.3-1.3,1-1.7,1.3c0,2.9,0.2,5.8-0.1,8.7
			c-0.3,0.1-0.8,0.5-1.1,0.6c0,1.5-0.3,2.9-1.3,4.1c0.6,0,1.8,0,2.4,0c0,0.3,0.1,1,0.1,1.4h1.1c0-0.3,0.1-1,0.1-1.4
			c0.7,0,1.4,0,2.1,0c0,0.3,0.1,1,0.1,1.3c1.3,0.2,3.1-0.5,3.8,1c3.3,0.1,6.5,0,9.8,0c0,0.4,0.1,1.3,0.1,1.7c0.5,0.6,1,1.2,1.5,1.7
			c1.1,0,2.2,0,3.3,0c0,0.5-0.1,1.5-0.1,1.9c1,0.9,2.1,1.7,3.5,1.7c0-0.6,0-1.8,0-2.4c0.5,0,1.6,0,2.1,0c0-0.3,0.1-1,0.2-1.3
			c1.5,0.1,3.6-0.4,3.9,1.7c0.3-0.5,0.9-1.4,1.3-1.9c1,0.3,1.9,1,2.7,1.6c0,0.4,0,1.3,0,1.8c1.8,0.4,1.1,2.3,1.2,3.6
			c-0.8,0.6-1.5,1.2-2.3,1.8c0,1.8,0,3.6,0,5.5c-0.5,0-1.6,0-2.2,0c0,2.1,0,4.2,0,6.3c-1.2,1-2.4,2.1-3.5,3.2c0,1.3,0,2.5,0,3.8
			c-0.8,0.7-1.7,1.4-2.5,2.1c0,0.4,0,1.2,0,1.6c-0.9,0.8-1.9,1.4-3.1,1.6c-0.6,0.7-1.1,1.4-1.7,2.1c-0.4,0.1-1.2,0.3-1.5,0.4
			c0.6,0.4,1.3,0.7,1.9,1.1c0,2.5,0,5,0,7.5c-1.5,1.3-3.5,1.2-5.4,1.2c-0.6,0.8-1.3,1.6-1.9,2.4c-1.4,0-2.4,0.9-3.2,1.9
			c0,1.2,0.1,2.4,0.1,3.6c2.1,1.1,2.9,4.2,5.6,4.1c0,2,0.4,4.3-1.5,5.6c-0.9,0-1.7,0-2.6,0c-1.3,1.9-4.2,0.6-6.2,1
			c0-0.6,0-1.6,0-2.2c-0.6,0-1.2,0-1.8-0.1c-0.6,0.7-1.3,1.4-1.9,2.1c-1.1,0.1-2,0.7-2.8,1.3c-1.3,0.1-2.6,0.1-3.9,0
			c0,0.3-0.1,1-0.1,1.4c-1,0-2,0-2.9-0.1c-0.8,0.8-1.5,1.8-1.6,3c-0.7,0.6-1.4,1.2-2,1.7c0,1.4,0.1,2.9-1.4,3.6
			c0.3,1.6-0.9,4.4,1.4,4.8c0,0.6,0,1.2-0.1,1.7c-3.1,0.1-6.1,0.1-9.2,0.1c0-1,0-2.1,0-3.1c-2.2-0.6-0.9-3.5-1.2-5.1
			c-0.3,0-1-0.1-1.3-0.1c0-0.5,0-1.5,0-2.1c-1-0.1-2.1,0-2.6-1.1c-0.4,0-1.3,0-1.8,0c-0.1-0.8-0.1-1.7-0.2-2.5c-1.9,0-3.7,0-5.6,0
			c0,0.4-0.1,1.3-0.1,1.7c-0.5,0.6-1,1.2-1.6,1.7c-1,0-1.9,0-2.8,0c-0.5,0.7-1,1.4-1.5,2.2c-1.4,0-2.8,0-4.2,0.1
			c-0.5,0.6-1,1.1-1.6,1.6c0,0.4,0,1.3-0.1,1.8c-1.1,0.1-2.2,0.1-2.5,1.4c-0.9,0-1.8,0-2.7,0c-0.6,0.7-1.1,1.5-1.7,2.2
			c-1.7,0-3.4,0-5.1,0c-0.8,2-3.2,1-4.8,1.3c-0.7,1-1.5,1.8-2.5,2.4c0,1.1,0,2.2,0,3.2c-0.3,0-1,0.1-1.3,0.1c0,1,0,2.1,0,3.1
			c-0.8,0.6-1.5,1.2-2.2,1.8c0.1,2.8,0.1,5.6,0,8.4c0.7,0.6,1.5,1.2,2.3,1.8c0,2.5,0,5,0,7.4c-0.5,0.5-1,1-1.5,1.5
			c-0.5,0-1.4,0-1.9,0.1c0,0.5,0,1.4,0,1.9c-0.4,0.4-1.1,1.1-1.5,1.5c-2.1,0-4.1,0-6.2,0c-0.9,1.2-1.9,2.4-2.9,3.5
			c-1.4,0-2.7,0-4.1,0c-0.2-1.1-0.4-2.1-1.1-3c-0.1-2.7-0.1-5.5-0.1-8.2c1.1-1.1,2.3-2.2,3.4-3.3c0-1.2,0-2.4,0-3.6
			c-0.3-0.2-0.9-0.5-1.1-0.6c-0.3-3.7,0-7.5-0.1-11.2c-0.5,0-1.5,0-2,0c-0.2-1.1,0-2.6-1.5-2.8c0-2.8,0-5.6,0-8.4
			c-0.7-0.6-1.4-1.2-2-1.8c-0.2-1.1-0.2-2.3-1.4-2.7c0-0.8,0-1.6,0-2.4c-1.5-0.7-1.2-3,0.3-3.3c-1.3-1.1-2.5-2.4-3.8-3.6
			c0-0.4,0-1.2,0-1.5c-1.4-0.3-2.7-1-4.1-1.4c-0.4-1-1.4-1.1-2.3-1.1c-0.2-0.2-0.7-0.7-0.9-1c-0.9-0.1-1.6-0.5-2.2-1.1
			c-0.4,0-1.2,0-1.6,0c-0.5-2.2-1.5-4.3-1.2-6.6c-0.6-0.5-1.1-1.1-1.6-1.6c-2.8-0.1-5.7,0-8.5-0.1c-0.7,0-1.3-0.2-1.8-0.7
			c-0.6-0.6-1.3-1.3-2-1.9c0-1.9,0.1-3.8-0.1-5.7c-0.5-1.3-1.3-2.4-2.1-3.6c0-0.4-0.1-1.3-0.1-1.7c-0.3,0-0.9-0.1-1.3-0.2
			c0-0.4,0-1.3,0-1.8c-1.4-0.8-0.8-2.6-1-3.8c-1.1,0-2.3-0.1-3.4-0.1c0-0.4,0-1.3,0-1.8c-0.6-0.5-1.1-1.1-1.7-1.6
			c-0.5,0-1.4-0.1-1.8-0.1c0-0.4,0-1.3,0-1.8c-1-0.7-1.3-1.7-1.3-2.9c0.6,0,1.7-0.1,2.3-0.1c0-2.1,0-4.2-0.1-6.3
			c-0.7-1.3-1.3-2.7-2.4-3.7c-0.3-0.3-0.8-1-1.1-1.3c-0.4,0-1.2-0.1-1.6-0.1c-0.5-0.5-1-1-1.5-1.5c0-0.9,0-1.7,0-2.6
			c-1.7-0.4-1.1-2.3-1.3-3.5c-2.1-1.4-0.3-3.9,0.3-5.6c0.4-0.5,0.8-1,1.3-1.4c0.8-0.8,1.5-1.6,2.1-2.5c1,0,2,0,3,0
			c0.6,0.8,1.2,1.5,1.8,2.3c0.5,0,1.5-0.1,2-0.1c0,0.6,0,1.8,0,2.3c3.8,0,7.6,0,11.4,0c0.1-1.1-0.1-2.4,1.3-2.7c0-2.2,0-4.3,0.1-6.5
			c1.3-0.1,2.8,0.2,3.8-1c0.5,0,1.3-0.1,1.8-0.1c0-1.2,0-2.3,0-3.5c1.8,0,3.7,0.1,5.5-0.1c0.2-0.3,0.5-1,0.6-1.3
			c1.2-0.1,2,0.6,2.3,1.7c0.7-0.8,1.4-1.6,2.1-2.4c1.2-0.3,2.2-0.8,3-1.7c1.2-1,2.7-1.5,4.1-2.3c-0.3-0.3-1-1-1.3-1.3
			c-0.1-1.6-1.2-2.7-2.4-3.6c0-1.6,0-3.2,0-4.8c1-0.9,1.9-1.8,2.8-2.7c0.8,0,1.6,0,2.5,0c1.5-2,3.3-3.7,5.2-5.2c0-0.5,0-1.4,0-1.8
			c0.5,0,1.4,0,1.9,0c0.2,1.2,1.2,1.3,2.1,1.3c0.5-0.6,1-1.2,1.6-1.7c0-0.4,0.1-1.1,0.1-1.5c1.8-1.2,0.6-3.9,1-5.7
			c0.9-0.9,2.1-1.6,2.5-2.8c-0.4-1.2-1.6-1.9-2.5-2.8c0.6-2.9-2.1-4.2-3.6-6.2c-0.7-0.1-1.4-0.2-2-0.2c-0.2-1-0.1-2.2-1.1-2.8
			c0-1.4,0-2.8,0-4.1c2.9-0.1,5.9,0.2,8.8-0.1c0.1-0.3,0.4-0.8,0.6-1c1.2-0.8,2.6-1.3,3.7-2.3c1.2,0,2.5-0.1,3.7-0.1
			c0.6-0.8,1.2-1.5,1.8-2.2c0.5,0,1.5,0,2,0.1C315.1,195.1,315.2,194.5,315.2,194.2z"/>
		<path id="path4806" class="st1" d="M157.6,121.1l7,21.4l22.2-0.2l-18.2,13.2l7.1,21l-18.2-13.2l-17.8,13.2l6.9-21.4l-18.1-12.9
			H151L157.6,121.1z"/>
		<path id="path4808" class="st1" d="M222.9,101.5l7,21.4l22.2-0.2l-18.2,13.2l7.1,21l-18.2-13.2L205,156.9l7-21.4l-18.1-12.9h22.5
			L222.9,101.5z"/>
		<path id="path4810" class="st1" d="M286.7,91.9l7,21.4l22.2-0.2l-18.2,13.2l7.1,21l-18.2-13.2l-17.8,13.2l7-21.4L257.7,113h22.5
			L286.7,91.9z"/>
		<path id="path3338" class="st1" d="M482.2,121.1l-7,21.4l-22.2-0.2l18.2,13.2l-7.1,21l18.2-13.2l17.8,13.2l-6.9-21.4l18.1-12.9
			h-22.5L482.2,121.1z"/>
	</g>
</g>
</svg>
